<?xml version="1.0" encoding="utf-8" standalone="no"?>
<!DOCTYPE svg PUBLIC "-//W3C//DTD SVG 1.1//EN"
  "http://www.w3.org/Graphics/SVG/1.1/DTD/svg11.dtd">
<svg xmlns:xlink="http://www.w3.org/1999/xlink" width="449.107826pt" height="334.053906pt" viewBox="0 0 449.107826 334.053906" xmlns="http://www.w3.org/2000/svg" version="1.1">
 <metadata>
  <rdf:RDF xmlns:dc="http://purl.org/dc/elements/1.1/" xmlns:cc="http://creativecommons.org/ns#" xmlns:rdf="http://www.w3.org/1999/02/22-rdf-syntax-ns#">
   <cc:Work>
    <dc:type rdf:resource="http://purl.org/dc/dcmitype/StillImage"/>
    <dc:date>2024-11-22T06:38:13.339881</dc:date>
    <dc:format>image/svg+xml</dc:format>
    <dc:creator>
     <cc:Agent>
      <dc:title>Matplotlib v3.9.2, https://matplotlib.org/</dc:title>
     </cc:Agent>
    </dc:creator>
   </cc:Work>
  </rdf:RDF>
 </metadata>
 <defs>
  <style type="text/css">*{stroke-linejoin: round; stroke-linecap: butt}</style>
 </defs>
 <g id="figure_1">
  <g id="patch_1">
   <path d="M 0 334.053906 
L 449.107826 334.053906 
L 449.107826 0 
L 0 0 
z
" style="fill: #ffffff"/>
  </g>
  <g id="axes_1">
   <g id="patch_2">
    <path d="M 61.458125 287.646875 
L 441.907826 287.646875 
L 441.907826 34.426875 
L 61.458125 34.426875 
z
" style="fill: #ffffff"/>
   </g>
   <g id="matplotlib.axis_1">
    <g id="xtick_1">
     <g id="line2d_1">
      <defs>
       <path id="mfb6e6f9cdd" d="M 0 0 
L 0 -6 
" style="stroke: #000000; stroke-width: 1.25"/>
      </defs>
      <g>
       <use xlink:href="#mfb6e6f9cdd" x="74.013439" y="287.646875" style="fill: #ffffff; stroke: #000000; stroke-width: 1.25"/>
      </g>
     </g>
     <g id="line2d_2">
      <defs>
       <path id="mc7b4a45cae" d="M 0 0 
L 0 6 
" style="stroke: #000000; stroke-width: 1.25"/>
      </defs>
      <g>
       <use xlink:href="#mc7b4a45cae" x="74.013439" y="34.426875" style="fill: #ffffff; stroke: #000000; stroke-width: 1.25"/>
      </g>
     </g>
     <g id="text_1">
      <!-- 0 -->
      <g transform="translate(71.013439 299.479375) scale(0.12 -0.12)">
       <defs>
        <path id="TimesNewRomanPSMT-30" d="M 231 2094 
Q 231 2819 450 3342 
Q 669 3866 1031 4122 
Q 1313 4325 1613 4325 
Q 2100 4325 2488 3828 
Q 2972 3213 2972 2159 
Q 2972 1422 2759 906 
Q 2547 391 2217 158 
Q 1888 -75 1581 -75 
Q 975 -75 572 641 
Q 231 1244 231 2094 
z
M 844 2016 
Q 844 1141 1059 588 
Q 1238 122 1591 122 
Q 1759 122 1940 273 
Q 2122 425 2216 781 
Q 2359 1319 2359 2297 
Q 2359 3022 2209 3506 
Q 2097 3866 1919 4016 
Q 1791 4119 1609 4119 
Q 1397 4119 1231 3928 
Q 1006 3669 925 3112 
Q 844 2556 844 2016 
z
" transform="scale(0.015625)"/>
       </defs>
       <use xlink:href="#TimesNewRomanPSMT-30"/>
      </g>
     </g>
    </g>
    <g id="xtick_2">
     <g id="line2d_3">
      <g>
       <use xlink:href="#mfb6e6f9cdd" x="121.391982" y="287.646875" style="fill: #ffffff; stroke: #000000; stroke-width: 1.25"/>
      </g>
     </g>
     <g id="line2d_4">
      <g>
       <use xlink:href="#mc7b4a45cae" x="121.391982" y="34.426875" style="fill: #ffffff; stroke: #000000; stroke-width: 1.25"/>
      </g>
     </g>
     <g id="text_2">
      <!-- 10 -->
      <g transform="translate(115.391982 299.479375) scale(0.12 -0.12)">
       <defs>
        <path id="TimesNewRomanPSMT-31" d="M 750 3822 
L 1781 4325 
L 1884 4325 
L 1884 747 
Q 1884 391 1914 303 
Q 1944 216 2037 169 
Q 2131 122 2419 116 
L 2419 0 
L 825 0 
L 825 116 
Q 1125 122 1212 167 
Q 1300 213 1334 289 
Q 1369 366 1369 747 
L 1369 3034 
Q 1369 3497 1338 3628 
Q 1316 3728 1258 3775 
Q 1200 3822 1119 3822 
Q 1003 3822 797 3725 
L 750 3822 
z
" transform="scale(0.015625)"/>
       </defs>
       <use xlink:href="#TimesNewRomanPSMT-31"/>
       <use xlink:href="#TimesNewRomanPSMT-30" x="50"/>
      </g>
     </g>
    </g>
    <g id="xtick_3">
     <g id="line2d_5">
      <g>
       <use xlink:href="#mfb6e6f9cdd" x="168.770525" y="287.646875" style="fill: #ffffff; stroke: #000000; stroke-width: 1.25"/>
      </g>
     </g>
     <g id="line2d_6">
      <g>
       <use xlink:href="#mc7b4a45cae" x="168.770525" y="34.426875" style="fill: #ffffff; stroke: #000000; stroke-width: 1.25"/>
      </g>
     </g>
     <g id="text_3">
      <!-- 20 -->
      <g transform="translate(162.770525 299.479375) scale(0.12 -0.12)">
       <defs>
        <path id="TimesNewRomanPSMT-32" d="M 2934 816 
L 2638 0 
L 138 0 
L 138 116 
Q 1241 1122 1691 1759 
Q 2141 2397 2141 2925 
Q 2141 3328 1894 3587 
Q 1647 3847 1303 3847 
Q 991 3847 742 3664 
Q 494 3481 375 3128 
L 259 3128 
Q 338 3706 661 4015 
Q 984 4325 1469 4325 
Q 1984 4325 2329 3994 
Q 2675 3663 2675 3213 
Q 2675 2891 2525 2569 
Q 2294 2063 1775 1497 
Q 997 647 803 472 
L 1909 472 
Q 2247 472 2383 497 
Q 2519 522 2628 598 
Q 2738 675 2819 816 
L 2934 816 
z
" transform="scale(0.015625)"/>
       </defs>
       <use xlink:href="#TimesNewRomanPSMT-32"/>
       <use xlink:href="#TimesNewRomanPSMT-30" x="50"/>
      </g>
     </g>
    </g>
    <g id="xtick_4">
     <g id="line2d_7">
      <g>
       <use xlink:href="#mfb6e6f9cdd" x="216.149068" y="287.646875" style="fill: #ffffff; stroke: #000000; stroke-width: 1.25"/>
      </g>
     </g>
     <g id="line2d_8">
      <g>
       <use xlink:href="#mc7b4a45cae" x="216.149068" y="34.426875" style="fill: #ffffff; stroke: #000000; stroke-width: 1.25"/>
      </g>
     </g>
     <g id="text_4">
      <!-- 30 -->
      <g transform="translate(210.149068 299.479375) scale(0.12 -0.12)">
       <defs>
        <path id="TimesNewRomanPSMT-33" d="M 325 3431 
Q 506 3859 782 4092 
Q 1059 4325 1472 4325 
Q 1981 4325 2253 3994 
Q 2459 3747 2459 3466 
Q 2459 3003 1878 2509 
Q 2269 2356 2469 2072 
Q 2669 1788 2669 1403 
Q 2669 853 2319 450 
Q 1863 -75 997 -75 
Q 569 -75 414 31 
Q 259 138 259 259 
Q 259 350 332 419 
Q 406 488 509 488 
Q 588 488 669 463 
Q 722 447 909 348 
Q 1097 250 1169 231 
Q 1284 197 1416 197 
Q 1734 197 1970 444 
Q 2206 691 2206 1028 
Q 2206 1275 2097 1509 
Q 2016 1684 1919 1775 
Q 1784 1900 1550 2001 
Q 1316 2103 1072 2103 
L 972 2103 
L 972 2197 
Q 1219 2228 1467 2375 
Q 1716 2522 1828 2728 
Q 1941 2934 1941 3181 
Q 1941 3503 1739 3701 
Q 1538 3900 1238 3900 
Q 753 3900 428 3381 
L 325 3431 
z
" transform="scale(0.015625)"/>
       </defs>
       <use xlink:href="#TimesNewRomanPSMT-33"/>
       <use xlink:href="#TimesNewRomanPSMT-30" x="50"/>
      </g>
     </g>
    </g>
    <g id="xtick_5">
     <g id="line2d_9">
      <g>
       <use xlink:href="#mfb6e6f9cdd" x="263.527611" y="287.646875" style="fill: #ffffff; stroke: #000000; stroke-width: 1.25"/>
      </g>
     </g>
     <g id="line2d_10">
      <g>
       <use xlink:href="#mc7b4a45cae" x="263.527611" y="34.426875" style="fill: #ffffff; stroke: #000000; stroke-width: 1.25"/>
      </g>
     </g>
     <g id="text_5">
      <!-- 40 -->
      <g transform="translate(257.527611 299.479375) scale(0.12 -0.12)">
       <defs>
        <path id="TimesNewRomanPSMT-34" d="M 2978 1563 
L 2978 1119 
L 2409 1119 
L 2409 0 
L 1894 0 
L 1894 1119 
L 100 1119 
L 100 1519 
L 2066 4325 
L 2409 4325 
L 2409 1563 
L 2978 1563 
z
M 1894 1563 
L 1894 3666 
L 406 1563 
L 1894 1563 
z
" transform="scale(0.015625)"/>
       </defs>
       <use xlink:href="#TimesNewRomanPSMT-34"/>
       <use xlink:href="#TimesNewRomanPSMT-30" x="50"/>
      </g>
     </g>
    </g>
    <g id="xtick_6">
     <g id="line2d_11">
      <g>
       <use xlink:href="#mfb6e6f9cdd" x="310.906154" y="287.646875" style="fill: #ffffff; stroke: #000000; stroke-width: 1.25"/>
      </g>
     </g>
     <g id="line2d_12">
      <g>
       <use xlink:href="#mc7b4a45cae" x="310.906154" y="34.426875" style="fill: #ffffff; stroke: #000000; stroke-width: 1.25"/>
      </g>
     </g>
     <g id="text_6">
      <!-- 50 -->
      <g transform="translate(304.906154 299.479375) scale(0.12 -0.12)">
       <defs>
        <path id="TimesNewRomanPSMT-35" d="M 2778 4238 
L 2534 3706 
L 1259 3706 
L 981 3138 
Q 1809 3016 2294 2522 
Q 2709 2097 2709 1522 
Q 2709 1188 2573 903 
Q 2438 619 2231 419 
Q 2025 219 1772 97 
Q 1413 -75 1034 -75 
Q 653 -75 479 54 
Q 306 184 306 341 
Q 306 428 378 495 
Q 450 563 559 563 
Q 641 563 702 538 
Q 763 513 909 409 
Q 1144 247 1384 247 
Q 1750 247 2026 523 
Q 2303 800 2303 1197 
Q 2303 1581 2056 1914 
Q 1809 2247 1375 2428 
Q 1034 2569 447 2591 
L 1259 4238 
L 2778 4238 
z
" transform="scale(0.015625)"/>
       </defs>
       <use xlink:href="#TimesNewRomanPSMT-35"/>
       <use xlink:href="#TimesNewRomanPSMT-30" x="50"/>
      </g>
     </g>
    </g>
    <g id="xtick_7">
     <g id="line2d_13">
      <g>
       <use xlink:href="#mfb6e6f9cdd" x="358.284698" y="287.646875" style="fill: #ffffff; stroke: #000000; stroke-width: 1.25"/>
      </g>
     </g>
     <g id="line2d_14">
      <g>
       <use xlink:href="#mc7b4a45cae" x="358.284698" y="34.426875" style="fill: #ffffff; stroke: #000000; stroke-width: 1.25"/>
      </g>
     </g>
     <g id="text_7">
      <!-- 60 -->
      <g transform="translate(352.284698 299.479375) scale(0.12 -0.12)">
       <defs>
        <path id="TimesNewRomanPSMT-36" d="M 2869 4325 
L 2869 4209 
Q 2456 4169 2195 4045 
Q 1934 3922 1679 3669 
Q 1425 3416 1258 3105 
Q 1091 2794 978 2366 
Q 1428 2675 1881 2675 
Q 2316 2675 2634 2325 
Q 2953 1975 2953 1425 
Q 2953 894 2631 456 
Q 2244 -75 1606 -75 
Q 1172 -75 869 213 
Q 275 772 275 1663 
Q 275 2231 503 2743 
Q 731 3256 1154 3653 
Q 1578 4050 1965 4187 
Q 2353 4325 2688 4325 
L 2869 4325 
z
M 925 2138 
Q 869 1716 869 1456 
Q 869 1156 980 804 
Q 1091 453 1309 247 
Q 1469 100 1697 100 
Q 1969 100 2183 356 
Q 2397 613 2397 1088 
Q 2397 1622 2184 2012 
Q 1972 2403 1581 2403 
Q 1463 2403 1327 2353 
Q 1191 2303 925 2138 
z
" transform="scale(0.015625)"/>
       </defs>
       <use xlink:href="#TimesNewRomanPSMT-36"/>
       <use xlink:href="#TimesNewRomanPSMT-30" x="50"/>
      </g>
     </g>
    </g>
    <g id="xtick_8">
     <g id="line2d_15">
      <g>
       <use xlink:href="#mfb6e6f9cdd" x="405.663241" y="287.646875" style="fill: #ffffff; stroke: #000000; stroke-width: 1.25"/>
      </g>
     </g>
     <g id="line2d_16">
      <g>
       <use xlink:href="#mc7b4a45cae" x="405.663241" y="34.426875" style="fill: #ffffff; stroke: #000000; stroke-width: 1.25"/>
      </g>
     </g>
     <g id="text_8">
      <!-- 70 -->
      <g transform="translate(399.663241 299.479375) scale(0.12 -0.12)">
       <defs>
        <path id="TimesNewRomanPSMT-37" d="M 644 4238 
L 2916 4238 
L 2916 4119 
L 1503 -88 
L 1153 -88 
L 2419 3728 
L 1253 3728 
Q 900 3728 750 3644 
Q 488 3500 328 3200 
L 238 3234 
L 644 4238 
z
" transform="scale(0.015625)"/>
       </defs>
       <use xlink:href="#TimesNewRomanPSMT-37"/>
       <use xlink:href="#TimesNewRomanPSMT-30" x="50"/>
      </g>
     </g>
    </g>
    <g id="xtick_9">
     <g id="line2d_17">
      <defs>
       <path id="m05bb9430f7" d="M 0 0 
L 0 -3 
" style="stroke: #000000; stroke-width: 0.75"/>
      </defs>
      <g>
       <use xlink:href="#m05bb9430f7" x="64.53773" y="287.646875" style="fill: #ffffff; stroke: #000000; stroke-width: 0.75"/>
      </g>
     </g>
     <g id="line2d_18">
      <defs>
       <path id="mdde1ba47e4" d="M 0 0 
L 0 3 
" style="stroke: #000000; stroke-width: 0.75"/>
      </defs>
      <g>
       <use xlink:href="#mdde1ba47e4" x="64.53773" y="34.426875" style="fill: #ffffff; stroke: #000000; stroke-width: 0.75"/>
      </g>
     </g>
    </g>
    <g id="xtick_10">
     <g id="line2d_19">
      <g>
       <use xlink:href="#m05bb9430f7" x="83.489148" y="287.646875" style="fill: #ffffff; stroke: #000000; stroke-width: 0.75"/>
      </g>
     </g>
     <g id="line2d_20">
      <g>
       <use xlink:href="#mdde1ba47e4" x="83.489148" y="34.426875" style="fill: #ffffff; stroke: #000000; stroke-width: 0.75"/>
      </g>
     </g>
    </g>
    <g id="xtick_11">
     <g id="line2d_21">
      <g>
       <use xlink:href="#m05bb9430f7" x="92.964856" y="287.646875" style="fill: #ffffff; stroke: #000000; stroke-width: 0.75"/>
      </g>
     </g>
     <g id="line2d_22">
      <g>
       <use xlink:href="#mdde1ba47e4" x="92.964856" y="34.426875" style="fill: #ffffff; stroke: #000000; stroke-width: 0.75"/>
      </g>
     </g>
    </g>
    <g id="xtick_12">
     <g id="line2d_23">
      <g>
       <use xlink:href="#m05bb9430f7" x="102.440565" y="287.646875" style="fill: #ffffff; stroke: #000000; stroke-width: 0.75"/>
      </g>
     </g>
     <g id="line2d_24">
      <g>
       <use xlink:href="#mdde1ba47e4" x="102.440565" y="34.426875" style="fill: #ffffff; stroke: #000000; stroke-width: 0.75"/>
      </g>
     </g>
    </g>
    <g id="xtick_13">
     <g id="line2d_25">
      <g>
       <use xlink:href="#m05bb9430f7" x="111.916273" y="287.646875" style="fill: #ffffff; stroke: #000000; stroke-width: 0.75"/>
      </g>
     </g>
     <g id="line2d_26">
      <g>
       <use xlink:href="#mdde1ba47e4" x="111.916273" y="34.426875" style="fill: #ffffff; stroke: #000000; stroke-width: 0.75"/>
      </g>
     </g>
    </g>
    <g id="xtick_14">
     <g id="line2d_27">
      <g>
       <use xlink:href="#m05bb9430f7" x="130.867691" y="287.646875" style="fill: #ffffff; stroke: #000000; stroke-width: 0.75"/>
      </g>
     </g>
     <g id="line2d_28">
      <g>
       <use xlink:href="#mdde1ba47e4" x="130.867691" y="34.426875" style="fill: #ffffff; stroke: #000000; stroke-width: 0.75"/>
      </g>
     </g>
    </g>
    <g id="xtick_15">
     <g id="line2d_29">
      <g>
       <use xlink:href="#m05bb9430f7" x="140.343399" y="287.646875" style="fill: #ffffff; stroke: #000000; stroke-width: 0.75"/>
      </g>
     </g>
     <g id="line2d_30">
      <g>
       <use xlink:href="#mdde1ba47e4" x="140.343399" y="34.426875" style="fill: #ffffff; stroke: #000000; stroke-width: 0.75"/>
      </g>
     </g>
    </g>
    <g id="xtick_16">
     <g id="line2d_31">
      <g>
       <use xlink:href="#m05bb9430f7" x="149.819108" y="287.646875" style="fill: #ffffff; stroke: #000000; stroke-width: 0.75"/>
      </g>
     </g>
     <g id="line2d_32">
      <g>
       <use xlink:href="#mdde1ba47e4" x="149.819108" y="34.426875" style="fill: #ffffff; stroke: #000000; stroke-width: 0.75"/>
      </g>
     </g>
    </g>
    <g id="xtick_17">
     <g id="line2d_33">
      <g>
       <use xlink:href="#m05bb9430f7" x="159.294816" y="287.646875" style="fill: #ffffff; stroke: #000000; stroke-width: 0.75"/>
      </g>
     </g>
     <g id="line2d_34">
      <g>
       <use xlink:href="#mdde1ba47e4" x="159.294816" y="34.426875" style="fill: #ffffff; stroke: #000000; stroke-width: 0.75"/>
      </g>
     </g>
    </g>
    <g id="xtick_18">
     <g id="line2d_35">
      <g>
       <use xlink:href="#m05bb9430f7" x="178.246234" y="287.646875" style="fill: #ffffff; stroke: #000000; stroke-width: 0.75"/>
      </g>
     </g>
     <g id="line2d_36">
      <g>
       <use xlink:href="#mdde1ba47e4" x="178.246234" y="34.426875" style="fill: #ffffff; stroke: #000000; stroke-width: 0.75"/>
      </g>
     </g>
    </g>
    <g id="xtick_19">
     <g id="line2d_37">
      <g>
       <use xlink:href="#m05bb9430f7" x="187.721942" y="287.646875" style="fill: #ffffff; stroke: #000000; stroke-width: 0.75"/>
      </g>
     </g>
     <g id="line2d_38">
      <g>
       <use xlink:href="#mdde1ba47e4" x="187.721942" y="34.426875" style="fill: #ffffff; stroke: #000000; stroke-width: 0.75"/>
      </g>
     </g>
    </g>
    <g id="xtick_20">
     <g id="line2d_39">
      <g>
       <use xlink:href="#m05bb9430f7" x="197.197651" y="287.646875" style="fill: #ffffff; stroke: #000000; stroke-width: 0.75"/>
      </g>
     </g>
     <g id="line2d_40">
      <g>
       <use xlink:href="#mdde1ba47e4" x="197.197651" y="34.426875" style="fill: #ffffff; stroke: #000000; stroke-width: 0.75"/>
      </g>
     </g>
    </g>
    <g id="xtick_21">
     <g id="line2d_41">
      <g>
       <use xlink:href="#m05bb9430f7" x="206.67336" y="287.646875" style="fill: #ffffff; stroke: #000000; stroke-width: 0.75"/>
      </g>
     </g>
     <g id="line2d_42">
      <g>
       <use xlink:href="#mdde1ba47e4" x="206.67336" y="34.426875" style="fill: #ffffff; stroke: #000000; stroke-width: 0.75"/>
      </g>
     </g>
    </g>
    <g id="xtick_22">
     <g id="line2d_43">
      <g>
       <use xlink:href="#m05bb9430f7" x="225.624777" y="287.646875" style="fill: #ffffff; stroke: #000000; stroke-width: 0.75"/>
      </g>
     </g>
     <g id="line2d_44">
      <g>
       <use xlink:href="#mdde1ba47e4" x="225.624777" y="34.426875" style="fill: #ffffff; stroke: #000000; stroke-width: 0.75"/>
      </g>
     </g>
    </g>
    <g id="xtick_23">
     <g id="line2d_45">
      <g>
       <use xlink:href="#m05bb9430f7" x="235.100485" y="287.646875" style="fill: #ffffff; stroke: #000000; stroke-width: 0.75"/>
      </g>
     </g>
     <g id="line2d_46">
      <g>
       <use xlink:href="#mdde1ba47e4" x="235.100485" y="34.426875" style="fill: #ffffff; stroke: #000000; stroke-width: 0.75"/>
      </g>
     </g>
    </g>
    <g id="xtick_24">
     <g id="line2d_47">
      <g>
       <use xlink:href="#m05bb9430f7" x="244.576194" y="287.646875" style="fill: #ffffff; stroke: #000000; stroke-width: 0.75"/>
      </g>
     </g>
     <g id="line2d_48">
      <g>
       <use xlink:href="#mdde1ba47e4" x="244.576194" y="34.426875" style="fill: #ffffff; stroke: #000000; stroke-width: 0.75"/>
      </g>
     </g>
    </g>
    <g id="xtick_25">
     <g id="line2d_49">
      <g>
       <use xlink:href="#m05bb9430f7" x="254.051903" y="287.646875" style="fill: #ffffff; stroke: #000000; stroke-width: 0.75"/>
      </g>
     </g>
     <g id="line2d_50">
      <g>
       <use xlink:href="#mdde1ba47e4" x="254.051903" y="34.426875" style="fill: #ffffff; stroke: #000000; stroke-width: 0.75"/>
      </g>
     </g>
    </g>
    <g id="xtick_26">
     <g id="line2d_51">
      <g>
       <use xlink:href="#m05bb9430f7" x="273.00332" y="287.646875" style="fill: #ffffff; stroke: #000000; stroke-width: 0.75"/>
      </g>
     </g>
     <g id="line2d_52">
      <g>
       <use xlink:href="#mdde1ba47e4" x="273.00332" y="34.426875" style="fill: #ffffff; stroke: #000000; stroke-width: 0.75"/>
      </g>
     </g>
    </g>
    <g id="xtick_27">
     <g id="line2d_53">
      <g>
       <use xlink:href="#m05bb9430f7" x="282.479029" y="287.646875" style="fill: #ffffff; stroke: #000000; stroke-width: 0.75"/>
      </g>
     </g>
     <g id="line2d_54">
      <g>
       <use xlink:href="#mdde1ba47e4" x="282.479029" y="34.426875" style="fill: #ffffff; stroke: #000000; stroke-width: 0.75"/>
      </g>
     </g>
    </g>
    <g id="xtick_28">
     <g id="line2d_55">
      <g>
       <use xlink:href="#m05bb9430f7" x="291.954737" y="287.646875" style="fill: #ffffff; stroke: #000000; stroke-width: 0.75"/>
      </g>
     </g>
     <g id="line2d_56">
      <g>
       <use xlink:href="#mdde1ba47e4" x="291.954737" y="34.426875" style="fill: #ffffff; stroke: #000000; stroke-width: 0.75"/>
      </g>
     </g>
    </g>
    <g id="xtick_29">
     <g id="line2d_57">
      <g>
       <use xlink:href="#m05bb9430f7" x="301.430446" y="287.646875" style="fill: #ffffff; stroke: #000000; stroke-width: 0.75"/>
      </g>
     </g>
     <g id="line2d_58">
      <g>
       <use xlink:href="#mdde1ba47e4" x="301.430446" y="34.426875" style="fill: #ffffff; stroke: #000000; stroke-width: 0.75"/>
      </g>
     </g>
    </g>
    <g id="xtick_30">
     <g id="line2d_59">
      <g>
       <use xlink:href="#m05bb9430f7" x="320.381863" y="287.646875" style="fill: #ffffff; stroke: #000000; stroke-width: 0.75"/>
      </g>
     </g>
     <g id="line2d_60">
      <g>
       <use xlink:href="#mdde1ba47e4" x="320.381863" y="34.426875" style="fill: #ffffff; stroke: #000000; stroke-width: 0.75"/>
      </g>
     </g>
    </g>
    <g id="xtick_31">
     <g id="line2d_61">
      <g>
       <use xlink:href="#m05bb9430f7" x="329.857572" y="287.646875" style="fill: #ffffff; stroke: #000000; stroke-width: 0.75"/>
      </g>
     </g>
     <g id="line2d_62">
      <g>
       <use xlink:href="#mdde1ba47e4" x="329.857572" y="34.426875" style="fill: #ffffff; stroke: #000000; stroke-width: 0.75"/>
      </g>
     </g>
    </g>
    <g id="xtick_32">
     <g id="line2d_63">
      <g>
       <use xlink:href="#m05bb9430f7" x="339.33328" y="287.646875" style="fill: #ffffff; stroke: #000000; stroke-width: 0.75"/>
      </g>
     </g>
     <g id="line2d_64">
      <g>
       <use xlink:href="#mdde1ba47e4" x="339.33328" y="34.426875" style="fill: #ffffff; stroke: #000000; stroke-width: 0.75"/>
      </g>
     </g>
    </g>
    <g id="xtick_33">
     <g id="line2d_65">
      <g>
       <use xlink:href="#m05bb9430f7" x="348.808989" y="287.646875" style="fill: #ffffff; stroke: #000000; stroke-width: 0.75"/>
      </g>
     </g>
     <g id="line2d_66">
      <g>
       <use xlink:href="#mdde1ba47e4" x="348.808989" y="34.426875" style="fill: #ffffff; stroke: #000000; stroke-width: 0.75"/>
      </g>
     </g>
    </g>
    <g id="xtick_34">
     <g id="line2d_67">
      <g>
       <use xlink:href="#m05bb9430f7" x="367.760406" y="287.646875" style="fill: #ffffff; stroke: #000000; stroke-width: 0.75"/>
      </g>
     </g>
     <g id="line2d_68">
      <g>
       <use xlink:href="#mdde1ba47e4" x="367.760406" y="34.426875" style="fill: #ffffff; stroke: #000000; stroke-width: 0.75"/>
      </g>
     </g>
    </g>
    <g id="xtick_35">
     <g id="line2d_69">
      <g>
       <use xlink:href="#m05bb9430f7" x="377.236115" y="287.646875" style="fill: #ffffff; stroke: #000000; stroke-width: 0.75"/>
      </g>
     </g>
     <g id="line2d_70">
      <g>
       <use xlink:href="#mdde1ba47e4" x="377.236115" y="34.426875" style="fill: #ffffff; stroke: #000000; stroke-width: 0.75"/>
      </g>
     </g>
    </g>
    <g id="xtick_36">
     <g id="line2d_71">
      <g>
       <use xlink:href="#m05bb9430f7" x="386.711823" y="287.646875" style="fill: #ffffff; stroke: #000000; stroke-width: 0.75"/>
      </g>
     </g>
     <g id="line2d_72">
      <g>
       <use xlink:href="#mdde1ba47e4" x="386.711823" y="34.426875" style="fill: #ffffff; stroke: #000000; stroke-width: 0.75"/>
      </g>
     </g>
    </g>
    <g id="xtick_37">
     <g id="line2d_73">
      <g>
       <use xlink:href="#m05bb9430f7" x="396.187532" y="287.646875" style="fill: #ffffff; stroke: #000000; stroke-width: 0.75"/>
      </g>
     </g>
     <g id="line2d_74">
      <g>
       <use xlink:href="#mdde1ba47e4" x="396.187532" y="34.426875" style="fill: #ffffff; stroke: #000000; stroke-width: 0.75"/>
      </g>
     </g>
    </g>
    <g id="xtick_38">
     <g id="line2d_75">
      <g>
       <use xlink:href="#m05bb9430f7" x="415.138949" y="287.646875" style="fill: #ffffff; stroke: #000000; stroke-width: 0.75"/>
      </g>
     </g>
     <g id="line2d_76">
      <g>
       <use xlink:href="#mdde1ba47e4" x="415.138949" y="34.426875" style="fill: #ffffff; stroke: #000000; stroke-width: 0.75"/>
      </g>
     </g>
    </g>
    <g id="xtick_39">
     <g id="line2d_77">
      <g>
       <use xlink:href="#m05bb9430f7" x="424.614658" y="287.646875" style="fill: #ffffff; stroke: #000000; stroke-width: 0.75"/>
      </g>
     </g>
     <g id="line2d_78">
      <g>
       <use xlink:href="#mdde1ba47e4" x="424.614658" y="34.426875" style="fill: #ffffff; stroke: #000000; stroke-width: 0.75"/>
      </g>
     </g>
    </g>
    <g id="xtick_40">
     <g id="line2d_79">
      <g>
       <use xlink:href="#m05bb9430f7" x="434.090366" y="287.646875" style="fill: #ffffff; stroke: #000000; stroke-width: 0.75"/>
      </g>
     </g>
     <g id="line2d_80">
      <g>
       <use xlink:href="#mdde1ba47e4" x="434.090366" y="34.426875" style="fill: #ffffff; stroke: #000000; stroke-width: 0.75"/>
      </g>
     </g>
    </g>
    <g id="text_9">
     <!-- Number of iterations -->
     <g transform="translate(197.530866 324.073125) scale(0.13 -0.13)">
      <defs>
       <path id="TimesNewRomanPSMT-4e" d="M -84 4238 
L 1066 4238 
L 3656 1059 
L 3656 3503 
Q 3656 3894 3569 3991 
Q 3453 4122 3203 4122 
L 3056 4122 
L 3056 4238 
L 4531 4238 
L 4531 4122 
L 4381 4122 
Q 4113 4122 4000 3959 
Q 3931 3859 3931 3503 
L 3931 -69 
L 3819 -69 
L 1025 3344 
L 1025 734 
Q 1025 344 1109 247 
Q 1228 116 1475 116 
L 1625 116 
L 1625 0 
L 150 0 
L 150 116 
L 297 116 
Q 569 116 681 278 
Q 750 378 750 734 
L 750 3681 
Q 566 3897 470 3965 
Q 375 4034 191 4094 
Q 100 4122 -84 4122 
L -84 4238 
z
" transform="scale(0.015625)"/>
       <path id="TimesNewRomanPSMT-75" d="M 2709 2863 
L 2709 1128 
Q 2709 631 2732 520 
Q 2756 409 2807 365 
Q 2859 322 2928 322 
Q 3025 322 3147 375 
L 3191 266 
L 2334 -88 
L 2194 -88 
L 2194 519 
Q 1825 119 1631 15 
Q 1438 -88 1222 -88 
Q 981 -88 804 51 
Q 628 191 559 409 
Q 491 628 491 1028 
L 491 2306 
Q 491 2509 447 2587 
Q 403 2666 317 2708 
Q 231 2750 6 2747 
L 6 2863 
L 1009 2863 
L 1009 947 
Q 1009 547 1148 422 
Q 1288 297 1484 297 
Q 1619 297 1789 381 
Q 1959 466 2194 703 
L 2194 2325 
Q 2194 2569 2105 2655 
Q 2016 2741 1734 2747 
L 1734 2863 
L 2709 2863 
z
" transform="scale(0.015625)"/>
       <path id="TimesNewRomanPSMT-6d" d="M 1050 2338 
Q 1363 2650 1419 2697 
Q 1559 2816 1721 2881 
Q 1884 2947 2044 2947 
Q 2313 2947 2506 2790 
Q 2700 2634 2766 2338 
Q 3088 2713 3309 2830 
Q 3531 2947 3766 2947 
Q 3994 2947 4170 2830 
Q 4347 2713 4450 2447 
Q 4519 2266 4519 1878 
L 4519 647 
Q 4519 378 4559 278 
Q 4591 209 4675 161 
Q 4759 113 4950 113 
L 4950 0 
L 3538 0 
L 3538 113 
L 3597 113 
Q 3781 113 3884 184 
Q 3956 234 3988 344 
Q 4000 397 4000 647 
L 4000 1878 
Q 4000 2228 3916 2372 
Q 3794 2572 3525 2572 
Q 3359 2572 3192 2489 
Q 3025 2406 2788 2181 
L 2781 2147 
L 2788 2013 
L 2788 647 
Q 2788 353 2820 281 
Q 2853 209 2943 161 
Q 3034 113 3253 113 
L 3253 0 
L 1806 0 
L 1806 113 
Q 2044 113 2133 169 
Q 2222 225 2256 338 
Q 2272 391 2272 647 
L 2272 1878 
Q 2272 2228 2169 2381 
Q 2031 2581 1784 2581 
Q 1616 2581 1450 2491 
Q 1191 2353 1050 2181 
L 1050 647 
Q 1050 366 1089 281 
Q 1128 197 1204 155 
Q 1281 113 1516 113 
L 1516 0 
L 100 0 
L 100 113 
Q 297 113 375 155 
Q 453 197 493 289 
Q 534 381 534 647 
L 534 1741 
Q 534 2213 506 2350 
Q 484 2453 437 2492 
Q 391 2531 309 2531 
Q 222 2531 100 2484 
L 53 2597 
L 916 2947 
L 1050 2947 
L 1050 2338 
z
" transform="scale(0.015625)"/>
       <path id="TimesNewRomanPSMT-62" d="M 984 2369 
Q 1400 2947 1881 2947 
Q 2322 2947 2650 2570 
Q 2978 2194 2978 1541 
Q 2978 778 2472 313 
Q 2038 -88 1503 -88 
Q 1253 -88 995 3 
Q 738 94 469 275 
L 469 3241 
Q 469 3728 445 3840 
Q 422 3953 372 3993 
Q 322 4034 247 4034 
Q 159 4034 28 3984 
L -16 4094 
L 844 4444 
L 984 4444 
L 984 2369 
z
M 984 2169 
L 984 456 
Q 1144 300 1314 220 
Q 1484 141 1663 141 
Q 1947 141 2192 453 
Q 2438 766 2438 1363 
Q 2438 1913 2192 2208 
Q 1947 2503 1634 2503 
Q 1469 2503 1303 2419 
Q 1178 2356 984 2169 
z
" transform="scale(0.015625)"/>
       <path id="TimesNewRomanPSMT-65" d="M 681 1784 
Q 678 1147 991 784 
Q 1303 422 1725 422 
Q 2006 422 2214 576 
Q 2422 731 2563 1106 
L 2659 1044 
Q 2594 616 2278 264 
Q 1963 -88 1488 -88 
Q 972 -88 605 314 
Q 238 716 238 1394 
Q 238 2128 614 2539 
Q 991 2950 1559 2950 
Q 2041 2950 2350 2633 
Q 2659 2316 2659 1784 
L 681 1784 
z
M 681 1966 
L 2006 1966 
Q 1991 2241 1941 2353 
Q 1863 2528 1708 2628 
Q 1553 2728 1384 2728 
Q 1125 2728 920 2526 
Q 716 2325 681 1966 
z
" transform="scale(0.015625)"/>
       <path id="TimesNewRomanPSMT-72" d="M 1038 2947 
L 1038 2303 
Q 1397 2947 1775 2947 
Q 1947 2947 2059 2842 
Q 2172 2738 2172 2600 
Q 2172 2478 2090 2393 
Q 2009 2309 1897 2309 
Q 1788 2309 1652 2417 
Q 1516 2525 1450 2525 
Q 1394 2525 1328 2463 
Q 1188 2334 1038 2041 
L 1038 669 
Q 1038 431 1097 309 
Q 1138 225 1241 169 
Q 1344 113 1538 113 
L 1538 0 
L 72 0 
L 72 113 
Q 291 113 397 181 
Q 475 231 506 341 
Q 522 394 522 644 
L 522 1753 
Q 522 2253 501 2348 
Q 481 2444 426 2487 
Q 372 2531 291 2531 
Q 194 2531 72 2484 
L 41 2597 
L 906 2947 
L 1038 2947 
z
" transform="scale(0.015625)"/>
       <path id="TimesNewRomanPSMT-20" transform="scale(0.015625)"/>
       <path id="TimesNewRomanPSMT-6f" d="M 1600 2947 
Q 2250 2947 2644 2453 
Q 2978 2031 2978 1484 
Q 2978 1100 2793 706 
Q 2609 313 2286 112 
Q 1963 -88 1566 -88 
Q 919 -88 538 428 
Q 216 863 216 1403 
Q 216 1797 411 2186 
Q 606 2575 925 2761 
Q 1244 2947 1600 2947 
z
M 1503 2744 
Q 1338 2744 1170 2645 
Q 1003 2547 900 2300 
Q 797 2053 797 1666 
Q 797 1041 1045 587 
Q 1294 134 1700 134 
Q 2003 134 2200 384 
Q 2397 634 2397 1244 
Q 2397 2006 2069 2444 
Q 1847 2744 1503 2744 
z
" transform="scale(0.015625)"/>
       <path id="TimesNewRomanPSMT-66" d="M 1319 2638 
L 1319 756 
Q 1319 356 1406 250 
Q 1522 113 1716 113 
L 1975 113 
L 1975 0 
L 266 0 
L 266 113 
L 394 113 
Q 519 113 622 175 
Q 725 238 764 344 
Q 803 450 803 756 
L 803 2638 
L 247 2638 
L 247 2863 
L 803 2863 
L 803 3050 
Q 803 3478 940 3775 
Q 1078 4072 1361 4255 
Q 1644 4438 1997 4438 
Q 2325 4438 2600 4225 
Q 2781 4084 2781 3909 
Q 2781 3816 2700 3733 
Q 2619 3650 2525 3650 
Q 2453 3650 2373 3701 
Q 2294 3753 2178 3923 
Q 2063 4094 1966 4153 
Q 1869 4213 1750 4213 
Q 1606 4213 1506 4136 
Q 1406 4059 1362 3898 
Q 1319 3738 1319 3069 
L 1319 2863 
L 2056 2863 
L 2056 2638 
L 1319 2638 
z
" transform="scale(0.015625)"/>
       <path id="TimesNewRomanPSMT-69" d="M 928 4444 
Q 1059 4444 1151 4351 
Q 1244 4259 1244 4128 
Q 1244 3997 1151 3903 
Q 1059 3809 928 3809 
Q 797 3809 703 3903 
Q 609 3997 609 4128 
Q 609 4259 701 4351 
Q 794 4444 928 4444 
z
M 1188 2947 
L 1188 647 
Q 1188 378 1227 289 
Q 1266 200 1342 156 
Q 1419 113 1622 113 
L 1622 0 
L 231 0 
L 231 113 
Q 441 113 512 153 
Q 584 194 626 287 
Q 669 381 669 647 
L 669 1750 
Q 669 2216 641 2353 
Q 619 2453 572 2492 
Q 525 2531 444 2531 
Q 356 2531 231 2484 
L 188 2597 
L 1050 2947 
L 1188 2947 
z
" transform="scale(0.015625)"/>
       <path id="TimesNewRomanPSMT-74" d="M 1031 3803 
L 1031 2863 
L 1700 2863 
L 1700 2644 
L 1031 2644 
L 1031 788 
Q 1031 509 1111 412 
Q 1191 316 1316 316 
Q 1419 316 1516 380 
Q 1613 444 1666 569 
L 1788 569 
Q 1678 263 1478 108 
Q 1278 -47 1066 -47 
Q 922 -47 784 33 
Q 647 113 581 261 
Q 516 409 516 719 
L 516 2644 
L 63 2644 
L 63 2747 
Q 234 2816 414 2980 
Q 594 3144 734 3369 
Q 806 3488 934 3803 
L 1031 3803 
z
" transform="scale(0.015625)"/>
       <path id="TimesNewRomanPSMT-61" d="M 1822 413 
Q 1381 72 1269 19 
Q 1100 -59 909 -59 
Q 613 -59 420 144 
Q 228 347 228 678 
Q 228 888 322 1041 
Q 450 1253 767 1440 
Q 1084 1628 1822 1897 
L 1822 2009 
Q 1822 2438 1686 2597 
Q 1550 2756 1291 2756 
Q 1094 2756 978 2650 
Q 859 2544 859 2406 
L 866 2225 
Q 866 2081 792 2003 
Q 719 1925 600 1925 
Q 484 1925 411 2006 
Q 338 2088 338 2228 
Q 338 2497 613 2722 
Q 888 2947 1384 2947 
Q 1766 2947 2009 2819 
Q 2194 2722 2281 2516 
Q 2338 2381 2338 1966 
L 2338 994 
Q 2338 584 2353 492 
Q 2369 400 2405 369 
Q 2441 338 2488 338 
Q 2538 338 2575 359 
Q 2641 400 2828 588 
L 2828 413 
Q 2478 -56 2159 -56 
Q 2006 -56 1915 50 
Q 1825 156 1822 413 
z
M 1822 616 
L 1822 1706 
Q 1350 1519 1213 1441 
Q 966 1303 859 1153 
Q 753 1003 753 825 
Q 753 600 887 451 
Q 1022 303 1197 303 
Q 1434 303 1822 616 
z
" transform="scale(0.015625)"/>
       <path id="TimesNewRomanPSMT-6e" d="M 1034 2341 
Q 1538 2947 1994 2947 
Q 2228 2947 2397 2830 
Q 2566 2713 2666 2444 
Q 2734 2256 2734 1869 
L 2734 647 
Q 2734 375 2778 278 
Q 2813 200 2889 156 
Q 2966 113 3172 113 
L 3172 0 
L 1756 0 
L 1756 113 
L 1816 113 
Q 2016 113 2095 173 
Q 2175 234 2206 353 
Q 2219 400 2219 647 
L 2219 1819 
Q 2219 2209 2117 2386 
Q 2016 2563 1775 2563 
Q 1403 2563 1034 2156 
L 1034 647 
Q 1034 356 1069 288 
Q 1113 197 1189 155 
Q 1266 113 1500 113 
L 1500 0 
L 84 0 
L 84 113 
L 147 113 
Q 366 113 442 223 
Q 519 334 519 647 
L 519 1709 
Q 519 2225 495 2337 
Q 472 2450 423 2490 
Q 375 2531 294 2531 
Q 206 2531 84 2484 
L 38 2597 
L 900 2947 
L 1034 2947 
L 1034 2341 
z
" transform="scale(0.015625)"/>
       <path id="TimesNewRomanPSMT-73" d="M 2050 2947 
L 2050 1972 
L 1947 1972 
Q 1828 2431 1642 2597 
Q 1456 2763 1169 2763 
Q 950 2763 815 2647 
Q 681 2531 681 2391 
Q 681 2216 781 2091 
Q 878 1963 1175 1819 
L 1631 1597 
Q 2266 1288 2266 781 
Q 2266 391 1970 151 
Q 1675 -88 1309 -88 
Q 1047 -88 709 6 
Q 606 38 541 38 
Q 469 38 428 -44 
L 325 -44 
L 325 978 
L 428 978 
Q 516 541 762 319 
Q 1009 97 1316 97 
Q 1531 97 1667 223 
Q 1803 350 1803 528 
Q 1803 744 1651 891 
Q 1500 1038 1047 1263 
Q 594 1488 453 1669 
Q 313 1847 313 2119 
Q 313 2472 555 2709 
Q 797 2947 1181 2947 
Q 1350 2947 1591 2875 
Q 1750 2828 1803 2828 
Q 1853 2828 1881 2850 
Q 1909 2872 1947 2947 
L 2050 2947 
z
" transform="scale(0.015625)"/>
      </defs>
      <use xlink:href="#TimesNewRomanPSMT-4e"/>
      <use xlink:href="#TimesNewRomanPSMT-75" x="72.216797"/>
      <use xlink:href="#TimesNewRomanPSMT-6d" x="122.216797"/>
      <use xlink:href="#TimesNewRomanPSMT-62" x="200"/>
      <use xlink:href="#TimesNewRomanPSMT-65" x="250"/>
      <use xlink:href="#TimesNewRomanPSMT-72" x="294.384766"/>
      <use xlink:href="#TimesNewRomanPSMT-20" x="327.685547"/>
      <use xlink:href="#TimesNewRomanPSMT-6f" x="352.685547"/>
      <use xlink:href="#TimesNewRomanPSMT-66" x="402.685547"/>
      <use xlink:href="#TimesNewRomanPSMT-20" x="435.986328"/>
      <use xlink:href="#TimesNewRomanPSMT-69" x="460.986328"/>
      <use xlink:href="#TimesNewRomanPSMT-74" x="488.769531"/>
      <use xlink:href="#TimesNewRomanPSMT-65" x="516.552734"/>
      <use xlink:href="#TimesNewRomanPSMT-72" x="560.9375"/>
      <use xlink:href="#TimesNewRomanPSMT-61" x="594.238281"/>
      <use xlink:href="#TimesNewRomanPSMT-74" x="638.623047"/>
      <use xlink:href="#TimesNewRomanPSMT-69" x="666.40625"/>
      <use xlink:href="#TimesNewRomanPSMT-6f" x="694.189453"/>
      <use xlink:href="#TimesNewRomanPSMT-6e" x="744.189453"/>
      <use xlink:href="#TimesNewRomanPSMT-73" x="794.189453"/>
     </g>
    </g>
   </g>
   <g id="matplotlib.axis_2">
    <g id="ytick_1">
     <g id="line2d_81">
      <defs>
       <path id="mc148155312" d="M 0 0 
L 6 0 
" style="stroke: #000000; stroke-width: 1.25"/>
      </defs>
      <g>
       <use xlink:href="#mc148155312" x="61.458125" y="268.875331" style="fill: #ffffff; stroke: #000000; stroke-width: 1.25"/>
      </g>
     </g>
     <g id="line2d_82">
      <defs>
       <path id="mf02cfdd7b1" d="M 0 0 
L -6 0 
" style="stroke: #000000; stroke-width: 1.25"/>
      </defs>
      <g>
       <use xlink:href="#mf02cfdd7b1" x="441.907826" y="268.875331" style="fill: #ffffff; stroke: #000000; stroke-width: 1.25"/>
      </g>
     </g>
     <g id="text_10">
      <!-- $\mathdefault{10^{-10}}$ -->
      <g transform="translate(32.038125 274.191893) scale(0.12 -0.12)">
       <defs>
        <path id="TimesNewRomanPSMT-2212" d="M 3484 2000 
L 116 2000 
L 116 2256 
L 3484 2256 
L 3484 2000 
z
" transform="scale(0.015625)"/>
       </defs>
       <use xlink:href="#TimesNewRomanPSMT-31" transform="translate(0 0.582813)"/>
       <use xlink:href="#TimesNewRomanPSMT-30" transform="translate(50 0.582813)"/>
       <use xlink:href="#TimesNewRomanPSMT-2212" transform="translate(101.502813 60.695312) scale(0.7)"/>
       <use xlink:href="#TimesNewRomanPSMT-31" transform="translate(140.980352 60.695312) scale(0.7)"/>
       <use xlink:href="#TimesNewRomanPSMT-30" transform="translate(175.980352 60.695312) scale(0.7)"/>
      </g>
     </g>
    </g>
    <g id="ytick_2">
     <g id="line2d_83">
      <g>
       <use xlink:href="#mc148155312" x="61.458125" y="234.00471" style="fill: #ffffff; stroke: #000000; stroke-width: 1.25"/>
      </g>
     </g>
     <g id="line2d_84">
      <g>
       <use xlink:href="#mf02cfdd7b1" x="441.907826" y="234.00471" style="fill: #ffffff; stroke: #000000; stroke-width: 1.25"/>
      </g>
     </g>
     <g id="text_11">
      <!-- $\mathdefault{10^{-8}}$ -->
      <g transform="translate(36.238125 239.321272) scale(0.12 -0.12)">
       <defs>
        <path id="TimesNewRomanPSMT-38" d="M 1228 2134 
Q 725 2547 579 2797 
Q 434 3047 434 3316 
Q 434 3728 753 4026 
Q 1072 4325 1600 4325 
Q 2113 4325 2425 4047 
Q 2738 3769 2738 3413 
Q 2738 3175 2569 2928 
Q 2400 2681 1866 2347 
Q 2416 1922 2594 1678 
Q 2831 1359 2831 1006 
Q 2831 559 2490 242 
Q 2150 -75 1597 -75 
Q 994 -75 656 303 
Q 388 606 388 966 
Q 388 1247 577 1523 
Q 766 1800 1228 2134 
z
M 1719 2469 
Q 2094 2806 2194 3001 
Q 2294 3197 2294 3444 
Q 2294 3772 2109 3958 
Q 1925 4144 1606 4144 
Q 1288 4144 1088 3959 
Q 888 3775 888 3528 
Q 888 3366 970 3203 
Q 1053 3041 1206 2894 
L 1719 2469 
z
M 1375 2016 
Q 1116 1797 991 1539 
Q 866 1281 866 981 
Q 866 578 1086 336 
Q 1306 94 1647 94 
Q 1984 94 2187 284 
Q 2391 475 2391 747 
Q 2391 972 2272 1150 
Q 2050 1481 1375 2016 
z
" transform="scale(0.015625)"/>
       </defs>
       <use xlink:href="#TimesNewRomanPSMT-31" transform="translate(0 0.582813)"/>
       <use xlink:href="#TimesNewRomanPSMT-30" transform="translate(50 0.582813)"/>
       <use xlink:href="#TimesNewRomanPSMT-2212" transform="translate(101.502813 60.695312) scale(0.7)"/>
       <use xlink:href="#TimesNewRomanPSMT-38" transform="translate(140.980352 60.695312) scale(0.7)"/>
      </g>
     </g>
    </g>
    <g id="ytick_3">
     <g id="line2d_85">
      <g>
       <use xlink:href="#mc148155312" x="61.458125" y="199.134089" style="fill: #ffffff; stroke: #000000; stroke-width: 1.25"/>
      </g>
     </g>
     <g id="line2d_86">
      <g>
       <use xlink:href="#mf02cfdd7b1" x="441.907826" y="199.134089" style="fill: #ffffff; stroke: #000000; stroke-width: 1.25"/>
      </g>
     </g>
     <g id="text_12">
      <!-- $\mathdefault{10^{-6}}$ -->
      <g transform="translate(36.238125 204.450651) scale(0.12 -0.12)">
       <use xlink:href="#TimesNewRomanPSMT-31" transform="translate(0 0.582813)"/>
       <use xlink:href="#TimesNewRomanPSMT-30" transform="translate(50 0.582813)"/>
       <use xlink:href="#TimesNewRomanPSMT-2212" transform="translate(101.502813 60.695312) scale(0.7)"/>
       <use xlink:href="#TimesNewRomanPSMT-36" transform="translate(140.980352 60.695312) scale(0.7)"/>
      </g>
     </g>
    </g>
    <g id="ytick_4">
     <g id="line2d_87">
      <g>
       <use xlink:href="#mc148155312" x="61.458125" y="164.263468" style="fill: #ffffff; stroke: #000000; stroke-width: 1.25"/>
      </g>
     </g>
     <g id="line2d_88">
      <g>
       <use xlink:href="#mf02cfdd7b1" x="441.907826" y="164.263468" style="fill: #ffffff; stroke: #000000; stroke-width: 1.25"/>
      </g>
     </g>
     <g id="text_13">
      <!-- $\mathdefault{10^{-4}}$ -->
      <g transform="translate(36.238125 169.58003) scale(0.12 -0.12)">
       <use xlink:href="#TimesNewRomanPSMT-31" transform="translate(0 0.582813)"/>
       <use xlink:href="#TimesNewRomanPSMT-30" transform="translate(50 0.582813)"/>
       <use xlink:href="#TimesNewRomanPSMT-2212" transform="translate(101.502813 60.695312) scale(0.7)"/>
       <use xlink:href="#TimesNewRomanPSMT-34" transform="translate(140.980352 60.695312) scale(0.7)"/>
      </g>
     </g>
    </g>
    <g id="ytick_5">
     <g id="line2d_89">
      <g>
       <use xlink:href="#mc148155312" x="61.458125" y="129.392847" style="fill: #ffffff; stroke: #000000; stroke-width: 1.25"/>
      </g>
     </g>
     <g id="line2d_90">
      <g>
       <use xlink:href="#mf02cfdd7b1" x="441.907826" y="129.392847" style="fill: #ffffff; stroke: #000000; stroke-width: 1.25"/>
      </g>
     </g>
     <g id="text_14">
      <!-- $\mathdefault{10^{-2}}$ -->
      <g transform="translate(36.238125 134.709409) scale(0.12 -0.12)">
       <use xlink:href="#TimesNewRomanPSMT-31" transform="translate(0 0.582813)"/>
       <use xlink:href="#TimesNewRomanPSMT-30" transform="translate(50 0.582813)"/>
       <use xlink:href="#TimesNewRomanPSMT-2212" transform="translate(101.502813 60.695312) scale(0.7)"/>
       <use xlink:href="#TimesNewRomanPSMT-32" transform="translate(140.980352 60.695312) scale(0.7)"/>
      </g>
     </g>
    </g>
    <g id="ytick_6">
     <g id="line2d_91">
      <g>
       <use xlink:href="#mc148155312" x="61.458125" y="94.522226" style="fill: #ffffff; stroke: #000000; stroke-width: 1.25"/>
      </g>
     </g>
     <g id="line2d_92">
      <g>
       <use xlink:href="#mf02cfdd7b1" x="441.907826" y="94.522226" style="fill: #ffffff; stroke: #000000; stroke-width: 1.25"/>
      </g>
     </g>
     <g id="text_15">
      <!-- $\mathdefault{10^{0}}$ -->
      <g transform="translate(41.038125 99.838788) scale(0.12 -0.12)">
       <use xlink:href="#TimesNewRomanPSMT-31" transform="translate(0 0.582813)"/>
       <use xlink:href="#TimesNewRomanPSMT-30" transform="translate(50 0.582813)"/>
       <use xlink:href="#TimesNewRomanPSMT-30" transform="translate(101.502813 60.695312) scale(0.7)"/>
      </g>
     </g>
    </g>
    <g id="ytick_7">
     <g id="line2d_93">
      <g>
       <use xlink:href="#mc148155312" x="61.458125" y="59.651605" style="fill: #ffffff; stroke: #000000; stroke-width: 1.25"/>
      </g>
     </g>
     <g id="line2d_94">
      <g>
       <use xlink:href="#mf02cfdd7b1" x="441.907826" y="59.651605" style="fill: #ffffff; stroke: #000000; stroke-width: 1.25"/>
      </g>
     </g>
     <g id="text_16">
      <!-- $\mathdefault{10^{2}}$ -->
      <g transform="translate(41.038125 64.968167) scale(0.12 -0.12)">
       <use xlink:href="#TimesNewRomanPSMT-31" transform="translate(0 0.582813)"/>
       <use xlink:href="#TimesNewRomanPSMT-30" transform="translate(50 0.582813)"/>
       <use xlink:href="#TimesNewRomanPSMT-32" transform="translate(101.502813 60.695312) scale(0.7)"/>
      </g>
     </g>
    </g>
    <g id="text_17">
     <!-- Objective function -->
     <g transform="translate(16.232969 209.590859) rotate(-90) scale(0.13 -0.13)">
      <defs>
       <path id="TimesNewRomanPSMT-4f" d="M 2341 4334 
Q 3166 4334 3770 3707 
Q 4375 3081 4375 2144 
Q 4375 1178 3765 540 
Q 3156 -97 2291 -97 
Q 1416 -97 820 525 
Q 225 1147 225 2134 
Q 225 3144 913 3781 
Q 1509 4334 2341 4334 
z
M 2281 4106 
Q 1713 4106 1369 3684 
Q 941 3159 941 2147 
Q 941 1109 1384 550 
Q 1725 125 2284 125 
Q 2881 125 3270 590 
Q 3659 1056 3659 2059 
Q 3659 3147 3231 3681 
Q 2888 4106 2281 4106 
z
" transform="scale(0.015625)"/>
       <path id="TimesNewRomanPSMT-6a" d="M 925 4447 
Q 1059 4447 1153 4353 
Q 1247 4259 1247 4125 
Q 1247 3994 1153 3900 
Q 1059 3806 925 3806 
Q 794 3806 700 3900 
Q 606 3994 606 4125 
Q 606 4259 700 4353 
Q 794 4447 925 4447 
z
M 1194 2947 
L 1194 66 
Q 1194 -669 881 -1025 
Q 569 -1381 69 -1381 
Q -216 -1381 -353 -1278 
Q -491 -1175 -491 -1066 
Q -491 -956 -414 -878 
Q -338 -800 -234 -800 
Q -153 -800 -69 -841 
Q -16 -863 136 -998 
Q 288 -1134 391 -1134 
Q 466 -1134 537 -1076 
Q 609 -1019 643 -883 
Q 678 -747 678 -294 
L 678 1744 
Q 678 2216 650 2350 
Q 628 2453 581 2492 
Q 534 2531 453 2531 
Q 366 2531 241 2484 
L 197 2597 
L 1059 2947 
L 1194 2947 
z
" transform="scale(0.015625)"/>
       <path id="TimesNewRomanPSMT-63" d="M 2631 1088 
Q 2516 522 2178 217 
Q 1841 -88 1431 -88 
Q 944 -88 581 321 
Q 219 731 219 1428 
Q 219 2103 620 2525 
Q 1022 2947 1584 2947 
Q 2006 2947 2278 2723 
Q 2550 2500 2550 2259 
Q 2550 2141 2473 2067 
Q 2397 1994 2259 1994 
Q 2075 1994 1981 2113 
Q 1928 2178 1911 2362 
Q 1894 2547 1784 2644 
Q 1675 2738 1481 2738 
Q 1169 2738 978 2506 
Q 725 2200 725 1697 
Q 725 1184 976 792 
Q 1228 400 1656 400 
Q 1963 400 2206 609 
Q 2378 753 2541 1131 
L 2631 1088 
z
" transform="scale(0.015625)"/>
       <path id="TimesNewRomanPSMT-76" d="M 53 2863 
L 1400 2863 
L 1400 2747 
L 1313 2747 
Q 1191 2747 1127 2687 
Q 1063 2628 1063 2528 
Q 1063 2419 1128 2269 
L 1794 688 
L 2463 2328 
Q 2534 2503 2534 2594 
Q 2534 2638 2509 2666 
Q 2475 2713 2422 2730 
Q 2369 2747 2206 2747 
L 2206 2863 
L 3141 2863 
L 3141 2747 
Q 2978 2734 2916 2681 
Q 2806 2588 2719 2369 
L 1703 -88 
L 1575 -88 
L 553 2328 
Q 484 2497 421 2570 
Q 359 2644 263 2694 
Q 209 2722 53 2747 
L 53 2863 
z
" transform="scale(0.015625)"/>
      </defs>
      <use xlink:href="#TimesNewRomanPSMT-4f"/>
      <use xlink:href="#TimesNewRomanPSMT-62" x="72.216797"/>
      <use xlink:href="#TimesNewRomanPSMT-6a" x="122.216797"/>
      <use xlink:href="#TimesNewRomanPSMT-65" x="150"/>
      <use xlink:href="#TimesNewRomanPSMT-63" x="194.384766"/>
      <use xlink:href="#TimesNewRomanPSMT-74" x="238.769531"/>
      <use xlink:href="#TimesNewRomanPSMT-69" x="266.552734"/>
      <use xlink:href="#TimesNewRomanPSMT-76" x="294.335938"/>
      <use xlink:href="#TimesNewRomanPSMT-65" x="344.335938"/>
      <use xlink:href="#TimesNewRomanPSMT-20" x="388.720703"/>
      <use xlink:href="#TimesNewRomanPSMT-66" x="413.720703"/>
      <use xlink:href="#TimesNewRomanPSMT-75" x="447.021484"/>
      <use xlink:href="#TimesNewRomanPSMT-6e" x="497.021484"/>
      <use xlink:href="#TimesNewRomanPSMT-63" x="547.021484"/>
      <use xlink:href="#TimesNewRomanPSMT-74" x="591.40625"/>
      <use xlink:href="#TimesNewRomanPSMT-69" x="619.189453"/>
      <use xlink:href="#TimesNewRomanPSMT-6f" x="646.972656"/>
      <use xlink:href="#TimesNewRomanPSMT-6e" x="696.972656"/>
     </g>
    </g>
   </g>
   <g id="line2d_95">
    <path d="M 78.751293 47.337203 
L 83.489148 47.337203 
L 88.227002 58.081484 
L 92.964856 70.246128 
L 97.70271 85.41463 
L 102.440565 99.811345 
L 107.178419 108.371777 
L 111.916273 111.089913 
L 116.654128 111.596937 
L 121.391982 111.690191 
L 126.129836 111.710119 
L 130.867691 111.719858 
L 135.605545 111.734167 
L 140.343399 111.760201 
L 145.081254 111.825841 
L 149.819108 111.994432 
L 154.556962 112.444332 
L 159.294816 113.567775 
L 164.032671 114.348879 
L 168.770525 118.977672 
L 173.508379 125.453196 
L 178.246234 129.187936 
L 182.984088 135.859549 
L 187.721942 140.182549 
L 192.459797 160.22849 
L 197.197651 189.595324 
L 201.935505 199.084393 
L 206.67336 213.93294 
L 211.411214 223.780332 
L 216.149068 224.601757 
L 220.886923 240.535334 
L 225.624777 241.132509 
L 230.362631 275.225466 
L 230.362631 276.136875 
" clip-path="url(#p42fded0832)" style="fill: none; stroke: #51127c; stroke-linecap: square"/>
    <defs>
     <path id="m41cd35b758" d="M 0 1.25 
C 0.331504 1.25 0.649475 1.118292 0.883883 0.883883 
C 1.118292 0.649475 1.25 0.331504 1.25 0 
C 1.25 -0.331504 1.118292 -0.649475 0.883883 -0.883883 
C 0.649475 -1.118292 0.331504 -1.25 0 -1.25 
C -0.331504 -1.25 -0.649475 -1.118292 -0.883883 -0.883883 
C -1.118292 -0.649475 -1.25 -0.331504 -1.25 0 
C -1.25 0.331504 -1.118292 0.649475 -0.883883 0.883883 
C -0.649475 1.118292 -0.331504 1.25 0 1.25 
z
" style="stroke: #51127c"/>
    </defs>
    <g clip-path="url(#p42fded0832)">
     <use xlink:href="#m41cd35b758" x="78.751293" y="47.337203" style="fill: #ffffff; stroke: #51127c"/>
     <use xlink:href="#m41cd35b758" x="83.489148" y="47.337203" style="fill: #ffffff; stroke: #51127c"/>
     <use xlink:href="#m41cd35b758" x="88.227002" y="58.081484" style="fill: #ffffff; stroke: #51127c"/>
     <use xlink:href="#m41cd35b758" x="92.964856" y="70.246128" style="fill: #ffffff; stroke: #51127c"/>
     <use xlink:href="#m41cd35b758" x="97.70271" y="85.41463" style="fill: #ffffff; stroke: #51127c"/>
     <use xlink:href="#m41cd35b758" x="102.440565" y="99.811345" style="fill: #ffffff; stroke: #51127c"/>
     <use xlink:href="#m41cd35b758" x="107.178419" y="108.371777" style="fill: #ffffff; stroke: #51127c"/>
     <use xlink:href="#m41cd35b758" x="111.916273" y="111.089913" style="fill: #ffffff; stroke: #51127c"/>
     <use xlink:href="#m41cd35b758" x="116.654128" y="111.596937" style="fill: #ffffff; stroke: #51127c"/>
     <use xlink:href="#m41cd35b758" x="121.391982" y="111.690191" style="fill: #ffffff; stroke: #51127c"/>
     <use xlink:href="#m41cd35b758" x="126.129836" y="111.710119" style="fill: #ffffff; stroke: #51127c"/>
     <use xlink:href="#m41cd35b758" x="130.867691" y="111.719858" style="fill: #ffffff; stroke: #51127c"/>
     <use xlink:href="#m41cd35b758" x="135.605545" y="111.734167" style="fill: #ffffff; stroke: #51127c"/>
     <use xlink:href="#m41cd35b758" x="140.343399" y="111.760201" style="fill: #ffffff; stroke: #51127c"/>
     <use xlink:href="#m41cd35b758" x="145.081254" y="111.825841" style="fill: #ffffff; stroke: #51127c"/>
     <use xlink:href="#m41cd35b758" x="149.819108" y="111.994432" style="fill: #ffffff; stroke: #51127c"/>
     <use xlink:href="#m41cd35b758" x="154.556962" y="112.444332" style="fill: #ffffff; stroke: #51127c"/>
     <use xlink:href="#m41cd35b758" x="159.294816" y="113.567775" style="fill: #ffffff; stroke: #51127c"/>
     <use xlink:href="#m41cd35b758" x="164.032671" y="114.348879" style="fill: #ffffff; stroke: #51127c"/>
     <use xlink:href="#m41cd35b758" x="168.770525" y="118.977672" style="fill: #ffffff; stroke: #51127c"/>
     <use xlink:href="#m41cd35b758" x="173.508379" y="125.453196" style="fill: #ffffff; stroke: #51127c"/>
     <use xlink:href="#m41cd35b758" x="178.246234" y="129.187936" style="fill: #ffffff; stroke: #51127c"/>
     <use xlink:href="#m41cd35b758" x="182.984088" y="135.859549" style="fill: #ffffff; stroke: #51127c"/>
     <use xlink:href="#m41cd35b758" x="187.721942" y="140.182549" style="fill: #ffffff; stroke: #51127c"/>
     <use xlink:href="#m41cd35b758" x="192.459797" y="160.22849" style="fill: #ffffff; stroke: #51127c"/>
     <use xlink:href="#m41cd35b758" x="197.197651" y="189.595324" style="fill: #ffffff; stroke: #51127c"/>
     <use xlink:href="#m41cd35b758" x="201.935505" y="199.084393" style="fill: #ffffff; stroke: #51127c"/>
     <use xlink:href="#m41cd35b758" x="206.67336" y="213.93294" style="fill: #ffffff; stroke: #51127c"/>
     <use xlink:href="#m41cd35b758" x="211.411214" y="223.780332" style="fill: #ffffff; stroke: #51127c"/>
     <use xlink:href="#m41cd35b758" x="216.149068" y="224.601757" style="fill: #ffffff; stroke: #51127c"/>
     <use xlink:href="#m41cd35b758" x="220.886923" y="240.535334" style="fill: #ffffff; stroke: #51127c"/>
     <use xlink:href="#m41cd35b758" x="225.624777" y="241.132509" style="fill: #ffffff; stroke: #51127c"/>
     <use xlink:href="#m41cd35b758" x="230.362631" y="275.225466" style="fill: #ffffff; stroke: #51127c"/>
     <use xlink:href="#m41cd35b758" x="230.362631" y="276.136875" style="fill: #ffffff; stroke: #51127c"/>
    </g>
   </g>
   <g id="line2d_96">
    <path d="M 78.751293 47.337203 
L 83.489148 58.611486 
L 88.227002 64.82692 
L 92.964856 66.226793 
L 97.70271 67.070251 
L 102.440565 67.379758 
L 107.178419 67.652993 
L 111.916273 67.802697 
L 116.654128 67.940816 
L 121.391982 68.565137 
L 126.129836 71.26466 
L 130.867691 76.551381 
L 135.605545 99.36832 
L 140.343399 104.78853 
L 145.081254 108.172043 
L 149.819108 108.684705 
L 154.556962 108.934444 
L 159.294816 109.707143 
L 164.032671 111.141279 
L 168.770525 112.578657 
L 173.508379 118.48 
L 178.246234 123.918069 
L 182.984088 129.672303 
L 187.721942 137.571678 
L 192.459797 147.644442 
L 197.197651 153.408351 
L 201.935505 162.263311 
L 206.67336 181.611565 
L 206.67336 181.611565 
" clip-path="url(#p42fded0832)" style="fill: none; stroke: #992d80; stroke-linecap: square"/>
    <defs>
     <path id="maaddcef57f" d="M 0 1.25 
C 0.331504 1.25 0.649475 1.118292 0.883883 0.883883 
C 1.118292 0.649475 1.25 0.331504 1.25 0 
C 1.25 -0.331504 1.118292 -0.649475 0.883883 -0.883883 
C 0.649475 -1.118292 0.331504 -1.25 0 -1.25 
C -0.331504 -1.25 -0.649475 -1.118292 -0.883883 -0.883883 
C -1.118292 -0.649475 -1.25 -0.331504 -1.25 0 
C -1.25 0.331504 -1.118292 0.649475 -0.883883 0.883883 
C -0.649475 1.118292 -0.331504 1.25 0 1.25 
z
" style="stroke: #992d80"/>
    </defs>
    <g clip-path="url(#p42fded0832)">
     <use xlink:href="#maaddcef57f" x="78.751293" y="47.337203" style="fill: #ffffff; stroke: #992d80"/>
     <use xlink:href="#maaddcef57f" x="83.489148" y="58.611486" style="fill: #ffffff; stroke: #992d80"/>
     <use xlink:href="#maaddcef57f" x="88.227002" y="64.82692" style="fill: #ffffff; stroke: #992d80"/>
     <use xlink:href="#maaddcef57f" x="92.964856" y="66.226793" style="fill: #ffffff; stroke: #992d80"/>
     <use xlink:href="#maaddcef57f" x="97.70271" y="67.070251" style="fill: #ffffff; stroke: #992d80"/>
     <use xlink:href="#maaddcef57f" x="102.440565" y="67.379758" style="fill: #ffffff; stroke: #992d80"/>
     <use xlink:href="#maaddcef57f" x="107.178419" y="67.652993" style="fill: #ffffff; stroke: #992d80"/>
     <use xlink:href="#maaddcef57f" x="111.916273" y="67.802697" style="fill: #ffffff; stroke: #992d80"/>
     <use xlink:href="#maaddcef57f" x="116.654128" y="67.940816" style="fill: #ffffff; stroke: #992d80"/>
     <use xlink:href="#maaddcef57f" x="121.391982" y="68.565137" style="fill: #ffffff; stroke: #992d80"/>
     <use xlink:href="#maaddcef57f" x="126.129836" y="71.26466" style="fill: #ffffff; stroke: #992d80"/>
     <use xlink:href="#maaddcef57f" x="130.867691" y="76.551381" style="fill: #ffffff; stroke: #992d80"/>
     <use xlink:href="#maaddcef57f" x="135.605545" y="99.36832" style="fill: #ffffff; stroke: #992d80"/>
     <use xlink:href="#maaddcef57f" x="140.343399" y="104.78853" style="fill: #ffffff; stroke: #992d80"/>
     <use xlink:href="#maaddcef57f" x="145.081254" y="108.172043" style="fill: #ffffff; stroke: #992d80"/>
     <use xlink:href="#maaddcef57f" x="149.819108" y="108.684705" style="fill: #ffffff; stroke: #992d80"/>
     <use xlink:href="#maaddcef57f" x="154.556962" y="108.934444" style="fill: #ffffff; stroke: #992d80"/>
     <use xlink:href="#maaddcef57f" x="159.294816" y="109.707143" style="fill: #ffffff; stroke: #992d80"/>
     <use xlink:href="#maaddcef57f" x="164.032671" y="111.141279" style="fill: #ffffff; stroke: #992d80"/>
     <use xlink:href="#maaddcef57f" x="168.770525" y="112.578657" style="fill: #ffffff; stroke: #992d80"/>
     <use xlink:href="#maaddcef57f" x="173.508379" y="118.48" style="fill: #ffffff; stroke: #992d80"/>
     <use xlink:href="#maaddcef57f" x="178.246234" y="123.918069" style="fill: #ffffff; stroke: #992d80"/>
     <use xlink:href="#maaddcef57f" x="182.984088" y="129.672303" style="fill: #ffffff; stroke: #992d80"/>
     <use xlink:href="#maaddcef57f" x="187.721942" y="137.571678" style="fill: #ffffff; stroke: #992d80"/>
     <use xlink:href="#maaddcef57f" x="192.459797" y="147.644442" style="fill: #ffffff; stroke: #992d80"/>
     <use xlink:href="#maaddcef57f" x="197.197651" y="153.408351" style="fill: #ffffff; stroke: #992d80"/>
     <use xlink:href="#maaddcef57f" x="201.935505" y="162.263311" style="fill: #ffffff; stroke: #992d80"/>
     <use xlink:href="#maaddcef57f" x="206.67336" y="181.611565" style="fill: #ffffff; stroke: #992d80"/>
     <use xlink:href="#maaddcef57f" x="206.67336" y="181.611565" style="fill: #ffffff; stroke: #992d80"/>
    </g>
   </g>
   <g id="line2d_97">
    <path d="M 78.751293 47.337203 
L 83.489148 55.292533 
L 88.227002 45.936875 
L 92.964856 64.292469 
L 97.70271 69.392198 
L 102.440565 74.670266 
L 107.178419 80.358035 
L 111.916273 89.650926 
L 116.654128 99.731519 
L 121.391982 114.993878 
L 126.129836 116.515866 
L 130.867691 116.851164 
L 135.605545 116.879136 
L 140.343399 116.894153 
L 145.081254 116.912512 
L 149.819108 116.932734 
L 154.556962 117.012015 
L 159.294816 117.195053 
L 164.032671 117.69041 
L 168.770525 118.848535 
L 173.508379 121.003784 
L 178.246234 125.294693 
L 182.984088 140.367055 
L 187.721942 142.829161 
L 192.459797 151.694367 
L 197.197651 157.622288 
L 201.935505 189.100526 
L 206.67336 218.380214 
L 211.411214 233.9264 
L 216.149068 265.393186 
L 216.149068 265.393186 
" clip-path="url(#p42fded0832)" style="fill: none; stroke: #e34e65; stroke-linecap: square"/>
    <defs>
     <path id="mb4f7f0b4f9" d="M 0 1.25 
C 0.331504 1.25 0.649475 1.118292 0.883883 0.883883 
C 1.118292 0.649475 1.25 0.331504 1.25 0 
C 1.25 -0.331504 1.118292 -0.649475 0.883883 -0.883883 
C 0.649475 -1.118292 0.331504 -1.25 0 -1.25 
C -0.331504 -1.25 -0.649475 -1.118292 -0.883883 -0.883883 
C -1.118292 -0.649475 -1.25 -0.331504 -1.25 0 
C -1.25 0.331504 -1.118292 0.649475 -0.883883 0.883883 
C -0.649475 1.118292 -0.331504 1.25 0 1.25 
z
" style="stroke: #e34e65"/>
    </defs>
    <g clip-path="url(#p42fded0832)">
     <use xlink:href="#mb4f7f0b4f9" x="78.751293" y="47.337203" style="fill: #ffffff; stroke: #e34e65"/>
     <use xlink:href="#mb4f7f0b4f9" x="83.489148" y="55.292533" style="fill: #ffffff; stroke: #e34e65"/>
     <use xlink:href="#mb4f7f0b4f9" x="88.227002" y="45.936875" style="fill: #ffffff; stroke: #e34e65"/>
     <use xlink:href="#mb4f7f0b4f9" x="92.964856" y="64.292469" style="fill: #ffffff; stroke: #e34e65"/>
     <use xlink:href="#mb4f7f0b4f9" x="97.70271" y="69.392198" style="fill: #ffffff; stroke: #e34e65"/>
     <use xlink:href="#mb4f7f0b4f9" x="102.440565" y="74.670266" style="fill: #ffffff; stroke: #e34e65"/>
     <use xlink:href="#mb4f7f0b4f9" x="107.178419" y="80.358035" style="fill: #ffffff; stroke: #e34e65"/>
     <use xlink:href="#mb4f7f0b4f9" x="111.916273" y="89.650926" style="fill: #ffffff; stroke: #e34e65"/>
     <use xlink:href="#mb4f7f0b4f9" x="116.654128" y="99.731519" style="fill: #ffffff; stroke: #e34e65"/>
     <use xlink:href="#mb4f7f0b4f9" x="121.391982" y="114.993878" style="fill: #ffffff; stroke: #e34e65"/>
     <use xlink:href="#mb4f7f0b4f9" x="126.129836" y="116.515866" style="fill: #ffffff; stroke: #e34e65"/>
     <use xlink:href="#mb4f7f0b4f9" x="130.867691" y="116.851164" style="fill: #ffffff; stroke: #e34e65"/>
     <use xlink:href="#mb4f7f0b4f9" x="135.605545" y="116.879136" style="fill: #ffffff; stroke: #e34e65"/>
     <use xlink:href="#mb4f7f0b4f9" x="140.343399" y="116.894153" style="fill: #ffffff; stroke: #e34e65"/>
     <use xlink:href="#mb4f7f0b4f9" x="145.081254" y="116.912512" style="fill: #ffffff; stroke: #e34e65"/>
     <use xlink:href="#mb4f7f0b4f9" x="149.819108" y="116.932734" style="fill: #ffffff; stroke: #e34e65"/>
     <use xlink:href="#mb4f7f0b4f9" x="154.556962" y="117.012015" style="fill: #ffffff; stroke: #e34e65"/>
     <use xlink:href="#mb4f7f0b4f9" x="159.294816" y="117.195053" style="fill: #ffffff; stroke: #e34e65"/>
     <use xlink:href="#mb4f7f0b4f9" x="164.032671" y="117.69041" style="fill: #ffffff; stroke: #e34e65"/>
     <use xlink:href="#mb4f7f0b4f9" x="168.770525" y="118.848535" style="fill: #ffffff; stroke: #e34e65"/>
     <use xlink:href="#mb4f7f0b4f9" x="173.508379" y="121.003784" style="fill: #ffffff; stroke: #e34e65"/>
     <use xlink:href="#mb4f7f0b4f9" x="178.246234" y="125.294693" style="fill: #ffffff; stroke: #e34e65"/>
     <use xlink:href="#mb4f7f0b4f9" x="182.984088" y="140.367055" style="fill: #ffffff; stroke: #e34e65"/>
     <use xlink:href="#mb4f7f0b4f9" x="187.721942" y="142.829161" style="fill: #ffffff; stroke: #e34e65"/>
     <use xlink:href="#mb4f7f0b4f9" x="192.459797" y="151.694367" style="fill: #ffffff; stroke: #e34e65"/>
     <use xlink:href="#mb4f7f0b4f9" x="197.197651" y="157.622288" style="fill: #ffffff; stroke: #e34e65"/>
     <use xlink:href="#mb4f7f0b4f9" x="201.935505" y="189.100526" style="fill: #ffffff; stroke: #e34e65"/>
     <use xlink:href="#mb4f7f0b4f9" x="206.67336" y="218.380214" style="fill: #ffffff; stroke: #e34e65"/>
     <use xlink:href="#mb4f7f0b4f9" x="211.411214" y="233.9264" style="fill: #ffffff; stroke: #e34e65"/>
     <use xlink:href="#mb4f7f0b4f9" x="216.149068" y="265.393186" style="fill: #ffffff; stroke: #e34e65"/>
     <use xlink:href="#mb4f7f0b4f9" x="216.149068" y="265.393186" style="fill: #ffffff; stroke: #e34e65"/>
    </g>
   </g>
   <g id="line2d_98">
    <path d="M 78.751293 47.337203 
L 83.489148 50.327822 
L 88.227002 56.532479 
L 92.964856 58.781571 
L 97.70271 59.925687 
L 102.440565 62.035308 
L 107.178419 62.856442 
L 111.916273 63.480908 
L 116.654128 64.155388 
L 121.391982 66.998096 
L 126.129836 67.546055 
L 130.867691 73.606974 
L 135.605545 74.319934 
L 140.343399 76.868596 
L 145.081254 77.863549 
L 149.819108 78.36119 
L 154.556962 78.536432 
L 159.294816 78.61346 
L 164.032671 78.703899 
L 168.770525 78.720892 
L 173.508379 78.901182 
L 178.246234 78.999022 
L 182.984088 79.479285 
L 187.721942 79.630878 
L 192.459797 80.372031 
L 197.197651 80.472024 
L 201.935505 80.669111 
L 206.67336 80.96608 
L 211.411214 81.354969 
L 216.149068 81.524169 
L 220.886923 81.795486 
L 225.624777 81.960078 
L 230.362631 82.400071 
L 235.100485 82.733347 
L 239.83834 83.242172 
L 244.576194 83.511865 
L 249.314048 84.086403 
L 254.051903 84.798135 
L 258.789757 85.423084 
L 263.527611 85.981827 
L 268.265466 86.442568 
L 273.00332 87.031266 
L 277.741174 88.190891 
L 282.479029 88.715469 
L 287.216883 89.31565 
L 291.954737 91.621346 
L 296.692591 92.47969 
L 301.430446 92.543988 
L 306.1683 96.415781 
L 310.906154 97.612507 
L 315.644009 99.16103 
L 320.381863 100.52569 
L 325.119717 102.047139 
L 329.857572 104.546139 
L 334.595426 107.320313 
L 339.33328 108.676016 
L 344.071135 110.468651 
L 348.808989 111.313117 
L 353.546843 114.983881 
L 358.284698 115.131902 
L 363.022552 119.348592 
L 367.760406 121.284074 
L 372.49826 126.118308 
L 377.236115 127.747322 
L 381.973969 130.221525 
L 386.711823 134.263678 
L 391.449678 145.209832 
L 396.187532 154.044802 
L 400.925386 155.173801 
L 405.663241 158.775485 
L 410.401095 177.090862 
L 415.138949 199.982744 
L 419.876804 214.613364 
L 424.614658 221.237805 
L 424.614658 221.237805 
" clip-path="url(#p42fded0832)" style="fill: none; stroke: #fe9f6d; stroke-linecap: square"/>
    <defs>
     <path id="m703112a1fa" d="M 0 1.25 
C 0.331504 1.25 0.649475 1.118292 0.883883 0.883883 
C 1.118292 0.649475 1.25 0.331504 1.25 0 
C 1.25 -0.331504 1.118292 -0.649475 0.883883 -0.883883 
C 0.649475 -1.118292 0.331504 -1.25 0 -1.25 
C -0.331504 -1.25 -0.649475 -1.118292 -0.883883 -0.883883 
C -1.118292 -0.649475 -1.25 -0.331504 -1.25 0 
C -1.25 0.331504 -1.118292 0.649475 -0.883883 0.883883 
C -0.649475 1.118292 -0.331504 1.25 0 1.25 
z
" style="stroke: #fe9f6d"/>
    </defs>
    <g clip-path="url(#p42fded0832)">
     <use xlink:href="#m703112a1fa" x="78.751293" y="47.337203" style="fill: #ffffff; stroke: #fe9f6d"/>
     <use xlink:href="#m703112a1fa" x="83.489148" y="50.327822" style="fill: #ffffff; stroke: #fe9f6d"/>
     <use xlink:href="#m703112a1fa" x="88.227002" y="56.532479" style="fill: #ffffff; stroke: #fe9f6d"/>
     <use xlink:href="#m703112a1fa" x="92.964856" y="58.781571" style="fill: #ffffff; stroke: #fe9f6d"/>
     <use xlink:href="#m703112a1fa" x="97.70271" y="59.925687" style="fill: #ffffff; stroke: #fe9f6d"/>
     <use xlink:href="#m703112a1fa" x="102.440565" y="62.035308" style="fill: #ffffff; stroke: #fe9f6d"/>
     <use xlink:href="#m703112a1fa" x="107.178419" y="62.856442" style="fill: #ffffff; stroke: #fe9f6d"/>
     <use xlink:href="#m703112a1fa" x="111.916273" y="63.480908" style="fill: #ffffff; stroke: #fe9f6d"/>
     <use xlink:href="#m703112a1fa" x="116.654128" y="64.155388" style="fill: #ffffff; stroke: #fe9f6d"/>
     <use xlink:href="#m703112a1fa" x="121.391982" y="66.998096" style="fill: #ffffff; stroke: #fe9f6d"/>
     <use xlink:href="#m703112a1fa" x="126.129836" y="67.546055" style="fill: #ffffff; stroke: #fe9f6d"/>
     <use xlink:href="#m703112a1fa" x="130.867691" y="73.606974" style="fill: #ffffff; stroke: #fe9f6d"/>
     <use xlink:href="#m703112a1fa" x="135.605545" y="74.319934" style="fill: #ffffff; stroke: #fe9f6d"/>
     <use xlink:href="#m703112a1fa" x="140.343399" y="76.868596" style="fill: #ffffff; stroke: #fe9f6d"/>
     <use xlink:href="#m703112a1fa" x="145.081254" y="77.863549" style="fill: #ffffff; stroke: #fe9f6d"/>
     <use xlink:href="#m703112a1fa" x="149.819108" y="78.36119" style="fill: #ffffff; stroke: #fe9f6d"/>
     <use xlink:href="#m703112a1fa" x="154.556962" y="78.536432" style="fill: #ffffff; stroke: #fe9f6d"/>
     <use xlink:href="#m703112a1fa" x="159.294816" y="78.61346" style="fill: #ffffff; stroke: #fe9f6d"/>
     <use xlink:href="#m703112a1fa" x="164.032671" y="78.703899" style="fill: #ffffff; stroke: #fe9f6d"/>
     <use xlink:href="#m703112a1fa" x="168.770525" y="78.720892" style="fill: #ffffff; stroke: #fe9f6d"/>
     <use xlink:href="#m703112a1fa" x="173.508379" y="78.901182" style="fill: #ffffff; stroke: #fe9f6d"/>
     <use xlink:href="#m703112a1fa" x="178.246234" y="78.999022" style="fill: #ffffff; stroke: #fe9f6d"/>
     <use xlink:href="#m703112a1fa" x="182.984088" y="79.479285" style="fill: #ffffff; stroke: #fe9f6d"/>
     <use xlink:href="#m703112a1fa" x="187.721942" y="79.630878" style="fill: #ffffff; stroke: #fe9f6d"/>
     <use xlink:href="#m703112a1fa" x="192.459797" y="80.372031" style="fill: #ffffff; stroke: #fe9f6d"/>
     <use xlink:href="#m703112a1fa" x="197.197651" y="80.472024" style="fill: #ffffff; stroke: #fe9f6d"/>
     <use xlink:href="#m703112a1fa" x="201.935505" y="80.669111" style="fill: #ffffff; stroke: #fe9f6d"/>
     <use xlink:href="#m703112a1fa" x="206.67336" y="80.96608" style="fill: #ffffff; stroke: #fe9f6d"/>
     <use xlink:href="#m703112a1fa" x="211.411214" y="81.354969" style="fill: #ffffff; stroke: #fe9f6d"/>
     <use xlink:href="#m703112a1fa" x="216.149068" y="81.524169" style="fill: #ffffff; stroke: #fe9f6d"/>
     <use xlink:href="#m703112a1fa" x="220.886923" y="81.795486" style="fill: #ffffff; stroke: #fe9f6d"/>
     <use xlink:href="#m703112a1fa" x="225.624777" y="81.960078" style="fill: #ffffff; stroke: #fe9f6d"/>
     <use xlink:href="#m703112a1fa" x="230.362631" y="82.400071" style="fill: #ffffff; stroke: #fe9f6d"/>
     <use xlink:href="#m703112a1fa" x="235.100485" y="82.733347" style="fill: #ffffff; stroke: #fe9f6d"/>
     <use xlink:href="#m703112a1fa" x="239.83834" y="83.242172" style="fill: #ffffff; stroke: #fe9f6d"/>
     <use xlink:href="#m703112a1fa" x="244.576194" y="83.511865" style="fill: #ffffff; stroke: #fe9f6d"/>
     <use xlink:href="#m703112a1fa" x="249.314048" y="84.086403" style="fill: #ffffff; stroke: #fe9f6d"/>
     <use xlink:href="#m703112a1fa" x="254.051903" y="84.798135" style="fill: #ffffff; stroke: #fe9f6d"/>
     <use xlink:href="#m703112a1fa" x="258.789757" y="85.423084" style="fill: #ffffff; stroke: #fe9f6d"/>
     <use xlink:href="#m703112a1fa" x="263.527611" y="85.981827" style="fill: #ffffff; stroke: #fe9f6d"/>
     <use xlink:href="#m703112a1fa" x="268.265466" y="86.442568" style="fill: #ffffff; stroke: #fe9f6d"/>
     <use xlink:href="#m703112a1fa" x="273.00332" y="87.031266" style="fill: #ffffff; stroke: #fe9f6d"/>
     <use xlink:href="#m703112a1fa" x="277.741174" y="88.190891" style="fill: #ffffff; stroke: #fe9f6d"/>
     <use xlink:href="#m703112a1fa" x="282.479029" y="88.715469" style="fill: #ffffff; stroke: #fe9f6d"/>
     <use xlink:href="#m703112a1fa" x="287.216883" y="89.31565" style="fill: #ffffff; stroke: #fe9f6d"/>
     <use xlink:href="#m703112a1fa" x="291.954737" y="91.621346" style="fill: #ffffff; stroke: #fe9f6d"/>
     <use xlink:href="#m703112a1fa" x="296.692591" y="92.47969" style="fill: #ffffff; stroke: #fe9f6d"/>
     <use xlink:href="#m703112a1fa" x="301.430446" y="92.543988" style="fill: #ffffff; stroke: #fe9f6d"/>
     <use xlink:href="#m703112a1fa" x="306.1683" y="96.415781" style="fill: #ffffff; stroke: #fe9f6d"/>
     <use xlink:href="#m703112a1fa" x="310.906154" y="97.612507" style="fill: #ffffff; stroke: #fe9f6d"/>
     <use xlink:href="#m703112a1fa" x="315.644009" y="99.16103" style="fill: #ffffff; stroke: #fe9f6d"/>
     <use xlink:href="#m703112a1fa" x="320.381863" y="100.52569" style="fill: #ffffff; stroke: #fe9f6d"/>
     <use xlink:href="#m703112a1fa" x="325.119717" y="102.047139" style="fill: #ffffff; stroke: #fe9f6d"/>
     <use xlink:href="#m703112a1fa" x="329.857572" y="104.546139" style="fill: #ffffff; stroke: #fe9f6d"/>
     <use xlink:href="#m703112a1fa" x="334.595426" y="107.320313" style="fill: #ffffff; stroke: #fe9f6d"/>
     <use xlink:href="#m703112a1fa" x="339.33328" y="108.676016" style="fill: #ffffff; stroke: #fe9f6d"/>
     <use xlink:href="#m703112a1fa" x="344.071135" y="110.468651" style="fill: #ffffff; stroke: #fe9f6d"/>
     <use xlink:href="#m703112a1fa" x="348.808989" y="111.313117" style="fill: #ffffff; stroke: #fe9f6d"/>
     <use xlink:href="#m703112a1fa" x="353.546843" y="114.983881" style="fill: #ffffff; stroke: #fe9f6d"/>
     <use xlink:href="#m703112a1fa" x="358.284698" y="115.131902" style="fill: #ffffff; stroke: #fe9f6d"/>
     <use xlink:href="#m703112a1fa" x="363.022552" y="119.348592" style="fill: #ffffff; stroke: #fe9f6d"/>
     <use xlink:href="#m703112a1fa" x="367.760406" y="121.284074" style="fill: #ffffff; stroke: #fe9f6d"/>
     <use xlink:href="#m703112a1fa" x="372.49826" y="126.118308" style="fill: #ffffff; stroke: #fe9f6d"/>
     <use xlink:href="#m703112a1fa" x="377.236115" y="127.747322" style="fill: #ffffff; stroke: #fe9f6d"/>
     <use xlink:href="#m703112a1fa" x="381.973969" y="130.221525" style="fill: #ffffff; stroke: #fe9f6d"/>
     <use xlink:href="#m703112a1fa" x="386.711823" y="134.263678" style="fill: #ffffff; stroke: #fe9f6d"/>
     <use xlink:href="#m703112a1fa" x="391.449678" y="145.209832" style="fill: #ffffff; stroke: #fe9f6d"/>
     <use xlink:href="#m703112a1fa" x="396.187532" y="154.044802" style="fill: #ffffff; stroke: #fe9f6d"/>
     <use xlink:href="#m703112a1fa" x="400.925386" y="155.173801" style="fill: #ffffff; stroke: #fe9f6d"/>
     <use xlink:href="#m703112a1fa" x="405.663241" y="158.775485" style="fill: #ffffff; stroke: #fe9f6d"/>
     <use xlink:href="#m703112a1fa" x="410.401095" y="177.090862" style="fill: #ffffff; stroke: #fe9f6d"/>
     <use xlink:href="#m703112a1fa" x="415.138949" y="199.982744" style="fill: #ffffff; stroke: #fe9f6d"/>
     <use xlink:href="#m703112a1fa" x="419.876804" y="214.613364" style="fill: #ffffff; stroke: #fe9f6d"/>
     <use xlink:href="#m703112a1fa" x="424.614658" y="221.237805" style="fill: #ffffff; stroke: #fe9f6d"/>
     <use xlink:href="#m703112a1fa" x="424.614658" y="221.237805" style="fill: #ffffff; stroke: #fe9f6d"/>
    </g>
   </g>
   <g id="patch_3">
    <path d="M 61.458125 287.646875 
L 61.458125 34.426875 
" style="fill: none; stroke: #000000; stroke-width: 1.25; stroke-linejoin: miter; stroke-linecap: square"/>
   </g>
   <g id="patch_4">
    <path d="M 441.907826 287.646875 
L 441.907826 34.426875 
" style="fill: none; stroke: #000000; stroke-width: 1.25; stroke-linejoin: miter; stroke-linecap: square"/>
   </g>
   <g id="patch_5">
    <path d="M 61.458125 287.646875 
L 441.907826 287.646875 
" style="fill: none; stroke: #000000; stroke-width: 1.25; stroke-linejoin: miter; stroke-linecap: square"/>
   </g>
   <g id="patch_6">
    <path d="M 61.458125 34.426875 
L 441.907826 34.426875 
" style="fill: none; stroke: #000000; stroke-width: 1.25; stroke-linejoin: miter; stroke-linecap: square"/>
   </g>
   <g id="text_18">
    <!-- Solving the RosenbrockProblem in 10 dimensions -->
    <g transform="translate(121.14571 16.226875) scale(0.13 -0.13)">
     <defs>
      <path id="TimesNewRomanPSMT-53" d="M 2934 4334 
L 2934 2869 
L 2819 2869 
Q 2763 3291 2617 3541 
Q 2472 3791 2203 3937 
Q 1934 4084 1647 4084 
Q 1322 4084 1109 3886 
Q 897 3688 897 3434 
Q 897 3241 1031 3081 
Q 1225 2847 1953 2456 
Q 2547 2138 2764 1967 
Q 2981 1797 3098 1565 
Q 3216 1334 3216 1081 
Q 3216 600 2842 251 
Q 2469 -97 1881 -97 
Q 1697 -97 1534 -69 
Q 1438 -53 1133 45 
Q 828 144 747 144 
Q 669 144 623 97 
Q 578 50 556 -97 
L 441 -97 
L 441 1356 
L 556 1356 
Q 638 900 775 673 
Q 913 447 1195 297 
Q 1478 147 1816 147 
Q 2206 147 2432 353 
Q 2659 559 2659 841 
Q 2659 997 2573 1156 
Q 2488 1316 2306 1453 
Q 2184 1547 1640 1851 
Q 1097 2156 867 2337 
Q 638 2519 519 2737 
Q 400 2956 400 3219 
Q 400 3675 750 4004 
Q 1100 4334 1641 4334 
Q 1978 4334 2356 4169 
Q 2531 4091 2603 4091 
Q 2684 4091 2736 4139 
Q 2788 4188 2819 4334 
L 2934 4334 
z
" transform="scale(0.015625)"/>
      <path id="TimesNewRomanPSMT-6c" d="M 1184 4444 
L 1184 647 
Q 1184 378 1223 290 
Q 1263 203 1344 158 
Q 1425 113 1647 113 
L 1647 0 
L 244 0 
L 244 113 
Q 441 113 512 153 
Q 584 194 625 287 
Q 666 381 666 647 
L 666 3247 
Q 666 3731 644 3842 
Q 622 3953 573 3993 
Q 525 4034 450 4034 
Q 369 4034 244 3984 
L 191 4094 
L 1044 4444 
L 1184 4444 
z
" transform="scale(0.015625)"/>
      <path id="TimesNewRomanPSMT-67" d="M 966 1044 
Q 703 1172 562 1401 
Q 422 1631 422 1909 
Q 422 2334 742 2640 
Q 1063 2947 1563 2947 
Q 1972 2947 2272 2747 
L 2878 2747 
Q 3013 2747 3034 2739 
Q 3056 2731 3066 2713 
Q 3084 2684 3084 2613 
Q 3084 2531 3069 2500 
Q 3059 2484 3036 2475 
Q 3013 2466 2878 2466 
L 2506 2466 
Q 2681 2241 2681 1891 
Q 2681 1491 2375 1206 
Q 2069 922 1553 922 
Q 1341 922 1119 984 
Q 981 866 932 777 
Q 884 688 884 625 
Q 884 572 936 522 
Q 988 472 1138 450 
Q 1225 438 1575 428 
Q 2219 413 2409 384 
Q 2700 344 2873 169 
Q 3047 -6 3047 -263 
Q 3047 -616 2716 -925 
Q 2228 -1381 1444 -1381 
Q 841 -1381 425 -1109 
Q 191 -953 191 -784 
Q 191 -709 225 -634 
Q 278 -519 444 -313 
Q 466 -284 763 25 
Q 600 122 533 198 
Q 466 275 466 372 
Q 466 481 555 628 
Q 644 775 966 1044 
z
M 1509 2797 
Q 1278 2797 1122 2612 
Q 966 2428 966 2047 
Q 966 1553 1178 1281 
Q 1341 1075 1591 1075 
Q 1828 1075 1981 1253 
Q 2134 1431 2134 1813 
Q 2134 2309 1919 2591 
Q 1759 2797 1509 2797 
z
M 934 0 
Q 788 -159 713 -296 
Q 638 -434 638 -550 
Q 638 -700 819 -813 
Q 1131 -1006 1722 -1006 
Q 2284 -1006 2551 -807 
Q 2819 -609 2819 -384 
Q 2819 -222 2659 -153 
Q 2497 -84 2016 -72 
Q 1313 -53 934 0 
z
" transform="scale(0.015625)"/>
      <path id="TimesNewRomanPSMT-68" d="M 1041 4444 
L 1041 2350 
Q 1388 2731 1591 2839 
Q 1794 2947 1997 2947 
Q 2241 2947 2416 2812 
Q 2591 2678 2675 2391 
Q 2734 2191 2734 1659 
L 2734 647 
Q 2734 375 2778 275 
Q 2809 200 2884 156 
Q 2959 113 3159 113 
L 3159 0 
L 1753 0 
L 1753 113 
L 1819 113 
Q 2019 113 2097 173 
Q 2175 234 2206 353 
Q 2216 403 2216 647 
L 2216 1659 
Q 2216 2128 2167 2275 
Q 2119 2422 2012 2495 
Q 1906 2569 1756 2569 
Q 1603 2569 1437 2487 
Q 1272 2406 1041 2159 
L 1041 647 
Q 1041 353 1073 281 
Q 1106 209 1195 161 
Q 1284 113 1503 113 
L 1503 0 
L 84 0 
L 84 113 
Q 275 113 384 172 
Q 447 203 484 290 
Q 522 378 522 647 
L 522 3238 
Q 522 3728 498 3840 
Q 475 3953 426 3993 
Q 378 4034 297 4034 
Q 231 4034 84 3984 
L 41 4094 
L 897 4444 
L 1041 4444 
z
" transform="scale(0.015625)"/>
      <path id="TimesNewRomanPSMT-52" d="M 4325 0 
L 3194 0 
L 1759 1981 
Q 1600 1975 1500 1975 
Q 1459 1975 1412 1976 
Q 1366 1978 1316 1981 
L 1316 750 
Q 1316 350 1403 253 
Q 1522 116 1759 116 
L 1925 116 
L 1925 0 
L 109 0 
L 109 116 
L 269 116 
Q 538 116 653 291 
Q 719 388 719 750 
L 719 3488 
Q 719 3888 631 3984 
Q 509 4122 269 4122 
L 109 4122 
L 109 4238 
L 1653 4238 
Q 2328 4238 2648 4139 
Q 2969 4041 3192 3777 
Q 3416 3513 3416 3147 
Q 3416 2756 3161 2468 
Q 2906 2181 2372 2063 
L 3247 847 
Q 3547 428 3762 290 
Q 3978 153 4325 116 
L 4325 0 
z
M 1316 2178 
Q 1375 2178 1419 2176 
Q 1463 2175 1491 2175 
Q 2097 2175 2405 2437 
Q 2713 2700 2713 3106 
Q 2713 3503 2464 3751 
Q 2216 4000 1806 4000 
Q 1625 4000 1316 3941 
L 1316 2178 
z
" transform="scale(0.015625)"/>
      <path id="TimesNewRomanPSMT-6b" d="M 1047 4444 
L 1047 1597 
L 1775 2259 
Q 2006 2472 2044 2528 
Q 2069 2566 2069 2603 
Q 2069 2666 2017 2711 
Q 1966 2756 1847 2763 
L 1847 2863 
L 3091 2863 
L 3091 2763 
Q 2834 2756 2664 2684 
Q 2494 2613 2291 2428 
L 1556 1750 
L 2291 822 
Q 2597 438 2703 334 
Q 2853 188 2966 144 
Q 3044 113 3238 113 
L 3238 0 
L 1847 0 
L 1847 113 
Q 1966 116 2008 148 
Q 2050 181 2050 241 
Q 2050 313 1925 472 
L 1047 1594 
L 1047 644 
Q 1047 366 1086 278 
Q 1125 191 1197 153 
Q 1269 116 1509 113 
L 1509 0 
L 53 0 
L 53 113 
Q 272 113 381 166 
Q 447 200 481 272 
Q 528 375 528 628 
L 528 3234 
Q 528 3731 506 3842 
Q 484 3953 434 3995 
Q 384 4038 303 4038 
Q 238 4038 106 3984 
L 53 4094 
L 903 4444 
L 1047 4444 
z
" transform="scale(0.015625)"/>
      <path id="TimesNewRomanPSMT-50" d="M 1313 1984 
L 1313 750 
Q 1313 350 1400 253 
Q 1519 116 1759 116 
L 1922 116 
L 1922 0 
L 106 0 
L 106 116 
L 266 116 
Q 534 116 650 291 
Q 713 388 713 750 
L 713 3488 
Q 713 3888 628 3984 
Q 506 4122 266 4122 
L 106 4122 
L 106 4238 
L 1659 4238 
Q 2228 4238 2556 4120 
Q 2884 4003 3109 3725 
Q 3334 3447 3334 3066 
Q 3334 2547 2992 2222 
Q 2650 1897 2025 1897 
Q 1872 1897 1694 1919 
Q 1516 1941 1313 1984 
z
M 1313 2163 
Q 1478 2131 1606 2115 
Q 1734 2100 1825 2100 
Q 2150 2100 2386 2351 
Q 2622 2603 2622 3003 
Q 2622 3278 2509 3514 
Q 2397 3750 2190 3867 
Q 1984 3984 1722 3984 
Q 1563 3984 1313 3925 
L 1313 2163 
z
" transform="scale(0.015625)"/>
      <path id="TimesNewRomanPSMT-64" d="M 2222 322 
Q 2013 103 1813 7 
Q 1613 -88 1381 -88 
Q 913 -88 563 304 
Q 213 697 213 1313 
Q 213 1928 600 2439 
Q 988 2950 1597 2950 
Q 1975 2950 2222 2709 
L 2222 3238 
Q 2222 3728 2198 3840 
Q 2175 3953 2125 3993 
Q 2075 4034 2000 4034 
Q 1919 4034 1784 3984 
L 1744 4094 
L 2597 4444 
L 2738 4444 
L 2738 1134 
Q 2738 631 2761 520 
Q 2784 409 2836 365 
Q 2888 322 2956 322 
Q 3041 322 3181 375 
L 3216 266 
L 2366 -88 
L 2222 -88 
L 2222 322 
z
M 2222 541 
L 2222 2016 
Q 2203 2228 2109 2403 
Q 2016 2578 1861 2667 
Q 1706 2756 1559 2756 
Q 1284 2756 1069 2509 
Q 784 2184 784 1559 
Q 784 928 1059 592 
Q 1334 256 1672 256 
Q 1956 256 2222 541 
z
" transform="scale(0.015625)"/>
     </defs>
     <use xlink:href="#TimesNewRomanPSMT-53"/>
     <use xlink:href="#TimesNewRomanPSMT-6f" x="55.615234"/>
     <use xlink:href="#TimesNewRomanPSMT-6c" x="105.615234"/>
     <use xlink:href="#TimesNewRomanPSMT-76" x="133.398438"/>
     <use xlink:href="#TimesNewRomanPSMT-69" x="183.398438"/>
     <use xlink:href="#TimesNewRomanPSMT-6e" x="211.181641"/>
     <use xlink:href="#TimesNewRomanPSMT-67" x="261.181641"/>
     <use xlink:href="#TimesNewRomanPSMT-20" x="311.181641"/>
     <use xlink:href="#TimesNewRomanPSMT-74" x="336.181641"/>
     <use xlink:href="#TimesNewRomanPSMT-68" x="363.964844"/>
     <use xlink:href="#TimesNewRomanPSMT-65" x="413.964844"/>
     <use xlink:href="#TimesNewRomanPSMT-20" x="458.349609"/>
     <use xlink:href="#TimesNewRomanPSMT-52" x="483.349609"/>
     <use xlink:href="#TimesNewRomanPSMT-6f" x="550.048828"/>
     <use xlink:href="#TimesNewRomanPSMT-73" x="600.048828"/>
     <use xlink:href="#TimesNewRomanPSMT-65" x="638.964844"/>
     <use xlink:href="#TimesNewRomanPSMT-6e" x="683.349609"/>
     <use xlink:href="#TimesNewRomanPSMT-62" x="733.349609"/>
     <use xlink:href="#TimesNewRomanPSMT-72" x="783.349609"/>
     <use xlink:href="#TimesNewRomanPSMT-6f" x="816.650391"/>
     <use xlink:href="#TimesNewRomanPSMT-63" x="866.650391"/>
     <use xlink:href="#TimesNewRomanPSMT-6b" x="911.035156"/>
     <use xlink:href="#TimesNewRomanPSMT-50" x="961.035156"/>
     <use xlink:href="#TimesNewRomanPSMT-72" x="1016.650391"/>
     <use xlink:href="#TimesNewRomanPSMT-6f" x="1049.951172"/>
     <use xlink:href="#TimesNewRomanPSMT-62" x="1099.951172"/>
     <use xlink:href="#TimesNewRomanPSMT-6c" x="1149.951172"/>
     <use xlink:href="#TimesNewRomanPSMT-65" x="1177.734375"/>
     <use xlink:href="#TimesNewRomanPSMT-6d" x="1222.119141"/>
     <use xlink:href="#TimesNewRomanPSMT-20" x="1299.902344"/>
     <use xlink:href="#TimesNewRomanPSMT-69" x="1324.902344"/>
     <use xlink:href="#TimesNewRomanPSMT-6e" x="1352.685547"/>
     <use xlink:href="#TimesNewRomanPSMT-20" x="1402.685547"/>
     <use xlink:href="#TimesNewRomanPSMT-31" x="1427.685547"/>
     <use xlink:href="#TimesNewRomanPSMT-30" x="1477.685547"/>
     <use xlink:href="#TimesNewRomanPSMT-20" x="1527.685547"/>
     <use xlink:href="#TimesNewRomanPSMT-64" x="1552.685547"/>
     <use xlink:href="#TimesNewRomanPSMT-69" x="1602.685547"/>
     <use xlink:href="#TimesNewRomanPSMT-6d" x="1630.46875"/>
     <use xlink:href="#TimesNewRomanPSMT-65" x="1708.251953"/>
     <use xlink:href="#TimesNewRomanPSMT-6e" x="1752.636719"/>
     <use xlink:href="#TimesNewRomanPSMT-73" x="1802.636719"/>
     <use xlink:href="#TimesNewRomanPSMT-69" x="1841.552734"/>
     <use xlink:href="#TimesNewRomanPSMT-6f" x="1869.335938"/>
     <use xlink:href="#TimesNewRomanPSMT-6e" x="1919.335938"/>
     <use xlink:href="#TimesNewRomanPSMT-73" x="1969.335938"/>
    </g>
   </g>
   <g id="legend_1">
    <g id="patch_7">
     <path d="M 364.465639 95.2275 
L 431.107826 95.2275 
Q 432.907826 95.2275 432.907826 93.4275 
L 432.907826 45.226875 
Q 432.907826 43.426875 431.107826 43.426875 
L 364.465639 43.426875 
Q 362.665639 43.426875 362.665639 45.226875 
L 362.665639 93.4275 
Q 362.665639 95.2275 364.465639 95.2275 
z
" style="fill: #ffffff; stroke: #000000; stroke-linejoin: miter"/>
    </g>
    <g id="line2d_99">
     <path d="M 368.065639 51.976875 
L 373.690639 51.976875 
L 379.315639 51.976875 
" style="fill: none; stroke: #51127c; stroke-linecap: square"/>
     <g>
      <use xlink:href="#m41cd35b758" x="373.690639" y="51.976875" style="fill: #ffffff; stroke: #51127c"/>
     </g>
    </g>
    <g id="text_19">
     <!-- trust-constr -->
     <g transform="translate(386.515639 55.126875) scale(0.09 -0.09)">
      <defs>
       <path id="TimesNewRomanPSMT-2d" d="M 259 1672 
L 1875 1672 
L 1875 1200 
L 259 1200 
L 259 1672 
z
" transform="scale(0.015625)"/>
      </defs>
      <use xlink:href="#TimesNewRomanPSMT-74"/>
      <use xlink:href="#TimesNewRomanPSMT-72" x="27.783203"/>
      <use xlink:href="#TimesNewRomanPSMT-75" x="61.083984"/>
      <use xlink:href="#TimesNewRomanPSMT-73" x="111.083984"/>
      <use xlink:href="#TimesNewRomanPSMT-74" x="150"/>
      <use xlink:href="#TimesNewRomanPSMT-2d" x="177.783203"/>
      <use xlink:href="#TimesNewRomanPSMT-63" x="211.083984"/>
      <use xlink:href="#TimesNewRomanPSMT-6f" x="255.46875"/>
      <use xlink:href="#TimesNewRomanPSMT-6e" x="305.46875"/>
      <use xlink:href="#TimesNewRomanPSMT-73" x="355.46875"/>
      <use xlink:href="#TimesNewRomanPSMT-74" x="394.384766"/>
      <use xlink:href="#TimesNewRomanPSMT-72" x="422.167969"/>
     </g>
    </g>
    <g id="line2d_100">
     <path d="M 368.065639 62.902031 
L 373.690639 62.902031 
L 379.315639 62.902031 
" style="fill: none; stroke: #992d80; stroke-linecap: square"/>
     <g>
      <use xlink:href="#maaddcef57f" x="373.690639" y="62.902031" style="fill: #ffffff; stroke: #992d80"/>
     </g>
    </g>
    <g id="text_20">
     <!-- slsqp -->
     <g transform="translate(386.515639 66.052031) scale(0.09 -0.09)">
      <defs>
       <path id="TimesNewRomanPSMT-71" d="M 2734 2947 
L 2734 -734 
Q 2734 -1009 2771 -1087 
Q 2809 -1166 2889 -1209 
Q 2969 -1253 3200 -1253 
L 3200 -1369 
L 1756 -1369 
L 1756 -1253 
L 1816 -1253 
Q 1991 -1253 2081 -1203 
Q 2144 -1169 2181 -1080 
Q 2219 -991 2219 -734 
L 2219 497 
Q 1934 159 1721 35 
Q 1509 -88 1281 -88 
Q 866 -88 539 290 
Q 213 669 213 1303 
Q 213 2031 644 2489 
Q 1075 2947 1684 2947 
Q 1863 2947 2013 2897 
Q 2163 2847 2281 2747 
Q 2463 2834 2628 2947 
L 2734 2947 
z
M 2219 694 
L 2219 2038 
Q 2219 2272 2158 2406 
Q 2097 2541 1940 2634 
Q 1784 2728 1588 2728 
Q 1238 2728 988 2431 
Q 738 2134 738 1531 
Q 738 953 992 653 
Q 1247 353 1606 353 
Q 1791 353 1934 433 
Q 2078 513 2219 694 
z
" transform="scale(0.015625)"/>
       <path id="TimesNewRomanPSMT-70" d="M -6 2578 
L 875 2934 
L 994 2934 
L 994 2266 
Q 1216 2644 1439 2795 
Q 1663 2947 1909 2947 
Q 2341 2947 2628 2609 
Q 2981 2197 2981 1534 
Q 2981 794 2556 309 
Q 2206 -88 1675 -88 
Q 1444 -88 1275 -22 
Q 1150 25 994 166 
L 994 -706 
Q 994 -1000 1030 -1079 
Q 1066 -1159 1155 -1206 
Q 1244 -1253 1478 -1253 
L 1478 -1369 
L -22 -1369 
L -22 -1253 
L 56 -1253 
Q 228 -1256 350 -1188 
Q 409 -1153 442 -1076 
Q 475 -1000 475 -688 
L 475 2019 
Q 475 2297 450 2372 
Q 425 2447 370 2484 
Q 316 2522 222 2522 
Q 147 2522 31 2478 
L -6 2578 
z
M 994 2081 
L 994 1013 
Q 994 666 1022 556 
Q 1066 375 1236 237 
Q 1406 100 1666 100 
Q 1978 100 2172 344 
Q 2425 663 2425 1241 
Q 2425 1897 2138 2250 
Q 1938 2494 1663 2494 
Q 1513 2494 1366 2419 
Q 1253 2363 994 2081 
z
" transform="scale(0.015625)"/>
      </defs>
      <use xlink:href="#TimesNewRomanPSMT-73"/>
      <use xlink:href="#TimesNewRomanPSMT-6c" x="38.916016"/>
      <use xlink:href="#TimesNewRomanPSMT-73" x="66.699219"/>
      <use xlink:href="#TimesNewRomanPSMT-71" x="105.615234"/>
      <use xlink:href="#TimesNewRomanPSMT-70" x="155.615234"/>
     </g>
    </g>
    <g id="line2d_101">
     <path d="M 368.065639 73.827187 
L 373.690639 73.827187 
L 379.315639 73.827187 
" style="fill: none; stroke: #e34e65; stroke-linecap: square"/>
     <g>
      <use xlink:href="#mb4f7f0b4f9" x="373.690639" y="73.827187" style="fill: #ffffff; stroke: #e34e65"/>
     </g>
    </g>
    <g id="text_21">
     <!-- snopt -->
     <g transform="translate(386.515639 76.977187) scale(0.09 -0.09)">
      <use xlink:href="#TimesNewRomanPSMT-73"/>
      <use xlink:href="#TimesNewRomanPSMT-6e" x="38.916016"/>
      <use xlink:href="#TimesNewRomanPSMT-6f" x="88.916016"/>
      <use xlink:href="#TimesNewRomanPSMT-70" x="138.916016"/>
      <use xlink:href="#TimesNewRomanPSMT-74" x="188.916016"/>
     </g>
    </g>
    <g id="line2d_102">
     <path d="M 368.065639 84.752344 
L 373.690639 84.752344 
L 379.315639 84.752344 
" style="fill: none; stroke: #fe9f6d; stroke-linecap: square"/>
     <g>
      <use xlink:href="#m703112a1fa" x="373.690639" y="84.752344" style="fill: #ffffff; stroke: #fe9f6d"/>
     </g>
    </g>
    <g id="text_22">
     <!-- ipopt -->
     <g transform="translate(386.515639 87.902344) scale(0.09 -0.09)">
      <use xlink:href="#TimesNewRomanPSMT-69"/>
      <use xlink:href="#TimesNewRomanPSMT-70" x="27.783203"/>
      <use xlink:href="#TimesNewRomanPSMT-6f" x="77.783203"/>
      <use xlink:href="#TimesNewRomanPSMT-70" x="127.783203"/>
      <use xlink:href="#TimesNewRomanPSMT-74" x="177.783203"/>
     </g>
    </g>
   </g>
  </g>
 </g>
 <defs>
  <clipPath id="p42fded0832">
   <rect x="61.458125" y="34.426875" width="380.449701" height="253.22"/>
  </clipPath>
 </defs>
</svg>
