<?xml version="1.0" encoding="utf-8" standalone="no"?>
<!DOCTYPE svg PUBLIC "-//W3C//DTD SVG 1.1//EN"
  "http://www.w3.org/Graphics/SVG/1.1/DTD/svg11.dtd">
<svg xmlns:xlink="http://www.w3.org/1999/xlink" width="449.140529pt" height="334.053906pt" viewBox="0 0 449.140529 334.053906" xmlns="http://www.w3.org/2000/svg" version="1.1">
 <metadata>
  <rdf:RDF xmlns:dc="http://purl.org/dc/elements/1.1/" xmlns:cc="http://creativecommons.org/ns#" xmlns:rdf="http://www.w3.org/1999/02/22-rdf-syntax-ns#">
   <cc:Work>
    <dc:type rdf:resource="http://purl.org/dc/dcmitype/StillImage"/>
    <dc:date>2024-05-16T15:29:17.381577</dc:date>
    <dc:format>image/svg+xml</dc:format>
    <dc:creator>
     <cc:Agent>
      <dc:title>Matplotlib v3.8.0, https://matplotlib.org/</dc:title>
     </cc:Agent>
    </dc:creator>
   </cc:Work>
  </rdf:RDF>
 </metadata>
 <defs>
  <style type="text/css">*{stroke-linejoin: round; stroke-linecap: butt}</style>
 </defs>
 <g id="figure_1">
  <g id="patch_1">
   <path d="M 0 334.053906 
L 449.140529 334.053906 
L 449.140529 0 
L 0 0 
z
" style="fill: #ffffff"/>
  </g>
  <g id="axes_1">
   <g id="patch_2">
    <path d="M 61.458125 287.646875 
L 439.558716 287.646875 
L 439.558716 34.426875 
L 61.458125 34.426875 
z
" style="fill: #ffffff"/>
   </g>
   <g id="matplotlib.axis_1">
    <g id="xtick_1">
     <g id="line2d_1">
      <defs>
       <path id="m605def4b9f" d="M 0 0 
L 0 -6 
" style="stroke: #000000; stroke-width: 1.25"/>
      </defs>
      <g>
       <use xlink:href="#m605def4b9f" x="74.121781" y="287.646875" style="fill: #ffffff; stroke: #000000; stroke-width: 1.25"/>
      </g>
     </g>
     <g id="line2d_2">
      <defs>
       <path id="m6bace3543b" d="M 0 0 
L 0 6 
" style="stroke: #000000; stroke-width: 1.25"/>
      </defs>
      <g>
       <use xlink:href="#m6bace3543b" x="74.121781" y="34.426875" style="fill: #ffffff; stroke: #000000; stroke-width: 1.25"/>
      </g>
     </g>
     <g id="text_1">
      <!-- 0 -->
      <g transform="translate(71.121781 299.479375) scale(0.12 -0.12)">
       <defs>
        <path id="TimesNewRomanPSMT-30" d="M 231 2094 
Q 231 2819 450 3342 
Q 669 3866 1031 4122 
Q 1313 4325 1613 4325 
Q 2100 4325 2488 3828 
Q 2972 3213 2972 2159 
Q 2972 1422 2759 906 
Q 2547 391 2217 158 
Q 1888 -75 1581 -75 
Q 975 -75 572 641 
Q 231 1244 231 2094 
z
M 844 2016 
Q 844 1141 1059 588 
Q 1238 122 1591 122 
Q 1759 122 1940 273 
Q 2122 425 2216 781 
Q 2359 1319 2359 2297 
Q 2359 3022 2209 3506 
Q 2097 3866 1919 4016 
Q 1791 4119 1609 4119 
Q 1397 4119 1231 3928 
Q 1006 3669 925 3112 
Q 844 2556 844 2016 
z
" transform="scale(0.015625)"/>
       </defs>
       <use xlink:href="#TimesNewRomanPSMT-30"/>
      </g>
     </g>
    </g>
    <g id="xtick_2">
     <g id="line2d_3">
      <g>
       <use xlink:href="#m605def4b9f" x="119.349125" y="287.646875" style="fill: #ffffff; stroke: #000000; stroke-width: 1.25"/>
      </g>
     </g>
     <g id="line2d_4">
      <g>
       <use xlink:href="#m6bace3543b" x="119.349125" y="34.426875" style="fill: #ffffff; stroke: #000000; stroke-width: 1.25"/>
      </g>
     </g>
     <g id="text_2">
      <!-- 10 -->
      <g transform="translate(113.349125 299.479375) scale(0.12 -0.12)">
       <defs>
        <path id="TimesNewRomanPSMT-31" d="M 750 3822 
L 1781 4325 
L 1884 4325 
L 1884 747 
Q 1884 391 1914 303 
Q 1944 216 2037 169 
Q 2131 122 2419 116 
L 2419 0 
L 825 0 
L 825 116 
Q 1125 122 1212 167 
Q 1300 213 1334 289 
Q 1369 366 1369 747 
L 1369 3034 
Q 1369 3497 1338 3628 
Q 1316 3728 1258 3775 
Q 1200 3822 1119 3822 
Q 1003 3822 797 3725 
L 750 3822 
z
" transform="scale(0.015625)"/>
       </defs>
       <use xlink:href="#TimesNewRomanPSMT-31"/>
       <use xlink:href="#TimesNewRomanPSMT-30" x="50"/>
      </g>
     </g>
    </g>
    <g id="xtick_3">
     <g id="line2d_5">
      <g>
       <use xlink:href="#m605def4b9f" x="164.576468" y="287.646875" style="fill: #ffffff; stroke: #000000; stroke-width: 1.25"/>
      </g>
     </g>
     <g id="line2d_6">
      <g>
       <use xlink:href="#m6bace3543b" x="164.576468" y="34.426875" style="fill: #ffffff; stroke: #000000; stroke-width: 1.25"/>
      </g>
     </g>
     <g id="text_3">
      <!-- 20 -->
      <g transform="translate(158.576468 299.479375) scale(0.12 -0.12)">
       <defs>
        <path id="TimesNewRomanPSMT-32" d="M 2934 816 
L 2638 0 
L 138 0 
L 138 116 
Q 1241 1122 1691 1759 
Q 2141 2397 2141 2925 
Q 2141 3328 1894 3587 
Q 1647 3847 1303 3847 
Q 991 3847 742 3664 
Q 494 3481 375 3128 
L 259 3128 
Q 338 3706 661 4015 
Q 984 4325 1469 4325 
Q 1984 4325 2329 3994 
Q 2675 3663 2675 3213 
Q 2675 2891 2525 2569 
Q 2294 2063 1775 1497 
Q 997 647 803 472 
L 1909 472 
Q 2247 472 2383 497 
Q 2519 522 2628 598 
Q 2738 675 2819 816 
L 2934 816 
z
" transform="scale(0.015625)"/>
       </defs>
       <use xlink:href="#TimesNewRomanPSMT-32"/>
       <use xlink:href="#TimesNewRomanPSMT-30" x="50"/>
      </g>
     </g>
    </g>
    <g id="xtick_4">
     <g id="line2d_7">
      <g>
       <use xlink:href="#m605def4b9f" x="209.803812" y="287.646875" style="fill: #ffffff; stroke: #000000; stroke-width: 1.25"/>
      </g>
     </g>
     <g id="line2d_8">
      <g>
       <use xlink:href="#m6bace3543b" x="209.803812" y="34.426875" style="fill: #ffffff; stroke: #000000; stroke-width: 1.25"/>
      </g>
     </g>
     <g id="text_4">
      <!-- 30 -->
      <g transform="translate(203.803812 299.479375) scale(0.12 -0.12)">
       <defs>
        <path id="TimesNewRomanPSMT-33" d="M 325 3431 
Q 506 3859 782 4092 
Q 1059 4325 1472 4325 
Q 1981 4325 2253 3994 
Q 2459 3747 2459 3466 
Q 2459 3003 1878 2509 
Q 2269 2356 2469 2072 
Q 2669 1788 2669 1403 
Q 2669 853 2319 450 
Q 1863 -75 997 -75 
Q 569 -75 414 31 
Q 259 138 259 259 
Q 259 350 332 419 
Q 406 488 509 488 
Q 588 488 669 463 
Q 722 447 909 348 
Q 1097 250 1169 231 
Q 1284 197 1416 197 
Q 1734 197 1970 444 
Q 2206 691 2206 1028 
Q 2206 1275 2097 1509 
Q 2016 1684 1919 1775 
Q 1784 1900 1550 2001 
Q 1316 2103 1072 2103 
L 972 2103 
L 972 2197 
Q 1219 2228 1467 2375 
Q 1716 2522 1828 2728 
Q 1941 2934 1941 3181 
Q 1941 3503 1739 3701 
Q 1538 3900 1238 3900 
Q 753 3900 428 3381 
L 325 3431 
z
" transform="scale(0.015625)"/>
       </defs>
       <use xlink:href="#TimesNewRomanPSMT-33"/>
       <use xlink:href="#TimesNewRomanPSMT-30" x="50"/>
      </g>
     </g>
    </g>
    <g id="xtick_5">
     <g id="line2d_9">
      <g>
       <use xlink:href="#m605def4b9f" x="255.031155" y="287.646875" style="fill: #ffffff; stroke: #000000; stroke-width: 1.25"/>
      </g>
     </g>
     <g id="line2d_10">
      <g>
       <use xlink:href="#m6bace3543b" x="255.031155" y="34.426875" style="fill: #ffffff; stroke: #000000; stroke-width: 1.25"/>
      </g>
     </g>
     <g id="text_5">
      <!-- 40 -->
      <g transform="translate(249.031155 299.479375) scale(0.12 -0.12)">
       <defs>
        <path id="TimesNewRomanPSMT-34" d="M 2978 1563 
L 2978 1119 
L 2409 1119 
L 2409 0 
L 1894 0 
L 1894 1119 
L 100 1119 
L 100 1519 
L 2066 4325 
L 2409 4325 
L 2409 1563 
L 2978 1563 
z
M 1894 1563 
L 1894 3666 
L 406 1563 
L 1894 1563 
z
" transform="scale(0.015625)"/>
       </defs>
       <use xlink:href="#TimesNewRomanPSMT-34"/>
       <use xlink:href="#TimesNewRomanPSMT-30" x="50"/>
      </g>
     </g>
    </g>
    <g id="xtick_6">
     <g id="line2d_11">
      <g>
       <use xlink:href="#m605def4b9f" x="300.258499" y="287.646875" style="fill: #ffffff; stroke: #000000; stroke-width: 1.25"/>
      </g>
     </g>
     <g id="line2d_12">
      <g>
       <use xlink:href="#m6bace3543b" x="300.258499" y="34.426875" style="fill: #ffffff; stroke: #000000; stroke-width: 1.25"/>
      </g>
     </g>
     <g id="text_6">
      <!-- 50 -->
      <g transform="translate(294.258499 299.479375) scale(0.12 -0.12)">
       <defs>
        <path id="TimesNewRomanPSMT-35" d="M 2778 4238 
L 2534 3706 
L 1259 3706 
L 981 3138 
Q 1809 3016 2294 2522 
Q 2709 2097 2709 1522 
Q 2709 1188 2573 903 
Q 2438 619 2231 419 
Q 2025 219 1772 97 
Q 1413 -75 1034 -75 
Q 653 -75 479 54 
Q 306 184 306 341 
Q 306 428 378 495 
Q 450 563 559 563 
Q 641 563 702 538 
Q 763 513 909 409 
Q 1144 247 1384 247 
Q 1750 247 2026 523 
Q 2303 800 2303 1197 
Q 2303 1581 2056 1914 
Q 1809 2247 1375 2428 
Q 1034 2569 447 2591 
L 1259 4238 
L 2778 4238 
z
" transform="scale(0.015625)"/>
       </defs>
       <use xlink:href="#TimesNewRomanPSMT-35"/>
       <use xlink:href="#TimesNewRomanPSMT-30" x="50"/>
      </g>
     </g>
    </g>
    <g id="xtick_7">
     <g id="line2d_13">
      <g>
       <use xlink:href="#m605def4b9f" x="345.485842" y="287.646875" style="fill: #ffffff; stroke: #000000; stroke-width: 1.25"/>
      </g>
     </g>
     <g id="line2d_14">
      <g>
       <use xlink:href="#m6bace3543b" x="345.485842" y="34.426875" style="fill: #ffffff; stroke: #000000; stroke-width: 1.25"/>
      </g>
     </g>
     <g id="text_7">
      <!-- 60 -->
      <g transform="translate(339.485842 299.479375) scale(0.12 -0.12)">
       <defs>
        <path id="TimesNewRomanPSMT-36" d="M 2869 4325 
L 2869 4209 
Q 2456 4169 2195 4045 
Q 1934 3922 1679 3669 
Q 1425 3416 1258 3105 
Q 1091 2794 978 2366 
Q 1428 2675 1881 2675 
Q 2316 2675 2634 2325 
Q 2953 1975 2953 1425 
Q 2953 894 2631 456 
Q 2244 -75 1606 -75 
Q 1172 -75 869 213 
Q 275 772 275 1663 
Q 275 2231 503 2743 
Q 731 3256 1154 3653 
Q 1578 4050 1965 4187 
Q 2353 4325 2688 4325 
L 2869 4325 
z
M 925 2138 
Q 869 1716 869 1456 
Q 869 1156 980 804 
Q 1091 453 1309 247 
Q 1469 100 1697 100 
Q 1969 100 2183 356 
Q 2397 613 2397 1088 
Q 2397 1622 2184 2012 
Q 1972 2403 1581 2403 
Q 1463 2403 1327 2353 
Q 1191 2303 925 2138 
z
" transform="scale(0.015625)"/>
       </defs>
       <use xlink:href="#TimesNewRomanPSMT-36"/>
       <use xlink:href="#TimesNewRomanPSMT-30" x="50"/>
      </g>
     </g>
    </g>
    <g id="xtick_8">
     <g id="line2d_15">
      <g>
       <use xlink:href="#m605def4b9f" x="390.713186" y="287.646875" style="fill: #ffffff; stroke: #000000; stroke-width: 1.25"/>
      </g>
     </g>
     <g id="line2d_16">
      <g>
       <use xlink:href="#m6bace3543b" x="390.713186" y="34.426875" style="fill: #ffffff; stroke: #000000; stroke-width: 1.25"/>
      </g>
     </g>
     <g id="text_8">
      <!-- 70 -->
      <g transform="translate(384.713186 299.479375) scale(0.12 -0.12)">
       <defs>
        <path id="TimesNewRomanPSMT-37" d="M 644 4238 
L 2916 4238 
L 2916 4119 
L 1503 -88 
L 1153 -88 
L 2419 3728 
L 1253 3728 
Q 900 3728 750 3644 
Q 488 3500 328 3200 
L 238 3234 
L 644 4238 
z
" transform="scale(0.015625)"/>
       </defs>
       <use xlink:href="#TimesNewRomanPSMT-37"/>
       <use xlink:href="#TimesNewRomanPSMT-30" x="50"/>
      </g>
     </g>
    </g>
    <g id="xtick_9">
     <g id="line2d_17">
      <g>
       <use xlink:href="#m605def4b9f" x="435.940529" y="287.646875" style="fill: #ffffff; stroke: #000000; stroke-width: 1.25"/>
      </g>
     </g>
     <g id="line2d_18">
      <g>
       <use xlink:href="#m6bace3543b" x="435.940529" y="34.426875" style="fill: #ffffff; stroke: #000000; stroke-width: 1.25"/>
      </g>
     </g>
     <g id="text_9">
      <!-- 80 -->
      <g transform="translate(429.940529 299.479375) scale(0.12 -0.12)">
       <defs>
        <path id="TimesNewRomanPSMT-38" d="M 1228 2134 
Q 725 2547 579 2797 
Q 434 3047 434 3316 
Q 434 3728 753 4026 
Q 1072 4325 1600 4325 
Q 2113 4325 2425 4047 
Q 2738 3769 2738 3413 
Q 2738 3175 2569 2928 
Q 2400 2681 1866 2347 
Q 2416 1922 2594 1678 
Q 2831 1359 2831 1006 
Q 2831 559 2490 242 
Q 2150 -75 1597 -75 
Q 994 -75 656 303 
Q 388 606 388 966 
Q 388 1247 577 1523 
Q 766 1800 1228 2134 
z
M 1719 2469 
Q 2094 2806 2194 3001 
Q 2294 3197 2294 3444 
Q 2294 3772 2109 3958 
Q 1925 4144 1606 4144 
Q 1288 4144 1088 3959 
Q 888 3775 888 3528 
Q 888 3366 970 3203 
Q 1053 3041 1206 2894 
L 1719 2469 
z
M 1375 2016 
Q 1116 1797 991 1539 
Q 866 1281 866 981 
Q 866 578 1086 336 
Q 1306 94 1647 94 
Q 1984 94 2187 284 
Q 2391 475 2391 747 
Q 2391 972 2272 1150 
Q 2050 1481 1375 2016 
z
" transform="scale(0.015625)"/>
       </defs>
       <use xlink:href="#TimesNewRomanPSMT-38"/>
       <use xlink:href="#TimesNewRomanPSMT-30" x="50"/>
      </g>
     </g>
    </g>
    <g id="xtick_10">
     <g id="line2d_19">
      <defs>
       <path id="m719b757948" d="M 0 0 
L 0 -3 
" style="stroke: #000000; stroke-width: 0.75"/>
      </defs>
      <g>
       <use xlink:href="#m719b757948" x="65.076312" y="287.646875" style="fill: #ffffff; stroke: #000000; stroke-width: 0.75"/>
      </g>
     </g>
     <g id="line2d_20">
      <defs>
       <path id="maac798cbaf" d="M 0 0 
L 0 3 
" style="stroke: #000000; stroke-width: 0.75"/>
      </defs>
      <g>
       <use xlink:href="#maac798cbaf" x="65.076312" y="34.426875" style="fill: #ffffff; stroke: #000000; stroke-width: 0.75"/>
      </g>
     </g>
    </g>
    <g id="xtick_11">
     <g id="line2d_21">
      <g>
       <use xlink:href="#m719b757948" x="83.16725" y="287.646875" style="fill: #ffffff; stroke: #000000; stroke-width: 0.75"/>
      </g>
     </g>
     <g id="line2d_22">
      <g>
       <use xlink:href="#maac798cbaf" x="83.16725" y="34.426875" style="fill: #ffffff; stroke: #000000; stroke-width: 0.75"/>
      </g>
     </g>
    </g>
    <g id="xtick_12">
     <g id="line2d_23">
      <g>
       <use xlink:href="#m719b757948" x="92.212719" y="287.646875" style="fill: #ffffff; stroke: #000000; stroke-width: 0.75"/>
      </g>
     </g>
     <g id="line2d_24">
      <g>
       <use xlink:href="#maac798cbaf" x="92.212719" y="34.426875" style="fill: #ffffff; stroke: #000000; stroke-width: 0.75"/>
      </g>
     </g>
    </g>
    <g id="xtick_13">
     <g id="line2d_25">
      <g>
       <use xlink:href="#m719b757948" x="101.258187" y="287.646875" style="fill: #ffffff; stroke: #000000; stroke-width: 0.75"/>
      </g>
     </g>
     <g id="line2d_26">
      <g>
       <use xlink:href="#maac798cbaf" x="101.258187" y="34.426875" style="fill: #ffffff; stroke: #000000; stroke-width: 0.75"/>
      </g>
     </g>
    </g>
    <g id="xtick_14">
     <g id="line2d_27">
      <g>
       <use xlink:href="#m719b757948" x="110.303656" y="287.646875" style="fill: #ffffff; stroke: #000000; stroke-width: 0.75"/>
      </g>
     </g>
     <g id="line2d_28">
      <g>
       <use xlink:href="#maac798cbaf" x="110.303656" y="34.426875" style="fill: #ffffff; stroke: #000000; stroke-width: 0.75"/>
      </g>
     </g>
    </g>
    <g id="xtick_15">
     <g id="line2d_29">
      <g>
       <use xlink:href="#m719b757948" x="128.394593" y="287.646875" style="fill: #ffffff; stroke: #000000; stroke-width: 0.75"/>
      </g>
     </g>
     <g id="line2d_30">
      <g>
       <use xlink:href="#maac798cbaf" x="128.394593" y="34.426875" style="fill: #ffffff; stroke: #000000; stroke-width: 0.75"/>
      </g>
     </g>
    </g>
    <g id="xtick_16">
     <g id="line2d_31">
      <g>
       <use xlink:href="#m719b757948" x="137.440062" y="287.646875" style="fill: #ffffff; stroke: #000000; stroke-width: 0.75"/>
      </g>
     </g>
     <g id="line2d_32">
      <g>
       <use xlink:href="#maac798cbaf" x="137.440062" y="34.426875" style="fill: #ffffff; stroke: #000000; stroke-width: 0.75"/>
      </g>
     </g>
    </g>
    <g id="xtick_17">
     <g id="line2d_33">
      <g>
       <use xlink:href="#m719b757948" x="146.485531" y="287.646875" style="fill: #ffffff; stroke: #000000; stroke-width: 0.75"/>
      </g>
     </g>
     <g id="line2d_34">
      <g>
       <use xlink:href="#maac798cbaf" x="146.485531" y="34.426875" style="fill: #ffffff; stroke: #000000; stroke-width: 0.75"/>
      </g>
     </g>
    </g>
    <g id="xtick_18">
     <g id="line2d_35">
      <g>
       <use xlink:href="#m719b757948" x="155.530999" y="287.646875" style="fill: #ffffff; stroke: #000000; stroke-width: 0.75"/>
      </g>
     </g>
     <g id="line2d_36">
      <g>
       <use xlink:href="#maac798cbaf" x="155.530999" y="34.426875" style="fill: #ffffff; stroke: #000000; stroke-width: 0.75"/>
      </g>
     </g>
    </g>
    <g id="xtick_19">
     <g id="line2d_37">
      <g>
       <use xlink:href="#m719b757948" x="173.621937" y="287.646875" style="fill: #ffffff; stroke: #000000; stroke-width: 0.75"/>
      </g>
     </g>
     <g id="line2d_38">
      <g>
       <use xlink:href="#maac798cbaf" x="173.621937" y="34.426875" style="fill: #ffffff; stroke: #000000; stroke-width: 0.75"/>
      </g>
     </g>
    </g>
    <g id="xtick_20">
     <g id="line2d_39">
      <g>
       <use xlink:href="#m719b757948" x="182.667406" y="287.646875" style="fill: #ffffff; stroke: #000000; stroke-width: 0.75"/>
      </g>
     </g>
     <g id="line2d_40">
      <g>
       <use xlink:href="#maac798cbaf" x="182.667406" y="34.426875" style="fill: #ffffff; stroke: #000000; stroke-width: 0.75"/>
      </g>
     </g>
    </g>
    <g id="xtick_21">
     <g id="line2d_41">
      <g>
       <use xlink:href="#m719b757948" x="191.712874" y="287.646875" style="fill: #ffffff; stroke: #000000; stroke-width: 0.75"/>
      </g>
     </g>
     <g id="line2d_42">
      <g>
       <use xlink:href="#maac798cbaf" x="191.712874" y="34.426875" style="fill: #ffffff; stroke: #000000; stroke-width: 0.75"/>
      </g>
     </g>
    </g>
    <g id="xtick_22">
     <g id="line2d_43">
      <g>
       <use xlink:href="#m719b757948" x="200.758343" y="287.646875" style="fill: #ffffff; stroke: #000000; stroke-width: 0.75"/>
      </g>
     </g>
     <g id="line2d_44">
      <g>
       <use xlink:href="#maac798cbaf" x="200.758343" y="34.426875" style="fill: #ffffff; stroke: #000000; stroke-width: 0.75"/>
      </g>
     </g>
    </g>
    <g id="xtick_23">
     <g id="line2d_45">
      <g>
       <use xlink:href="#m719b757948" x="218.84928" y="287.646875" style="fill: #ffffff; stroke: #000000; stroke-width: 0.75"/>
      </g>
     </g>
     <g id="line2d_46">
      <g>
       <use xlink:href="#maac798cbaf" x="218.84928" y="34.426875" style="fill: #ffffff; stroke: #000000; stroke-width: 0.75"/>
      </g>
     </g>
    </g>
    <g id="xtick_24">
     <g id="line2d_47">
      <g>
       <use xlink:href="#m719b757948" x="227.894749" y="287.646875" style="fill: #ffffff; stroke: #000000; stroke-width: 0.75"/>
      </g>
     </g>
     <g id="line2d_48">
      <g>
       <use xlink:href="#maac798cbaf" x="227.894749" y="34.426875" style="fill: #ffffff; stroke: #000000; stroke-width: 0.75"/>
      </g>
     </g>
    </g>
    <g id="xtick_25">
     <g id="line2d_49">
      <g>
       <use xlink:href="#m719b757948" x="236.940218" y="287.646875" style="fill: #ffffff; stroke: #000000; stroke-width: 0.75"/>
      </g>
     </g>
     <g id="line2d_50">
      <g>
       <use xlink:href="#maac798cbaf" x="236.940218" y="34.426875" style="fill: #ffffff; stroke: #000000; stroke-width: 0.75"/>
      </g>
     </g>
    </g>
    <g id="xtick_26">
     <g id="line2d_51">
      <g>
       <use xlink:href="#m719b757948" x="245.985686" y="287.646875" style="fill: #ffffff; stroke: #000000; stroke-width: 0.75"/>
      </g>
     </g>
     <g id="line2d_52">
      <g>
       <use xlink:href="#maac798cbaf" x="245.985686" y="34.426875" style="fill: #ffffff; stroke: #000000; stroke-width: 0.75"/>
      </g>
     </g>
    </g>
    <g id="xtick_27">
     <g id="line2d_53">
      <g>
       <use xlink:href="#m719b757948" x="264.076624" y="287.646875" style="fill: #ffffff; stroke: #000000; stroke-width: 0.75"/>
      </g>
     </g>
     <g id="line2d_54">
      <g>
       <use xlink:href="#maac798cbaf" x="264.076624" y="34.426875" style="fill: #ffffff; stroke: #000000; stroke-width: 0.75"/>
      </g>
     </g>
    </g>
    <g id="xtick_28">
     <g id="line2d_55">
      <g>
       <use xlink:href="#m719b757948" x="273.122092" y="287.646875" style="fill: #ffffff; stroke: #000000; stroke-width: 0.75"/>
      </g>
     </g>
     <g id="line2d_56">
      <g>
       <use xlink:href="#maac798cbaf" x="273.122092" y="34.426875" style="fill: #ffffff; stroke: #000000; stroke-width: 0.75"/>
      </g>
     </g>
    </g>
    <g id="xtick_29">
     <g id="line2d_57">
      <g>
       <use xlink:href="#m719b757948" x="282.167561" y="287.646875" style="fill: #ffffff; stroke: #000000; stroke-width: 0.75"/>
      </g>
     </g>
     <g id="line2d_58">
      <g>
       <use xlink:href="#maac798cbaf" x="282.167561" y="34.426875" style="fill: #ffffff; stroke: #000000; stroke-width: 0.75"/>
      </g>
     </g>
    </g>
    <g id="xtick_30">
     <g id="line2d_59">
      <g>
       <use xlink:href="#m719b757948" x="291.21303" y="287.646875" style="fill: #ffffff; stroke: #000000; stroke-width: 0.75"/>
      </g>
     </g>
     <g id="line2d_60">
      <g>
       <use xlink:href="#maac798cbaf" x="291.21303" y="34.426875" style="fill: #ffffff; stroke: #000000; stroke-width: 0.75"/>
      </g>
     </g>
    </g>
    <g id="xtick_31">
     <g id="line2d_61">
      <g>
       <use xlink:href="#m719b757948" x="309.303967" y="287.646875" style="fill: #ffffff; stroke: #000000; stroke-width: 0.75"/>
      </g>
     </g>
     <g id="line2d_62">
      <g>
       <use xlink:href="#maac798cbaf" x="309.303967" y="34.426875" style="fill: #ffffff; stroke: #000000; stroke-width: 0.75"/>
      </g>
     </g>
    </g>
    <g id="xtick_32">
     <g id="line2d_63">
      <g>
       <use xlink:href="#m719b757948" x="318.349436" y="287.646875" style="fill: #ffffff; stroke: #000000; stroke-width: 0.75"/>
      </g>
     </g>
     <g id="line2d_64">
      <g>
       <use xlink:href="#maac798cbaf" x="318.349436" y="34.426875" style="fill: #ffffff; stroke: #000000; stroke-width: 0.75"/>
      </g>
     </g>
    </g>
    <g id="xtick_33">
     <g id="line2d_65">
      <g>
       <use xlink:href="#m719b757948" x="327.394905" y="287.646875" style="fill: #ffffff; stroke: #000000; stroke-width: 0.75"/>
      </g>
     </g>
     <g id="line2d_66">
      <g>
       <use xlink:href="#maac798cbaf" x="327.394905" y="34.426875" style="fill: #ffffff; stroke: #000000; stroke-width: 0.75"/>
      </g>
     </g>
    </g>
    <g id="xtick_34">
     <g id="line2d_67">
      <g>
       <use xlink:href="#m719b757948" x="336.440373" y="287.646875" style="fill: #ffffff; stroke: #000000; stroke-width: 0.75"/>
      </g>
     </g>
     <g id="line2d_68">
      <g>
       <use xlink:href="#maac798cbaf" x="336.440373" y="34.426875" style="fill: #ffffff; stroke: #000000; stroke-width: 0.75"/>
      </g>
     </g>
    </g>
    <g id="xtick_35">
     <g id="line2d_69">
      <g>
       <use xlink:href="#m719b757948" x="354.531311" y="287.646875" style="fill: #ffffff; stroke: #000000; stroke-width: 0.75"/>
      </g>
     </g>
     <g id="line2d_70">
      <g>
       <use xlink:href="#maac798cbaf" x="354.531311" y="34.426875" style="fill: #ffffff; stroke: #000000; stroke-width: 0.75"/>
      </g>
     </g>
    </g>
    <g id="xtick_36">
     <g id="line2d_71">
      <g>
       <use xlink:href="#m719b757948" x="363.576779" y="287.646875" style="fill: #ffffff; stroke: #000000; stroke-width: 0.75"/>
      </g>
     </g>
     <g id="line2d_72">
      <g>
       <use xlink:href="#maac798cbaf" x="363.576779" y="34.426875" style="fill: #ffffff; stroke: #000000; stroke-width: 0.75"/>
      </g>
     </g>
    </g>
    <g id="xtick_37">
     <g id="line2d_73">
      <g>
       <use xlink:href="#m719b757948" x="372.622248" y="287.646875" style="fill: #ffffff; stroke: #000000; stroke-width: 0.75"/>
      </g>
     </g>
     <g id="line2d_74">
      <g>
       <use xlink:href="#maac798cbaf" x="372.622248" y="34.426875" style="fill: #ffffff; stroke: #000000; stroke-width: 0.75"/>
      </g>
     </g>
    </g>
    <g id="xtick_38">
     <g id="line2d_75">
      <g>
       <use xlink:href="#m719b757948" x="381.667717" y="287.646875" style="fill: #ffffff; stroke: #000000; stroke-width: 0.75"/>
      </g>
     </g>
     <g id="line2d_76">
      <g>
       <use xlink:href="#maac798cbaf" x="381.667717" y="34.426875" style="fill: #ffffff; stroke: #000000; stroke-width: 0.75"/>
      </g>
     </g>
    </g>
    <g id="xtick_39">
     <g id="line2d_77">
      <g>
       <use xlink:href="#m719b757948" x="399.758654" y="287.646875" style="fill: #ffffff; stroke: #000000; stroke-width: 0.75"/>
      </g>
     </g>
     <g id="line2d_78">
      <g>
       <use xlink:href="#maac798cbaf" x="399.758654" y="34.426875" style="fill: #ffffff; stroke: #000000; stroke-width: 0.75"/>
      </g>
     </g>
    </g>
    <g id="xtick_40">
     <g id="line2d_79">
      <g>
       <use xlink:href="#m719b757948" x="408.804123" y="287.646875" style="fill: #ffffff; stroke: #000000; stroke-width: 0.75"/>
      </g>
     </g>
     <g id="line2d_80">
      <g>
       <use xlink:href="#maac798cbaf" x="408.804123" y="34.426875" style="fill: #ffffff; stroke: #000000; stroke-width: 0.75"/>
      </g>
     </g>
    </g>
    <g id="xtick_41">
     <g id="line2d_81">
      <g>
       <use xlink:href="#m719b757948" x="417.849592" y="287.646875" style="fill: #ffffff; stroke: #000000; stroke-width: 0.75"/>
      </g>
     </g>
     <g id="line2d_82">
      <g>
       <use xlink:href="#maac798cbaf" x="417.849592" y="34.426875" style="fill: #ffffff; stroke: #000000; stroke-width: 0.75"/>
      </g>
     </g>
    </g>
    <g id="xtick_42">
     <g id="line2d_83">
      <g>
       <use xlink:href="#m719b757948" x="426.89506" y="287.646875" style="fill: #ffffff; stroke: #000000; stroke-width: 0.75"/>
      </g>
     </g>
     <g id="line2d_84">
      <g>
       <use xlink:href="#maac798cbaf" x="426.89506" y="34.426875" style="fill: #ffffff; stroke: #000000; stroke-width: 0.75"/>
      </g>
     </g>
    </g>
    <g id="text_10">
     <!-- Number of iterations -->
     <g transform="translate(196.356311 324.073125) scale(0.13 -0.13)">
      <defs>
       <path id="TimesNewRomanPSMT-4e" d="M -84 4238 
L 1066 4238 
L 3656 1059 
L 3656 3503 
Q 3656 3894 3569 3991 
Q 3453 4122 3203 4122 
L 3056 4122 
L 3056 4238 
L 4531 4238 
L 4531 4122 
L 4381 4122 
Q 4113 4122 4000 3959 
Q 3931 3859 3931 3503 
L 3931 -69 
L 3819 -69 
L 1025 3344 
L 1025 734 
Q 1025 344 1109 247 
Q 1228 116 1475 116 
L 1625 116 
L 1625 0 
L 150 0 
L 150 116 
L 297 116 
Q 569 116 681 278 
Q 750 378 750 734 
L 750 3681 
Q 566 3897 470 3965 
Q 375 4034 191 4094 
Q 100 4122 -84 4122 
L -84 4238 
z
" transform="scale(0.015625)"/>
       <path id="TimesNewRomanPSMT-75" d="M 2709 2863 
L 2709 1128 
Q 2709 631 2732 520 
Q 2756 409 2807 365 
Q 2859 322 2928 322 
Q 3025 322 3147 375 
L 3191 266 
L 2334 -88 
L 2194 -88 
L 2194 519 
Q 1825 119 1631 15 
Q 1438 -88 1222 -88 
Q 981 -88 804 51 
Q 628 191 559 409 
Q 491 628 491 1028 
L 491 2306 
Q 491 2509 447 2587 
Q 403 2666 317 2708 
Q 231 2750 6 2747 
L 6 2863 
L 1009 2863 
L 1009 947 
Q 1009 547 1148 422 
Q 1288 297 1484 297 
Q 1619 297 1789 381 
Q 1959 466 2194 703 
L 2194 2325 
Q 2194 2569 2105 2655 
Q 2016 2741 1734 2747 
L 1734 2863 
L 2709 2863 
z
" transform="scale(0.015625)"/>
       <path id="TimesNewRomanPSMT-6d" d="M 1050 2338 
Q 1363 2650 1419 2697 
Q 1559 2816 1721 2881 
Q 1884 2947 2044 2947 
Q 2313 2947 2506 2790 
Q 2700 2634 2766 2338 
Q 3088 2713 3309 2830 
Q 3531 2947 3766 2947 
Q 3994 2947 4170 2830 
Q 4347 2713 4450 2447 
Q 4519 2266 4519 1878 
L 4519 647 
Q 4519 378 4559 278 
Q 4591 209 4675 161 
Q 4759 113 4950 113 
L 4950 0 
L 3538 0 
L 3538 113 
L 3597 113 
Q 3781 113 3884 184 
Q 3956 234 3988 344 
Q 4000 397 4000 647 
L 4000 1878 
Q 4000 2228 3916 2372 
Q 3794 2572 3525 2572 
Q 3359 2572 3192 2489 
Q 3025 2406 2788 2181 
L 2781 2147 
L 2788 2013 
L 2788 647 
Q 2788 353 2820 281 
Q 2853 209 2943 161 
Q 3034 113 3253 113 
L 3253 0 
L 1806 0 
L 1806 113 
Q 2044 113 2133 169 
Q 2222 225 2256 338 
Q 2272 391 2272 647 
L 2272 1878 
Q 2272 2228 2169 2381 
Q 2031 2581 1784 2581 
Q 1616 2581 1450 2491 
Q 1191 2353 1050 2181 
L 1050 647 
Q 1050 366 1089 281 
Q 1128 197 1204 155 
Q 1281 113 1516 113 
L 1516 0 
L 100 0 
L 100 113 
Q 297 113 375 155 
Q 453 197 493 289 
Q 534 381 534 647 
L 534 1741 
Q 534 2213 506 2350 
Q 484 2453 437 2492 
Q 391 2531 309 2531 
Q 222 2531 100 2484 
L 53 2597 
L 916 2947 
L 1050 2947 
L 1050 2338 
z
" transform="scale(0.015625)"/>
       <path id="TimesNewRomanPSMT-62" d="M 984 2369 
Q 1400 2947 1881 2947 
Q 2322 2947 2650 2570 
Q 2978 2194 2978 1541 
Q 2978 778 2472 313 
Q 2038 -88 1503 -88 
Q 1253 -88 995 3 
Q 738 94 469 275 
L 469 3241 
Q 469 3728 445 3840 
Q 422 3953 372 3993 
Q 322 4034 247 4034 
Q 159 4034 28 3984 
L -16 4094 
L 844 4444 
L 984 4444 
L 984 2369 
z
M 984 2169 
L 984 456 
Q 1144 300 1314 220 
Q 1484 141 1663 141 
Q 1947 141 2192 453 
Q 2438 766 2438 1363 
Q 2438 1913 2192 2208 
Q 1947 2503 1634 2503 
Q 1469 2503 1303 2419 
Q 1178 2356 984 2169 
z
" transform="scale(0.015625)"/>
       <path id="TimesNewRomanPSMT-65" d="M 681 1784 
Q 678 1147 991 784 
Q 1303 422 1725 422 
Q 2006 422 2214 576 
Q 2422 731 2563 1106 
L 2659 1044 
Q 2594 616 2278 264 
Q 1963 -88 1488 -88 
Q 972 -88 605 314 
Q 238 716 238 1394 
Q 238 2128 614 2539 
Q 991 2950 1559 2950 
Q 2041 2950 2350 2633 
Q 2659 2316 2659 1784 
L 681 1784 
z
M 681 1966 
L 2006 1966 
Q 1991 2241 1941 2353 
Q 1863 2528 1708 2628 
Q 1553 2728 1384 2728 
Q 1125 2728 920 2526 
Q 716 2325 681 1966 
z
" transform="scale(0.015625)"/>
       <path id="TimesNewRomanPSMT-72" d="M 1038 2947 
L 1038 2303 
Q 1397 2947 1775 2947 
Q 1947 2947 2059 2842 
Q 2172 2738 2172 2600 
Q 2172 2478 2090 2393 
Q 2009 2309 1897 2309 
Q 1788 2309 1652 2417 
Q 1516 2525 1450 2525 
Q 1394 2525 1328 2463 
Q 1188 2334 1038 2041 
L 1038 669 
Q 1038 431 1097 309 
Q 1138 225 1241 169 
Q 1344 113 1538 113 
L 1538 0 
L 72 0 
L 72 113 
Q 291 113 397 181 
Q 475 231 506 341 
Q 522 394 522 644 
L 522 1753 
Q 522 2253 501 2348 
Q 481 2444 426 2487 
Q 372 2531 291 2531 
Q 194 2531 72 2484 
L 41 2597 
L 906 2947 
L 1038 2947 
z
" transform="scale(0.015625)"/>
       <path id="TimesNewRomanPSMT-20" transform="scale(0.015625)"/>
       <path id="TimesNewRomanPSMT-6f" d="M 1600 2947 
Q 2250 2947 2644 2453 
Q 2978 2031 2978 1484 
Q 2978 1100 2793 706 
Q 2609 313 2286 112 
Q 1963 -88 1566 -88 
Q 919 -88 538 428 
Q 216 863 216 1403 
Q 216 1797 411 2186 
Q 606 2575 925 2761 
Q 1244 2947 1600 2947 
z
M 1503 2744 
Q 1338 2744 1170 2645 
Q 1003 2547 900 2300 
Q 797 2053 797 1666 
Q 797 1041 1045 587 
Q 1294 134 1700 134 
Q 2003 134 2200 384 
Q 2397 634 2397 1244 
Q 2397 2006 2069 2444 
Q 1847 2744 1503 2744 
z
" transform="scale(0.015625)"/>
       <path id="TimesNewRomanPSMT-66" d="M 1319 2638 
L 1319 756 
Q 1319 356 1406 250 
Q 1522 113 1716 113 
L 1975 113 
L 1975 0 
L 266 0 
L 266 113 
L 394 113 
Q 519 113 622 175 
Q 725 238 764 344 
Q 803 450 803 756 
L 803 2638 
L 247 2638 
L 247 2863 
L 803 2863 
L 803 3050 
Q 803 3478 940 3775 
Q 1078 4072 1361 4255 
Q 1644 4438 1997 4438 
Q 2325 4438 2600 4225 
Q 2781 4084 2781 3909 
Q 2781 3816 2700 3733 
Q 2619 3650 2525 3650 
Q 2453 3650 2373 3701 
Q 2294 3753 2178 3923 
Q 2063 4094 1966 4153 
Q 1869 4213 1750 4213 
Q 1606 4213 1506 4136 
Q 1406 4059 1362 3898 
Q 1319 3738 1319 3069 
L 1319 2863 
L 2056 2863 
L 2056 2638 
L 1319 2638 
z
" transform="scale(0.015625)"/>
       <path id="TimesNewRomanPSMT-69" d="M 928 4444 
Q 1059 4444 1151 4351 
Q 1244 4259 1244 4128 
Q 1244 3997 1151 3903 
Q 1059 3809 928 3809 
Q 797 3809 703 3903 
Q 609 3997 609 4128 
Q 609 4259 701 4351 
Q 794 4444 928 4444 
z
M 1188 2947 
L 1188 647 
Q 1188 378 1227 289 
Q 1266 200 1342 156 
Q 1419 113 1622 113 
L 1622 0 
L 231 0 
L 231 113 
Q 441 113 512 153 
Q 584 194 626 287 
Q 669 381 669 647 
L 669 1750 
Q 669 2216 641 2353 
Q 619 2453 572 2492 
Q 525 2531 444 2531 
Q 356 2531 231 2484 
L 188 2597 
L 1050 2947 
L 1188 2947 
z
" transform="scale(0.015625)"/>
       <path id="TimesNewRomanPSMT-74" d="M 1031 3803 
L 1031 2863 
L 1700 2863 
L 1700 2644 
L 1031 2644 
L 1031 788 
Q 1031 509 1111 412 
Q 1191 316 1316 316 
Q 1419 316 1516 380 
Q 1613 444 1666 569 
L 1788 569 
Q 1678 263 1478 108 
Q 1278 -47 1066 -47 
Q 922 -47 784 33 
Q 647 113 581 261 
Q 516 409 516 719 
L 516 2644 
L 63 2644 
L 63 2747 
Q 234 2816 414 2980 
Q 594 3144 734 3369 
Q 806 3488 934 3803 
L 1031 3803 
z
" transform="scale(0.015625)"/>
       <path id="TimesNewRomanPSMT-61" d="M 1822 413 
Q 1381 72 1269 19 
Q 1100 -59 909 -59 
Q 613 -59 420 144 
Q 228 347 228 678 
Q 228 888 322 1041 
Q 450 1253 767 1440 
Q 1084 1628 1822 1897 
L 1822 2009 
Q 1822 2438 1686 2597 
Q 1550 2756 1291 2756 
Q 1094 2756 978 2650 
Q 859 2544 859 2406 
L 866 2225 
Q 866 2081 792 2003 
Q 719 1925 600 1925 
Q 484 1925 411 2006 
Q 338 2088 338 2228 
Q 338 2497 613 2722 
Q 888 2947 1384 2947 
Q 1766 2947 2009 2819 
Q 2194 2722 2281 2516 
Q 2338 2381 2338 1966 
L 2338 994 
Q 2338 584 2353 492 
Q 2369 400 2405 369 
Q 2441 338 2488 338 
Q 2538 338 2575 359 
Q 2641 400 2828 588 
L 2828 413 
Q 2478 -56 2159 -56 
Q 2006 -56 1915 50 
Q 1825 156 1822 413 
z
M 1822 616 
L 1822 1706 
Q 1350 1519 1213 1441 
Q 966 1303 859 1153 
Q 753 1003 753 825 
Q 753 600 887 451 
Q 1022 303 1197 303 
Q 1434 303 1822 616 
z
" transform="scale(0.015625)"/>
       <path id="TimesNewRomanPSMT-6e" d="M 1034 2341 
Q 1538 2947 1994 2947 
Q 2228 2947 2397 2830 
Q 2566 2713 2666 2444 
Q 2734 2256 2734 1869 
L 2734 647 
Q 2734 375 2778 278 
Q 2813 200 2889 156 
Q 2966 113 3172 113 
L 3172 0 
L 1756 0 
L 1756 113 
L 1816 113 
Q 2016 113 2095 173 
Q 2175 234 2206 353 
Q 2219 400 2219 647 
L 2219 1819 
Q 2219 2209 2117 2386 
Q 2016 2563 1775 2563 
Q 1403 2563 1034 2156 
L 1034 647 
Q 1034 356 1069 288 
Q 1113 197 1189 155 
Q 1266 113 1500 113 
L 1500 0 
L 84 0 
L 84 113 
L 147 113 
Q 366 113 442 223 
Q 519 334 519 647 
L 519 1709 
Q 519 2225 495 2337 
Q 472 2450 423 2490 
Q 375 2531 294 2531 
Q 206 2531 84 2484 
L 38 2597 
L 900 2947 
L 1034 2947 
L 1034 2341 
z
" transform="scale(0.015625)"/>
       <path id="TimesNewRomanPSMT-73" d="M 2050 2947 
L 2050 1972 
L 1947 1972 
Q 1828 2431 1642 2597 
Q 1456 2763 1169 2763 
Q 950 2763 815 2647 
Q 681 2531 681 2391 
Q 681 2216 781 2091 
Q 878 1963 1175 1819 
L 1631 1597 
Q 2266 1288 2266 781 
Q 2266 391 1970 151 
Q 1675 -88 1309 -88 
Q 1047 -88 709 6 
Q 606 38 541 38 
Q 469 38 428 -44 
L 325 -44 
L 325 978 
L 428 978 
Q 516 541 762 319 
Q 1009 97 1316 97 
Q 1531 97 1667 223 
Q 1803 350 1803 528 
Q 1803 744 1651 891 
Q 1500 1038 1047 1263 
Q 594 1488 453 1669 
Q 313 1847 313 2119 
Q 313 2472 555 2709 
Q 797 2947 1181 2947 
Q 1350 2947 1591 2875 
Q 1750 2828 1803 2828 
Q 1853 2828 1881 2850 
Q 1909 2872 1947 2947 
L 2050 2947 
z
" transform="scale(0.015625)"/>
      </defs>
      <use xlink:href="#TimesNewRomanPSMT-4e"/>
      <use xlink:href="#TimesNewRomanPSMT-75" x="72.216797"/>
      <use xlink:href="#TimesNewRomanPSMT-6d" x="122.216797"/>
      <use xlink:href="#TimesNewRomanPSMT-62" x="200"/>
      <use xlink:href="#TimesNewRomanPSMT-65" x="250"/>
      <use xlink:href="#TimesNewRomanPSMT-72" x="294.384766"/>
      <use xlink:href="#TimesNewRomanPSMT-20" x="327.685547"/>
      <use xlink:href="#TimesNewRomanPSMT-6f" x="352.685547"/>
      <use xlink:href="#TimesNewRomanPSMT-66" x="402.685547"/>
      <use xlink:href="#TimesNewRomanPSMT-20" x="435.986328"/>
      <use xlink:href="#TimesNewRomanPSMT-69" x="460.986328"/>
      <use xlink:href="#TimesNewRomanPSMT-74" x="488.769531"/>
      <use xlink:href="#TimesNewRomanPSMT-65" x="516.552734"/>
      <use xlink:href="#TimesNewRomanPSMT-72" x="560.9375"/>
      <use xlink:href="#TimesNewRomanPSMT-61" x="594.238281"/>
      <use xlink:href="#TimesNewRomanPSMT-74" x="638.623047"/>
      <use xlink:href="#TimesNewRomanPSMT-69" x="666.40625"/>
      <use xlink:href="#TimesNewRomanPSMT-6f" x="694.189453"/>
      <use xlink:href="#TimesNewRomanPSMT-6e" x="744.189453"/>
      <use xlink:href="#TimesNewRomanPSMT-73" x="794.189453"/>
     </g>
    </g>
   </g>
   <g id="matplotlib.axis_2">
    <g id="ytick_1">
     <g id="line2d_85">
      <defs>
       <path id="mffff6ebfa9" d="M 0 0 
L 6 0 
" style="stroke: #000000; stroke-width: 1.25"/>
      </defs>
      <g>
       <use xlink:href="#mffff6ebfa9" x="61.458125" y="263.171146" style="fill: #ffffff; stroke: #000000; stroke-width: 1.25"/>
      </g>
     </g>
     <g id="line2d_86">
      <defs>
       <path id="m840d2a2711" d="M 0 0 
L -6 0 
" style="stroke: #000000; stroke-width: 1.25"/>
      </defs>
      <g>
       <use xlink:href="#m840d2a2711" x="439.558716" y="263.171146" style="fill: #ffffff; stroke: #000000; stroke-width: 1.25"/>
      </g>
     </g>
     <g id="text_11">
      <!-- $\mathdefault{10^{-13}}$ -->
      <g transform="translate(32.038125 268.487709) scale(0.12 -0.12)">
       <defs>
        <path id="TimesNewRomanPSMT-2212" d="M 3484 2000 
L 116 2000 
L 116 2256 
L 3484 2256 
L 3484 2000 
z
" transform="scale(0.015625)"/>
       </defs>
       <use xlink:href="#TimesNewRomanPSMT-31" transform="translate(0 0.582813)"/>
       <use xlink:href="#TimesNewRomanPSMT-30" transform="translate(50 0.582813)"/>
       <use xlink:href="#TimesNewRomanPSMT-2212" transform="translate(101.502813 60.695312) scale(0.7)"/>
       <use xlink:href="#TimesNewRomanPSMT-31" transform="translate(140.980352 60.695312) scale(0.7)"/>
       <use xlink:href="#TimesNewRomanPSMT-33" transform="translate(175.980352 60.695312) scale(0.7)"/>
      </g>
     </g>
    </g>
    <g id="ytick_2">
     <g id="line2d_87">
      <g>
       <use xlink:href="#mffff6ebfa9" x="61.458125" y="235.649808" style="fill: #ffffff; stroke: #000000; stroke-width: 1.25"/>
      </g>
     </g>
     <g id="line2d_88">
      <g>
       <use xlink:href="#m840d2a2711" x="439.558716" y="235.649808" style="fill: #ffffff; stroke: #000000; stroke-width: 1.25"/>
      </g>
     </g>
     <g id="text_12">
      <!-- $\mathdefault{10^{-11}}$ -->
      <g transform="translate(32.038125 240.96637) scale(0.12 -0.12)">
       <use xlink:href="#TimesNewRomanPSMT-31" transform="translate(0 0.582813)"/>
       <use xlink:href="#TimesNewRomanPSMT-30" transform="translate(50 0.582813)"/>
       <use xlink:href="#TimesNewRomanPSMT-2212" transform="translate(101.502813 60.695312) scale(0.7)"/>
       <use xlink:href="#TimesNewRomanPSMT-31" transform="translate(140.980352 60.695312) scale(0.7)"/>
       <use xlink:href="#TimesNewRomanPSMT-31" transform="translate(175.980352 60.695312) scale(0.7)"/>
      </g>
     </g>
    </g>
    <g id="ytick_3">
     <g id="line2d_89">
      <g>
       <use xlink:href="#mffff6ebfa9" x="61.458125" y="208.128469" style="fill: #ffffff; stroke: #000000; stroke-width: 1.25"/>
      </g>
     </g>
     <g id="line2d_90">
      <g>
       <use xlink:href="#m840d2a2711" x="439.558716" y="208.128469" style="fill: #ffffff; stroke: #000000; stroke-width: 1.25"/>
      </g>
     </g>
     <g id="text_13">
      <!-- $\mathdefault{10^{-9}}$ -->
      <g transform="translate(36.238125 213.445032) scale(0.12 -0.12)">
       <defs>
        <path id="TimesNewRomanPSMT-39" d="M 338 -88 
L 338 28 
Q 744 34 1094 217 
Q 1444 400 1770 856 
Q 2097 1313 2225 1859 
Q 1734 1544 1338 1544 
Q 891 1544 572 1889 
Q 253 2234 253 2806 
Q 253 3363 572 3797 
Q 956 4325 1575 4325 
Q 2097 4325 2469 3894 
Q 2925 3359 2925 2575 
Q 2925 1869 2578 1258 
Q 2231 647 1613 244 
Q 1109 -88 516 -88 
L 338 -88 
z
M 2275 2091 
Q 2331 2497 2331 2741 
Q 2331 3044 2228 3395 
Q 2125 3747 1936 3934 
Q 1747 4122 1506 4122 
Q 1228 4122 1018 3872 
Q 809 3622 809 3128 
Q 809 2469 1088 2097 
Q 1291 1828 1588 1828 
Q 1731 1828 1928 1897 
Q 2125 1966 2275 2091 
z
" transform="scale(0.015625)"/>
       </defs>
       <use xlink:href="#TimesNewRomanPSMT-31" transform="translate(0 0.582813)"/>
       <use xlink:href="#TimesNewRomanPSMT-30" transform="translate(50 0.582813)"/>
       <use xlink:href="#TimesNewRomanPSMT-2212" transform="translate(101.502813 60.695312) scale(0.7)"/>
       <use xlink:href="#TimesNewRomanPSMT-39" transform="translate(140.980352 60.695312) scale(0.7)"/>
      </g>
     </g>
    </g>
    <g id="ytick_4">
     <g id="line2d_91">
      <g>
       <use xlink:href="#mffff6ebfa9" x="61.458125" y="180.607131" style="fill: #ffffff; stroke: #000000; stroke-width: 1.25"/>
      </g>
     </g>
     <g id="line2d_92">
      <g>
       <use xlink:href="#m840d2a2711" x="439.558716" y="180.607131" style="fill: #ffffff; stroke: #000000; stroke-width: 1.25"/>
      </g>
     </g>
     <g id="text_14">
      <!-- $\mathdefault{10^{-7}}$ -->
      <g transform="translate(36.238125 185.863693) scale(0.12 -0.12)">
       <use xlink:href="#TimesNewRomanPSMT-31" transform="translate(0 0.534375)"/>
       <use xlink:href="#TimesNewRomanPSMT-30" transform="translate(50 0.534375)"/>
       <use xlink:href="#TimesNewRomanPSMT-2212" transform="translate(101.502813 60.646875) scale(0.7)"/>
       <use xlink:href="#TimesNewRomanPSMT-37" transform="translate(140.980352 60.646875) scale(0.7)"/>
      </g>
     </g>
    </g>
    <g id="ytick_5">
     <g id="line2d_93">
      <g>
       <use xlink:href="#mffff6ebfa9" x="61.458125" y="153.085792" style="fill: #ffffff; stroke: #000000; stroke-width: 1.25"/>
      </g>
     </g>
     <g id="line2d_94">
      <g>
       <use xlink:href="#m840d2a2711" x="439.558716" y="153.085792" style="fill: #ffffff; stroke: #000000; stroke-width: 1.25"/>
      </g>
     </g>
     <g id="text_15">
      <!-- $\mathdefault{10^{-5}}$ -->
      <g transform="translate(36.238125 158.342355) scale(0.12 -0.12)">
       <use xlink:href="#TimesNewRomanPSMT-31" transform="translate(0 0.534375)"/>
       <use xlink:href="#TimesNewRomanPSMT-30" transform="translate(50 0.534375)"/>
       <use xlink:href="#TimesNewRomanPSMT-2212" transform="translate(101.502813 60.646875) scale(0.7)"/>
       <use xlink:href="#TimesNewRomanPSMT-35" transform="translate(140.980352 60.646875) scale(0.7)"/>
      </g>
     </g>
    </g>
    <g id="ytick_6">
     <g id="line2d_95">
      <g>
       <use xlink:href="#mffff6ebfa9" x="61.458125" y="125.564454" style="fill: #ffffff; stroke: #000000; stroke-width: 1.25"/>
      </g>
     </g>
     <g id="line2d_96">
      <g>
       <use xlink:href="#m840d2a2711" x="439.558716" y="125.564454" style="fill: #ffffff; stroke: #000000; stroke-width: 1.25"/>
      </g>
     </g>
     <g id="text_16">
      <!-- $\mathdefault{10^{-3}}$ -->
      <g transform="translate(36.238125 130.881016) scale(0.12 -0.12)">
       <use xlink:href="#TimesNewRomanPSMT-31" transform="translate(0 0.582813)"/>
       <use xlink:href="#TimesNewRomanPSMT-30" transform="translate(50 0.582813)"/>
       <use xlink:href="#TimesNewRomanPSMT-2212" transform="translate(101.502813 60.695312) scale(0.7)"/>
       <use xlink:href="#TimesNewRomanPSMT-33" transform="translate(140.980352 60.695312) scale(0.7)"/>
      </g>
     </g>
    </g>
    <g id="ytick_7">
     <g id="line2d_97">
      <g>
       <use xlink:href="#mffff6ebfa9" x="61.458125" y="98.043116" style="fill: #ffffff; stroke: #000000; stroke-width: 1.25"/>
      </g>
     </g>
     <g id="line2d_98">
      <g>
       <use xlink:href="#m840d2a2711" x="439.558716" y="98.043116" style="fill: #ffffff; stroke: #000000; stroke-width: 1.25"/>
      </g>
     </g>
     <g id="text_17">
      <!-- $\mathdefault{10^{-1}}$ -->
      <g transform="translate(36.238125 103.359678) scale(0.12 -0.12)">
       <use xlink:href="#TimesNewRomanPSMT-31" transform="translate(0 0.582813)"/>
       <use xlink:href="#TimesNewRomanPSMT-30" transform="translate(50 0.582813)"/>
       <use xlink:href="#TimesNewRomanPSMT-2212" transform="translate(101.502813 60.695312) scale(0.7)"/>
       <use xlink:href="#TimesNewRomanPSMT-31" transform="translate(140.980352 60.695312) scale(0.7)"/>
      </g>
     </g>
    </g>
    <g id="ytick_8">
     <g id="line2d_99">
      <g>
       <use xlink:href="#mffff6ebfa9" x="61.458125" y="70.521777" style="fill: #ffffff; stroke: #000000; stroke-width: 1.25"/>
      </g>
     </g>
     <g id="line2d_100">
      <g>
       <use xlink:href="#m840d2a2711" x="439.558716" y="70.521777" style="fill: #ffffff; stroke: #000000; stroke-width: 1.25"/>
      </g>
     </g>
     <g id="text_18">
      <!-- $\mathdefault{10^{1}}$ -->
      <g transform="translate(41.038125 75.83834) scale(0.12 -0.12)">
       <use xlink:href="#TimesNewRomanPSMT-31" transform="translate(0 0.582813)"/>
       <use xlink:href="#TimesNewRomanPSMT-30" transform="translate(50 0.582813)"/>
       <use xlink:href="#TimesNewRomanPSMT-31" transform="translate(101.502813 60.695312) scale(0.7)"/>
      </g>
     </g>
    </g>
    <g id="ytick_9">
     <g id="line2d_101">
      <g>
       <use xlink:href="#mffff6ebfa9" x="61.458125" y="43.000439" style="fill: #ffffff; stroke: #000000; stroke-width: 1.25"/>
      </g>
     </g>
     <g id="line2d_102">
      <g>
       <use xlink:href="#m840d2a2711" x="439.558716" y="43.000439" style="fill: #ffffff; stroke: #000000; stroke-width: 1.25"/>
      </g>
     </g>
     <g id="text_19">
      <!-- $\mathdefault{10^{3}}$ -->
      <g transform="translate(41.038125 48.317001) scale(0.12 -0.12)">
       <use xlink:href="#TimesNewRomanPSMT-31" transform="translate(0 0.582813)"/>
       <use xlink:href="#TimesNewRomanPSMT-30" transform="translate(50 0.582813)"/>
       <use xlink:href="#TimesNewRomanPSMT-33" transform="translate(101.502813 60.695312) scale(0.7)"/>
      </g>
     </g>
    </g>
    <g id="text_20">
     <!-- Objective function -->
     <g transform="translate(16.232969 209.590859) rotate(-90) scale(0.13 -0.13)">
      <defs>
       <path id="TimesNewRomanPSMT-4f" d="M 2341 4334 
Q 3166 4334 3770 3707 
Q 4375 3081 4375 2144 
Q 4375 1178 3765 540 
Q 3156 -97 2291 -97 
Q 1416 -97 820 525 
Q 225 1147 225 2134 
Q 225 3144 913 3781 
Q 1509 4334 2341 4334 
z
M 2281 4106 
Q 1713 4106 1369 3684 
Q 941 3159 941 2147 
Q 941 1109 1384 550 
Q 1725 125 2284 125 
Q 2881 125 3270 590 
Q 3659 1056 3659 2059 
Q 3659 3147 3231 3681 
Q 2888 4106 2281 4106 
z
" transform="scale(0.015625)"/>
       <path id="TimesNewRomanPSMT-6a" d="M 925 4447 
Q 1059 4447 1153 4353 
Q 1247 4259 1247 4125 
Q 1247 3994 1153 3900 
Q 1059 3806 925 3806 
Q 794 3806 700 3900 
Q 606 3994 606 4125 
Q 606 4259 700 4353 
Q 794 4447 925 4447 
z
M 1194 2947 
L 1194 66 
Q 1194 -669 881 -1025 
Q 569 -1381 69 -1381 
Q -216 -1381 -353 -1278 
Q -491 -1175 -491 -1066 
Q -491 -956 -414 -878 
Q -338 -800 -234 -800 
Q -153 -800 -69 -841 
Q -16 -863 136 -998 
Q 288 -1134 391 -1134 
Q 466 -1134 537 -1076 
Q 609 -1019 643 -883 
Q 678 -747 678 -294 
L 678 1744 
Q 678 2216 650 2350 
Q 628 2453 581 2492 
Q 534 2531 453 2531 
Q 366 2531 241 2484 
L 197 2597 
L 1059 2947 
L 1194 2947 
z
" transform="scale(0.015625)"/>
       <path id="TimesNewRomanPSMT-63" d="M 2631 1088 
Q 2516 522 2178 217 
Q 1841 -88 1431 -88 
Q 944 -88 581 321 
Q 219 731 219 1428 
Q 219 2103 620 2525 
Q 1022 2947 1584 2947 
Q 2006 2947 2278 2723 
Q 2550 2500 2550 2259 
Q 2550 2141 2473 2067 
Q 2397 1994 2259 1994 
Q 2075 1994 1981 2113 
Q 1928 2178 1911 2362 
Q 1894 2547 1784 2644 
Q 1675 2738 1481 2738 
Q 1169 2738 978 2506 
Q 725 2200 725 1697 
Q 725 1184 976 792 
Q 1228 400 1656 400 
Q 1963 400 2206 609 
Q 2378 753 2541 1131 
L 2631 1088 
z
" transform="scale(0.015625)"/>
       <path id="TimesNewRomanPSMT-76" d="M 53 2863 
L 1400 2863 
L 1400 2747 
L 1313 2747 
Q 1191 2747 1127 2687 
Q 1063 2628 1063 2528 
Q 1063 2419 1128 2269 
L 1794 688 
L 2463 2328 
Q 2534 2503 2534 2594 
Q 2534 2638 2509 2666 
Q 2475 2713 2422 2730 
Q 2369 2747 2206 2747 
L 2206 2863 
L 3141 2863 
L 3141 2747 
Q 2978 2734 2916 2681 
Q 2806 2588 2719 2369 
L 1703 -88 
L 1575 -88 
L 553 2328 
Q 484 2497 421 2570 
Q 359 2644 263 2694 
Q 209 2722 53 2747 
L 53 2863 
z
" transform="scale(0.015625)"/>
      </defs>
      <use xlink:href="#TimesNewRomanPSMT-4f"/>
      <use xlink:href="#TimesNewRomanPSMT-62" x="72.216797"/>
      <use xlink:href="#TimesNewRomanPSMT-6a" x="122.216797"/>
      <use xlink:href="#TimesNewRomanPSMT-65" x="150"/>
      <use xlink:href="#TimesNewRomanPSMT-63" x="194.384766"/>
      <use xlink:href="#TimesNewRomanPSMT-74" x="238.769531"/>
      <use xlink:href="#TimesNewRomanPSMT-69" x="266.552734"/>
      <use xlink:href="#TimesNewRomanPSMT-76" x="294.335938"/>
      <use xlink:href="#TimesNewRomanPSMT-65" x="344.335938"/>
      <use xlink:href="#TimesNewRomanPSMT-20" x="388.720703"/>
      <use xlink:href="#TimesNewRomanPSMT-66" x="413.720703"/>
      <use xlink:href="#TimesNewRomanPSMT-75" x="447.021484"/>
      <use xlink:href="#TimesNewRomanPSMT-6e" x="497.021484"/>
      <use xlink:href="#TimesNewRomanPSMT-63" x="547.021484"/>
      <use xlink:href="#TimesNewRomanPSMT-74" x="591.40625"/>
      <use xlink:href="#TimesNewRomanPSMT-69" x="619.189453"/>
      <use xlink:href="#TimesNewRomanPSMT-6f" x="646.972656"/>
      <use xlink:href="#TimesNewRomanPSMT-6e" x="696.972656"/>
     </g>
    </g>
   </g>
   <g id="line2d_103">
    <path d="M 78.644516 47.042072 
L 83.16725 47.042072 
L 87.689984 55.521903 
L 92.212719 65.122744 
L 96.735453 77.094355 
L 101.258187 88.456838 
L 105.780922 95.213086 
L 110.303656 97.358351 
L 114.82639 97.758516 
L 119.349125 97.832115 
L 123.871859 97.847844 
L 128.394593 97.85553 
L 132.917328 97.866824 
L 137.440062 97.88737 
L 141.962796 97.939176 
L 146.485531 98.072235 
L 151.008265 98.427315 
L 155.530999 99.313983 
L 160.053734 99.930462 
L 164.576468 103.583697 
L 169.099202 108.694449 
L 173.621937 111.642061 
L 178.144671 116.907574 
L 182.667406 120.319464 
L 187.19014 136.140551 
L 191.712874 159.318073 
L 196.235609 166.80724 
L 200.758343 178.526328 
L 205.281077 186.298298 
L 209.803812 186.9466 
L 214.326546 199.522039 
L 218.84928 199.993354 
L 223.372015 226.900928 
L 223.372015 227.62025 
" clip-path="url(#p22aa4ed5c2)" style="fill: none; stroke: #51127c; stroke-linecap: square"/>
    <defs>
     <path id="me111f95378" d="M 0 1.25 
C 0.331504 1.25 0.649475 1.118292 0.883883 0.883883 
C 1.118292 0.649475 1.25 0.331504 1.25 0 
C 1.25 -0.331504 1.118292 -0.649475 0.883883 -0.883883 
C 0.649475 -1.118292 0.331504 -1.25 0 -1.25 
C -0.331504 -1.25 -0.649475 -1.118292 -0.883883 -0.883883 
C -1.118292 -0.649475 -1.25 -0.331504 -1.25 0 
C -1.25 0.331504 -1.118292 0.649475 -0.883883 0.883883 
C -0.649475 1.118292 -0.331504 1.25 0 1.25 
z
" style="stroke: #51127c"/>
    </defs>
    <g clip-path="url(#p22aa4ed5c2)">
     <use xlink:href="#me111f95378" x="78.644516" y="47.042072" style="fill: #ffffff; stroke: #51127c"/>
     <use xlink:href="#me111f95378" x="83.16725" y="47.042072" style="fill: #ffffff; stroke: #51127c"/>
     <use xlink:href="#me111f95378" x="87.689984" y="55.521903" style="fill: #ffffff; stroke: #51127c"/>
     <use xlink:href="#me111f95378" x="92.212719" y="65.122744" style="fill: #ffffff; stroke: #51127c"/>
     <use xlink:href="#me111f95378" x="96.735453" y="77.094355" style="fill: #ffffff; stroke: #51127c"/>
     <use xlink:href="#me111f95378" x="101.258187" y="88.456838" style="fill: #ffffff; stroke: #51127c"/>
     <use xlink:href="#me111f95378" x="105.780922" y="95.213086" style="fill: #ffffff; stroke: #51127c"/>
     <use xlink:href="#me111f95378" x="110.303656" y="97.358351" style="fill: #ffffff; stroke: #51127c"/>
     <use xlink:href="#me111f95378" x="114.82639" y="97.758516" style="fill: #ffffff; stroke: #51127c"/>
     <use xlink:href="#me111f95378" x="119.349125" y="97.832115" style="fill: #ffffff; stroke: #51127c"/>
     <use xlink:href="#me111f95378" x="123.871859" y="97.847844" style="fill: #ffffff; stroke: #51127c"/>
     <use xlink:href="#me111f95378" x="128.394593" y="97.85553" style="fill: #ffffff; stroke: #51127c"/>
     <use xlink:href="#me111f95378" x="132.917328" y="97.866824" style="fill: #ffffff; stroke: #51127c"/>
     <use xlink:href="#me111f95378" x="137.440062" y="97.88737" style="fill: #ffffff; stroke: #51127c"/>
     <use xlink:href="#me111f95378" x="141.962796" y="97.939176" style="fill: #ffffff; stroke: #51127c"/>
     <use xlink:href="#me111f95378" x="146.485531" y="98.072235" style="fill: #ffffff; stroke: #51127c"/>
     <use xlink:href="#me111f95378" x="151.008265" y="98.427315" style="fill: #ffffff; stroke: #51127c"/>
     <use xlink:href="#me111f95378" x="155.530999" y="99.313983" style="fill: #ffffff; stroke: #51127c"/>
     <use xlink:href="#me111f95378" x="160.053734" y="99.930462" style="fill: #ffffff; stroke: #51127c"/>
     <use xlink:href="#me111f95378" x="164.576468" y="103.583697" style="fill: #ffffff; stroke: #51127c"/>
     <use xlink:href="#me111f95378" x="169.099202" y="108.694449" style="fill: #ffffff; stroke: #51127c"/>
     <use xlink:href="#me111f95378" x="173.621937" y="111.642061" style="fill: #ffffff; stroke: #51127c"/>
     <use xlink:href="#me111f95378" x="178.144671" y="116.907574" style="fill: #ffffff; stroke: #51127c"/>
     <use xlink:href="#me111f95378" x="182.667406" y="120.319464" style="fill: #ffffff; stroke: #51127c"/>
     <use xlink:href="#me111f95378" x="187.19014" y="136.140551" style="fill: #ffffff; stroke: #51127c"/>
     <use xlink:href="#me111f95378" x="191.712874" y="159.318073" style="fill: #ffffff; stroke: #51127c"/>
     <use xlink:href="#me111f95378" x="196.235609" y="166.80724" style="fill: #ffffff; stroke: #51127c"/>
     <use xlink:href="#me111f95378" x="200.758343" y="178.526328" style="fill: #ffffff; stroke: #51127c"/>
     <use xlink:href="#me111f95378" x="205.281077" y="186.298298" style="fill: #ffffff; stroke: #51127c"/>
     <use xlink:href="#me111f95378" x="209.803812" y="186.9466" style="fill: #ffffff; stroke: #51127c"/>
     <use xlink:href="#me111f95378" x="214.326546" y="199.522039" style="fill: #ffffff; stroke: #51127c"/>
     <use xlink:href="#me111f95378" x="218.84928" y="199.993354" style="fill: #ffffff; stroke: #51127c"/>
     <use xlink:href="#me111f95378" x="223.372015" y="226.900928" style="fill: #ffffff; stroke: #51127c"/>
     <use xlink:href="#me111f95378" x="223.372015" y="227.62025" style="fill: #ffffff; stroke: #51127c"/>
    </g>
   </g>
   <g id="line2d_104">
    <path d="M 78.644516 47.042072 
L 83.16725 55.940203 
L 87.689984 60.845681 
L 92.212719 61.950519 
L 96.735453 62.616211 
L 101.258187 62.860486 
L 105.780922 63.076135 
L 110.303656 63.194288 
L 114.82639 63.303296 
L 119.349125 63.796037 
L 123.871859 65.926612 
L 128.394593 70.099111 
L 132.917328 88.107185 
L 137.440062 92.385038 
L 141.962796 95.055448 
L 146.485531 95.460061 
L 151.008265 95.657166 
L 155.530999 96.267012 
L 160.053734 97.398892 
L 164.576468 98.53333 
L 169.099202 103.190914 
L 173.621937 107.482864 
L 178.144671 112.024343 
L 182.667406 118.258857 
L 187.19014 126.2087 
L 191.712874 130.757816 
L 196.235609 137.746517 
L 200.758343 153.01696 
L 200.758343 153.01696 
" clip-path="url(#p22aa4ed5c2)" style="fill: none; stroke: #992d80; stroke-linecap: square"/>
    <defs>
     <path id="m44efc9b613" d="M 0 1.25 
C 0.331504 1.25 0.649475 1.118292 0.883883 0.883883 
C 1.118292 0.649475 1.25 0.331504 1.25 0 
C 1.25 -0.331504 1.118292 -0.649475 0.883883 -0.883883 
C 0.649475 -1.118292 0.331504 -1.25 0 -1.25 
C -0.331504 -1.25 -0.649475 -1.118292 -0.883883 -0.883883 
C -1.118292 -0.649475 -1.25 -0.331504 -1.25 0 
C -1.25 0.331504 -1.118292 0.649475 -0.883883 0.883883 
C -0.649475 1.118292 -0.331504 1.25 0 1.25 
z
" style="stroke: #992d80"/>
    </defs>
    <g clip-path="url(#p22aa4ed5c2)">
     <use xlink:href="#m44efc9b613" x="78.644516" y="47.042072" style="fill: #ffffff; stroke: #992d80"/>
     <use xlink:href="#m44efc9b613" x="83.16725" y="55.940203" style="fill: #ffffff; stroke: #992d80"/>
     <use xlink:href="#m44efc9b613" x="87.689984" y="60.845681" style="fill: #ffffff; stroke: #992d80"/>
     <use xlink:href="#m44efc9b613" x="92.212719" y="61.950519" style="fill: #ffffff; stroke: #992d80"/>
     <use xlink:href="#m44efc9b613" x="96.735453" y="62.616211" style="fill: #ffffff; stroke: #992d80"/>
     <use xlink:href="#m44efc9b613" x="101.258187" y="62.860486" style="fill: #ffffff; stroke: #992d80"/>
     <use xlink:href="#m44efc9b613" x="105.780922" y="63.076135" style="fill: #ffffff; stroke: #992d80"/>
     <use xlink:href="#m44efc9b613" x="110.303656" y="63.194288" style="fill: #ffffff; stroke: #992d80"/>
     <use xlink:href="#m44efc9b613" x="114.82639" y="63.303296" style="fill: #ffffff; stroke: #992d80"/>
     <use xlink:href="#m44efc9b613" x="119.349125" y="63.796037" style="fill: #ffffff; stroke: #992d80"/>
     <use xlink:href="#m44efc9b613" x="123.871859" y="65.926612" style="fill: #ffffff; stroke: #992d80"/>
     <use xlink:href="#m44efc9b613" x="128.394593" y="70.099111" style="fill: #ffffff; stroke: #992d80"/>
     <use xlink:href="#m44efc9b613" x="132.917328" y="88.107185" style="fill: #ffffff; stroke: #992d80"/>
     <use xlink:href="#m44efc9b613" x="137.440062" y="92.385038" style="fill: #ffffff; stroke: #992d80"/>
     <use xlink:href="#m44efc9b613" x="141.962796" y="95.055448" style="fill: #ffffff; stroke: #992d80"/>
     <use xlink:href="#m44efc9b613" x="146.485531" y="95.460061" style="fill: #ffffff; stroke: #992d80"/>
     <use xlink:href="#m44efc9b613" x="151.008265" y="95.657166" style="fill: #ffffff; stroke: #992d80"/>
     <use xlink:href="#m44efc9b613" x="155.530999" y="96.267012" style="fill: #ffffff; stroke: #992d80"/>
     <use xlink:href="#m44efc9b613" x="160.053734" y="97.398892" style="fill: #ffffff; stroke: #992d80"/>
     <use xlink:href="#m44efc9b613" x="164.576468" y="98.53333" style="fill: #ffffff; stroke: #992d80"/>
     <use xlink:href="#m44efc9b613" x="169.099202" y="103.190914" style="fill: #ffffff; stroke: #992d80"/>
     <use xlink:href="#m44efc9b613" x="173.621937" y="107.482864" style="fill: #ffffff; stroke: #992d80"/>
     <use xlink:href="#m44efc9b613" x="178.144671" y="112.024343" style="fill: #ffffff; stroke: #992d80"/>
     <use xlink:href="#m44efc9b613" x="182.667406" y="118.258857" style="fill: #ffffff; stroke: #992d80"/>
     <use xlink:href="#m44efc9b613" x="187.19014" y="126.2087" style="fill: #ffffff; stroke: #992d80"/>
     <use xlink:href="#m44efc9b613" x="191.712874" y="130.757816" style="fill: #ffffff; stroke: #992d80"/>
     <use xlink:href="#m44efc9b613" x="196.235609" y="137.746517" style="fill: #ffffff; stroke: #992d80"/>
     <use xlink:href="#m44efc9b613" x="200.758343" y="153.01696" style="fill: #ffffff; stroke: #992d80"/>
     <use xlink:href="#m44efc9b613" x="200.758343" y="153.01696" style="fill: #ffffff; stroke: #992d80"/>
    </g>
   </g>
   <g id="line2d_105">
    <path d="M 78.644516 47.042072 
L 83.16725 53.320748 
L 87.689984 45.936875 
L 92.212719 60.42387 
L 96.735453 64.448787 
L 101.258187 68.614457 
L 105.780922 73.10348 
L 110.303656 80.437814 
L 114.82639 88.393836 
L 119.349125 100.439522 
L 123.871859 101.640738 
L 128.394593 101.905369 
L 132.917328 101.927446 
L 137.440062 101.939298 
L 141.962796 101.953787 
L 146.485531 101.969748 
L 151.008265 102.03232 
L 155.530999 102.176781 
L 160.053734 102.567737 
L 164.576468 103.481777 
L 169.099202 105.182789 
L 173.621937 108.569352 
L 178.144671 120.465084 
L 182.667406 122.40828 
L 187.19014 129.405068 
L 191.712874 134.083629 
L 196.235609 158.927558 
L 200.758343 182.036301 
L 205.281077 194.305995 
L 209.803812 219.140886 
L 214.326546 242.993473 
L 218.84928 276.136875 
L 218.84928 276.136875 
" clip-path="url(#p22aa4ed5c2)" style="fill: none; stroke: #e34e65; stroke-linecap: square"/>
    <defs>
     <path id="mc054dcda5d" d="M 0 1.25 
C 0.331504 1.25 0.649475 1.118292 0.883883 0.883883 
C 1.118292 0.649475 1.25 0.331504 1.25 0 
C 1.25 -0.331504 1.118292 -0.649475 0.883883 -0.883883 
C 0.649475 -1.118292 0.331504 -1.25 0 -1.25 
C -0.331504 -1.25 -0.649475 -1.118292 -0.883883 -0.883883 
C -1.118292 -0.649475 -1.25 -0.331504 -1.25 0 
C -1.25 0.331504 -1.118292 0.649475 -0.883883 0.883883 
C -0.649475 1.118292 -0.331504 1.25 0 1.25 
z
" style="stroke: #e34e65"/>
    </defs>
    <g clip-path="url(#p22aa4ed5c2)">
     <use xlink:href="#mc054dcda5d" x="78.644516" y="47.042072" style="fill: #ffffff; stroke: #e34e65"/>
     <use xlink:href="#mc054dcda5d" x="83.16725" y="53.320748" style="fill: #ffffff; stroke: #e34e65"/>
     <use xlink:href="#mc054dcda5d" x="87.689984" y="45.936875" style="fill: #ffffff; stroke: #e34e65"/>
     <use xlink:href="#mc054dcda5d" x="92.212719" y="60.42387" style="fill: #ffffff; stroke: #e34e65"/>
     <use xlink:href="#mc054dcda5d" x="96.735453" y="64.448787" style="fill: #ffffff; stroke: #e34e65"/>
     <use xlink:href="#mc054dcda5d" x="101.258187" y="68.614457" style="fill: #ffffff; stroke: #e34e65"/>
     <use xlink:href="#mc054dcda5d" x="105.780922" y="73.10348" style="fill: #ffffff; stroke: #e34e65"/>
     <use xlink:href="#mc054dcda5d" x="110.303656" y="80.437814" style="fill: #ffffff; stroke: #e34e65"/>
     <use xlink:href="#mc054dcda5d" x="114.82639" y="88.393836" style="fill: #ffffff; stroke: #e34e65"/>
     <use xlink:href="#mc054dcda5d" x="119.349125" y="100.439522" style="fill: #ffffff; stroke: #e34e65"/>
     <use xlink:href="#mc054dcda5d" x="123.871859" y="101.640738" style="fill: #ffffff; stroke: #e34e65"/>
     <use xlink:href="#mc054dcda5d" x="128.394593" y="101.905369" style="fill: #ffffff; stroke: #e34e65"/>
     <use xlink:href="#mc054dcda5d" x="132.917328" y="101.927446" style="fill: #ffffff; stroke: #e34e65"/>
     <use xlink:href="#mc054dcda5d" x="137.440062" y="101.939298" style="fill: #ffffff; stroke: #e34e65"/>
     <use xlink:href="#mc054dcda5d" x="141.962796" y="101.953787" style="fill: #ffffff; stroke: #e34e65"/>
     <use xlink:href="#mc054dcda5d" x="146.485531" y="101.969748" style="fill: #ffffff; stroke: #e34e65"/>
     <use xlink:href="#mc054dcda5d" x="151.008265" y="102.03232" style="fill: #ffffff; stroke: #e34e65"/>
     <use xlink:href="#mc054dcda5d" x="155.530999" y="102.176781" style="fill: #ffffff; stroke: #e34e65"/>
     <use xlink:href="#mc054dcda5d" x="160.053734" y="102.567737" style="fill: #ffffff; stroke: #e34e65"/>
     <use xlink:href="#mc054dcda5d" x="164.576468" y="103.481777" style="fill: #ffffff; stroke: #e34e65"/>
     <use xlink:href="#mc054dcda5d" x="169.099202" y="105.182789" style="fill: #ffffff; stroke: #e34e65"/>
     <use xlink:href="#mc054dcda5d" x="173.621937" y="108.569352" style="fill: #ffffff; stroke: #e34e65"/>
     <use xlink:href="#mc054dcda5d" x="178.144671" y="120.465084" style="fill: #ffffff; stroke: #e34e65"/>
     <use xlink:href="#mc054dcda5d" x="182.667406" y="122.40828" style="fill: #ffffff; stroke: #e34e65"/>
     <use xlink:href="#mc054dcda5d" x="187.19014" y="129.405068" style="fill: #ffffff; stroke: #e34e65"/>
     <use xlink:href="#mc054dcda5d" x="191.712874" y="134.083629" style="fill: #ffffff; stroke: #e34e65"/>
     <use xlink:href="#mc054dcda5d" x="196.235609" y="158.927558" style="fill: #ffffff; stroke: #e34e65"/>
     <use xlink:href="#mc054dcda5d" x="200.758343" y="182.036301" style="fill: #ffffff; stroke: #e34e65"/>
     <use xlink:href="#mc054dcda5d" x="205.281077" y="194.305995" style="fill: #ffffff; stroke: #e34e65"/>
     <use xlink:href="#mc054dcda5d" x="209.803812" y="219.140886" style="fill: #ffffff; stroke: #e34e65"/>
     <use xlink:href="#mc054dcda5d" x="214.326546" y="242.993473" style="fill: #ffffff; stroke: #e34e65"/>
     <use xlink:href="#mc054dcda5d" x="218.84928" y="276.136875" style="fill: #ffffff; stroke: #e34e65"/>
     <use xlink:href="#mc054dcda5d" x="218.84928" y="276.136875" style="fill: #ffffff; stroke: #e34e65"/>
    </g>
   </g>
   <g id="line2d_106">
    <path d="M 78.644516 47.042072 
L 83.16725 49.402392 
L 87.689984 54.299364 
L 92.212719 56.074441 
L 96.735453 56.977425 
L 101.258187 58.642425 
L 105.780922 59.290498 
L 110.303656 59.783353 
L 114.82639 60.31568 
L 119.349125 62.559263 
L 123.871859 62.991735 
L 128.394593 67.775263 
L 132.917328 68.337961 
L 137.440062 70.34947 
L 141.962796 71.134729 
L 146.485531 71.527488 
L 151.008265 71.665796 
L 155.530999 71.726589 
L 160.053734 71.797967 
L 164.576468 71.811379 
L 169.099202 71.953671 
L 173.621937 72.030891 
L 178.144671 72.409934 
L 182.667406 72.529578 
L 187.19014 73.114526 
L 191.712874 73.193445 
L 196.235609 73.348994 
L 200.758343 73.583375 
L 205.281077 73.890302 
L 209.803812 74.023841 
L 214.326546 74.237976 
L 218.84928 74.367879 
L 223.372015 74.715139 
L 227.894749 74.978175 
L 232.417483 75.379761 
L 236.940218 75.592613 
L 241.462952 76.046063 
L 245.985686 76.607791 
L 250.508421 77.101027 
L 255.031155 77.54201 
L 259.553889 77.905646 
L 264.076624 78.370271 
L 268.599358 79.285494 
L 273.122092 79.699513 
L 277.644827 80.173201 
L 282.167561 81.992952 
L 286.690296 82.670393 
L 291.21303 82.721139 
L 295.735764 85.776918 
L 300.258499 86.721424 
L 304.781233 87.943582 
L 309.303967 89.020629 
L 313.826702 90.221419 
L 318.349436 92.193734 
L 322.87217 94.383227 
L 327.394905 95.453204 
L 331.917639 96.868026 
L 336.440373 97.534513 
L 340.963108 100.431632 
L 345.485842 100.548456 
L 350.008576 103.876443 
L 354.531311 105.404005 
L 359.054045 109.219383 
L 363.576779 110.505069 
L 368.099514 112.457812 
L 372.622248 115.648046 
L 377.144982 124.287204 
L 381.667717 131.260129 
L 386.190451 132.151182 
L 390.713186 134.99378 
L 395.23592 149.449034 
L 399.758654 167.516256 
L 404.281389 179.063347 
L 408.804123 184.29163 
L 413.326857 193.249343 
L 417.849592 214.149211 
L 422.372326 248.214224 
L 422.372326 248.214224 
" clip-path="url(#p22aa4ed5c2)" style="fill: none; stroke: #fe9f6d; stroke-linecap: square"/>
    <defs>
     <path id="me5ef470a41" d="M 0 1.25 
C 0.331504 1.25 0.649475 1.118292 0.883883 0.883883 
C 1.118292 0.649475 1.25 0.331504 1.25 0 
C 1.25 -0.331504 1.118292 -0.649475 0.883883 -0.883883 
C 0.649475 -1.118292 0.331504 -1.25 0 -1.25 
C -0.331504 -1.25 -0.649475 -1.118292 -0.883883 -0.883883 
C -1.118292 -0.649475 -1.25 -0.331504 -1.25 0 
C -1.25 0.331504 -1.118292 0.649475 -0.883883 0.883883 
C -0.649475 1.118292 -0.331504 1.25 0 1.25 
z
" style="stroke: #fe9f6d"/>
    </defs>
    <g clip-path="url(#p22aa4ed5c2)">
     <use xlink:href="#me5ef470a41" x="78.644516" y="47.042072" style="fill: #ffffff; stroke: #fe9f6d"/>
     <use xlink:href="#me5ef470a41" x="83.16725" y="49.402392" style="fill: #ffffff; stroke: #fe9f6d"/>
     <use xlink:href="#me5ef470a41" x="87.689984" y="54.299364" style="fill: #ffffff; stroke: #fe9f6d"/>
     <use xlink:href="#me5ef470a41" x="92.212719" y="56.074441" style="fill: #ffffff; stroke: #fe9f6d"/>
     <use xlink:href="#me5ef470a41" x="96.735453" y="56.977425" style="fill: #ffffff; stroke: #fe9f6d"/>
     <use xlink:href="#me5ef470a41" x="101.258187" y="58.642425" style="fill: #ffffff; stroke: #fe9f6d"/>
     <use xlink:href="#me5ef470a41" x="105.780922" y="59.290498" style="fill: #ffffff; stroke: #fe9f6d"/>
     <use xlink:href="#me5ef470a41" x="110.303656" y="59.783353" style="fill: #ffffff; stroke: #fe9f6d"/>
     <use xlink:href="#me5ef470a41" x="114.82639" y="60.31568" style="fill: #ffffff; stroke: #fe9f6d"/>
     <use xlink:href="#me5ef470a41" x="119.349125" y="62.559263" style="fill: #ffffff; stroke: #fe9f6d"/>
     <use xlink:href="#me5ef470a41" x="123.871859" y="62.991735" style="fill: #ffffff; stroke: #fe9f6d"/>
     <use xlink:href="#me5ef470a41" x="128.394593" y="67.775263" style="fill: #ffffff; stroke: #fe9f6d"/>
     <use xlink:href="#me5ef470a41" x="132.917328" y="68.337961" style="fill: #ffffff; stroke: #fe9f6d"/>
     <use xlink:href="#me5ef470a41" x="137.440062" y="70.34947" style="fill: #ffffff; stroke: #fe9f6d"/>
     <use xlink:href="#me5ef470a41" x="141.962796" y="71.134729" style="fill: #ffffff; stroke: #fe9f6d"/>
     <use xlink:href="#me5ef470a41" x="146.485531" y="71.527488" style="fill: #ffffff; stroke: #fe9f6d"/>
     <use xlink:href="#me5ef470a41" x="151.008265" y="71.665796" style="fill: #ffffff; stroke: #fe9f6d"/>
     <use xlink:href="#me5ef470a41" x="155.530999" y="71.726589" style="fill: #ffffff; stroke: #fe9f6d"/>
     <use xlink:href="#me5ef470a41" x="160.053734" y="71.797967" style="fill: #ffffff; stroke: #fe9f6d"/>
     <use xlink:href="#me5ef470a41" x="164.576468" y="71.811379" style="fill: #ffffff; stroke: #fe9f6d"/>
     <use xlink:href="#me5ef470a41" x="169.099202" y="71.953671" style="fill: #ffffff; stroke: #fe9f6d"/>
     <use xlink:href="#me5ef470a41" x="173.621937" y="72.030891" style="fill: #ffffff; stroke: #fe9f6d"/>
     <use xlink:href="#me5ef470a41" x="178.144671" y="72.409934" style="fill: #ffffff; stroke: #fe9f6d"/>
     <use xlink:href="#me5ef470a41" x="182.667406" y="72.529578" style="fill: #ffffff; stroke: #fe9f6d"/>
     <use xlink:href="#me5ef470a41" x="187.19014" y="73.114526" style="fill: #ffffff; stroke: #fe9f6d"/>
     <use xlink:href="#me5ef470a41" x="191.712874" y="73.193445" style="fill: #ffffff; stroke: #fe9f6d"/>
     <use xlink:href="#me5ef470a41" x="196.235609" y="73.348994" style="fill: #ffffff; stroke: #fe9f6d"/>
     <use xlink:href="#me5ef470a41" x="200.758343" y="73.583375" style="fill: #ffffff; stroke: #fe9f6d"/>
     <use xlink:href="#me5ef470a41" x="205.281077" y="73.890302" style="fill: #ffffff; stroke: #fe9f6d"/>
     <use xlink:href="#me5ef470a41" x="209.803812" y="74.023841" style="fill: #ffffff; stroke: #fe9f6d"/>
     <use xlink:href="#me5ef470a41" x="214.326546" y="74.237976" style="fill: #ffffff; stroke: #fe9f6d"/>
     <use xlink:href="#me5ef470a41" x="218.84928" y="74.367879" style="fill: #ffffff; stroke: #fe9f6d"/>
     <use xlink:href="#me5ef470a41" x="223.372015" y="74.715139" style="fill: #ffffff; stroke: #fe9f6d"/>
     <use xlink:href="#me5ef470a41" x="227.894749" y="74.978175" style="fill: #ffffff; stroke: #fe9f6d"/>
     <use xlink:href="#me5ef470a41" x="232.417483" y="75.379761" style="fill: #ffffff; stroke: #fe9f6d"/>
     <use xlink:href="#me5ef470a41" x="236.940218" y="75.592613" style="fill: #ffffff; stroke: #fe9f6d"/>
     <use xlink:href="#me5ef470a41" x="241.462952" y="76.046063" style="fill: #ffffff; stroke: #fe9f6d"/>
     <use xlink:href="#me5ef470a41" x="245.985686" y="76.607791" style="fill: #ffffff; stroke: #fe9f6d"/>
     <use xlink:href="#me5ef470a41" x="250.508421" y="77.101027" style="fill: #ffffff; stroke: #fe9f6d"/>
     <use xlink:href="#me5ef470a41" x="255.031155" y="77.54201" style="fill: #ffffff; stroke: #fe9f6d"/>
     <use xlink:href="#me5ef470a41" x="259.553889" y="77.905646" style="fill: #ffffff; stroke: #fe9f6d"/>
     <use xlink:href="#me5ef470a41" x="264.076624" y="78.370271" style="fill: #ffffff; stroke: #fe9f6d"/>
     <use xlink:href="#me5ef470a41" x="268.599358" y="79.285494" style="fill: #ffffff; stroke: #fe9f6d"/>
     <use xlink:href="#me5ef470a41" x="273.122092" y="79.699513" style="fill: #ffffff; stroke: #fe9f6d"/>
     <use xlink:href="#me5ef470a41" x="277.644827" y="80.173201" style="fill: #ffffff; stroke: #fe9f6d"/>
     <use xlink:href="#me5ef470a41" x="282.167561" y="81.992952" style="fill: #ffffff; stroke: #fe9f6d"/>
     <use xlink:href="#me5ef470a41" x="286.690296" y="82.670393" style="fill: #ffffff; stroke: #fe9f6d"/>
     <use xlink:href="#me5ef470a41" x="291.21303" y="82.721139" style="fill: #ffffff; stroke: #fe9f6d"/>
     <use xlink:href="#me5ef470a41" x="295.735764" y="85.776918" style="fill: #ffffff; stroke: #fe9f6d"/>
     <use xlink:href="#me5ef470a41" x="300.258499" y="86.721424" style="fill: #ffffff; stroke: #fe9f6d"/>
     <use xlink:href="#me5ef470a41" x="304.781233" y="87.943582" style="fill: #ffffff; stroke: #fe9f6d"/>
     <use xlink:href="#me5ef470a41" x="309.303967" y="89.020629" style="fill: #ffffff; stroke: #fe9f6d"/>
     <use xlink:href="#me5ef470a41" x="313.826702" y="90.221419" style="fill: #ffffff; stroke: #fe9f6d"/>
     <use xlink:href="#me5ef470a41" x="318.349436" y="92.193734" style="fill: #ffffff; stroke: #fe9f6d"/>
     <use xlink:href="#me5ef470a41" x="322.87217" y="94.383227" style="fill: #ffffff; stroke: #fe9f6d"/>
     <use xlink:href="#me5ef470a41" x="327.394905" y="95.453204" style="fill: #ffffff; stroke: #fe9f6d"/>
     <use xlink:href="#me5ef470a41" x="331.917639" y="96.868026" style="fill: #ffffff; stroke: #fe9f6d"/>
     <use xlink:href="#me5ef470a41" x="336.440373" y="97.534513" style="fill: #ffffff; stroke: #fe9f6d"/>
     <use xlink:href="#me5ef470a41" x="340.963108" y="100.431632" style="fill: #ffffff; stroke: #fe9f6d"/>
     <use xlink:href="#me5ef470a41" x="345.485842" y="100.548456" style="fill: #ffffff; stroke: #fe9f6d"/>
     <use xlink:href="#me5ef470a41" x="350.008576" y="103.876443" style="fill: #ffffff; stroke: #fe9f6d"/>
     <use xlink:href="#me5ef470a41" x="354.531311" y="105.404005" style="fill: #ffffff; stroke: #fe9f6d"/>
     <use xlink:href="#me5ef470a41" x="359.054045" y="109.219383" style="fill: #ffffff; stroke: #fe9f6d"/>
     <use xlink:href="#me5ef470a41" x="363.576779" y="110.505069" style="fill: #ffffff; stroke: #fe9f6d"/>
     <use xlink:href="#me5ef470a41" x="368.099514" y="112.457812" style="fill: #ffffff; stroke: #fe9f6d"/>
     <use xlink:href="#me5ef470a41" x="372.622248" y="115.648046" style="fill: #ffffff; stroke: #fe9f6d"/>
     <use xlink:href="#me5ef470a41" x="377.144982" y="124.287204" style="fill: #ffffff; stroke: #fe9f6d"/>
     <use xlink:href="#me5ef470a41" x="381.667717" y="131.260129" style="fill: #ffffff; stroke: #fe9f6d"/>
     <use xlink:href="#me5ef470a41" x="386.190451" y="132.151182" style="fill: #ffffff; stroke: #fe9f6d"/>
     <use xlink:href="#me5ef470a41" x="390.713186" y="134.99378" style="fill: #ffffff; stroke: #fe9f6d"/>
     <use xlink:href="#me5ef470a41" x="395.23592" y="149.449034" style="fill: #ffffff; stroke: #fe9f6d"/>
     <use xlink:href="#me5ef470a41" x="399.758654" y="167.516256" style="fill: #ffffff; stroke: #fe9f6d"/>
     <use xlink:href="#me5ef470a41" x="404.281389" y="179.063347" style="fill: #ffffff; stroke: #fe9f6d"/>
     <use xlink:href="#me5ef470a41" x="408.804123" y="184.29163" style="fill: #ffffff; stroke: #fe9f6d"/>
     <use xlink:href="#me5ef470a41" x="413.326857" y="193.249343" style="fill: #ffffff; stroke: #fe9f6d"/>
     <use xlink:href="#me5ef470a41" x="417.849592" y="214.149211" style="fill: #ffffff; stroke: #fe9f6d"/>
     <use xlink:href="#me5ef470a41" x="422.372326" y="248.214224" style="fill: #ffffff; stroke: #fe9f6d"/>
     <use xlink:href="#me5ef470a41" x="422.372326" y="248.214224" style="fill: #ffffff; stroke: #fe9f6d"/>
    </g>
   </g>
   <g id="patch_3">
    <path d="M 61.458125 287.646875 
L 61.458125 34.426875 
" style="fill: none; stroke: #000000; stroke-width: 1.25; stroke-linejoin: miter; stroke-linecap: square"/>
   </g>
   <g id="patch_4">
    <path d="M 439.558716 287.646875 
L 439.558716 34.426875 
" style="fill: none; stroke: #000000; stroke-width: 1.25; stroke-linejoin: miter; stroke-linecap: square"/>
   </g>
   <g id="patch_5">
    <path d="M 61.458125 287.646875 
L 439.558716 287.646875 
" style="fill: none; stroke: #000000; stroke-width: 1.25; stroke-linejoin: miter; stroke-linecap: square"/>
   </g>
   <g id="patch_6">
    <path d="M 61.458125 34.426875 
L 439.558716 34.426875 
" style="fill: none; stroke: #000000; stroke-width: 1.25; stroke-linejoin: miter; stroke-linecap: square"/>
   </g>
   <g id="text_21">
    <!-- Solving the RosenbrockProblem in 10 dimensions -->
    <g transform="translate(119.971155 16.226875) scale(0.13 -0.13)">
     <defs>
      <path id="TimesNewRomanPSMT-53" d="M 2934 4334 
L 2934 2869 
L 2819 2869 
Q 2763 3291 2617 3541 
Q 2472 3791 2203 3937 
Q 1934 4084 1647 4084 
Q 1322 4084 1109 3886 
Q 897 3688 897 3434 
Q 897 3241 1031 3081 
Q 1225 2847 1953 2456 
Q 2547 2138 2764 1967 
Q 2981 1797 3098 1565 
Q 3216 1334 3216 1081 
Q 3216 600 2842 251 
Q 2469 -97 1881 -97 
Q 1697 -97 1534 -69 
Q 1438 -53 1133 45 
Q 828 144 747 144 
Q 669 144 623 97 
Q 578 50 556 -97 
L 441 -97 
L 441 1356 
L 556 1356 
Q 638 900 775 673 
Q 913 447 1195 297 
Q 1478 147 1816 147 
Q 2206 147 2432 353 
Q 2659 559 2659 841 
Q 2659 997 2573 1156 
Q 2488 1316 2306 1453 
Q 2184 1547 1640 1851 
Q 1097 2156 867 2337 
Q 638 2519 519 2737 
Q 400 2956 400 3219 
Q 400 3675 750 4004 
Q 1100 4334 1641 4334 
Q 1978 4334 2356 4169 
Q 2531 4091 2603 4091 
Q 2684 4091 2736 4139 
Q 2788 4188 2819 4334 
L 2934 4334 
z
" transform="scale(0.015625)"/>
      <path id="TimesNewRomanPSMT-6c" d="M 1184 4444 
L 1184 647 
Q 1184 378 1223 290 
Q 1263 203 1344 158 
Q 1425 113 1647 113 
L 1647 0 
L 244 0 
L 244 113 
Q 441 113 512 153 
Q 584 194 625 287 
Q 666 381 666 647 
L 666 3247 
Q 666 3731 644 3842 
Q 622 3953 573 3993 
Q 525 4034 450 4034 
Q 369 4034 244 3984 
L 191 4094 
L 1044 4444 
L 1184 4444 
z
" transform="scale(0.015625)"/>
      <path id="TimesNewRomanPSMT-67" d="M 966 1044 
Q 703 1172 562 1401 
Q 422 1631 422 1909 
Q 422 2334 742 2640 
Q 1063 2947 1563 2947 
Q 1972 2947 2272 2747 
L 2878 2747 
Q 3013 2747 3034 2739 
Q 3056 2731 3066 2713 
Q 3084 2684 3084 2613 
Q 3084 2531 3069 2500 
Q 3059 2484 3036 2475 
Q 3013 2466 2878 2466 
L 2506 2466 
Q 2681 2241 2681 1891 
Q 2681 1491 2375 1206 
Q 2069 922 1553 922 
Q 1341 922 1119 984 
Q 981 866 932 777 
Q 884 688 884 625 
Q 884 572 936 522 
Q 988 472 1138 450 
Q 1225 438 1575 428 
Q 2219 413 2409 384 
Q 2700 344 2873 169 
Q 3047 -6 3047 -263 
Q 3047 -616 2716 -925 
Q 2228 -1381 1444 -1381 
Q 841 -1381 425 -1109 
Q 191 -953 191 -784 
Q 191 -709 225 -634 
Q 278 -519 444 -313 
Q 466 -284 763 25 
Q 600 122 533 198 
Q 466 275 466 372 
Q 466 481 555 628 
Q 644 775 966 1044 
z
M 1509 2797 
Q 1278 2797 1122 2612 
Q 966 2428 966 2047 
Q 966 1553 1178 1281 
Q 1341 1075 1591 1075 
Q 1828 1075 1981 1253 
Q 2134 1431 2134 1813 
Q 2134 2309 1919 2591 
Q 1759 2797 1509 2797 
z
M 934 0 
Q 788 -159 713 -296 
Q 638 -434 638 -550 
Q 638 -700 819 -813 
Q 1131 -1006 1722 -1006 
Q 2284 -1006 2551 -807 
Q 2819 -609 2819 -384 
Q 2819 -222 2659 -153 
Q 2497 -84 2016 -72 
Q 1313 -53 934 0 
z
" transform="scale(0.015625)"/>
      <path id="TimesNewRomanPSMT-68" d="M 1041 4444 
L 1041 2350 
Q 1388 2731 1591 2839 
Q 1794 2947 1997 2947 
Q 2241 2947 2416 2812 
Q 2591 2678 2675 2391 
Q 2734 2191 2734 1659 
L 2734 647 
Q 2734 375 2778 275 
Q 2809 200 2884 156 
Q 2959 113 3159 113 
L 3159 0 
L 1753 0 
L 1753 113 
L 1819 113 
Q 2019 113 2097 173 
Q 2175 234 2206 353 
Q 2216 403 2216 647 
L 2216 1659 
Q 2216 2128 2167 2275 
Q 2119 2422 2012 2495 
Q 1906 2569 1756 2569 
Q 1603 2569 1437 2487 
Q 1272 2406 1041 2159 
L 1041 647 
Q 1041 353 1073 281 
Q 1106 209 1195 161 
Q 1284 113 1503 113 
L 1503 0 
L 84 0 
L 84 113 
Q 275 113 384 172 
Q 447 203 484 290 
Q 522 378 522 647 
L 522 3238 
Q 522 3728 498 3840 
Q 475 3953 426 3993 
Q 378 4034 297 4034 
Q 231 4034 84 3984 
L 41 4094 
L 897 4444 
L 1041 4444 
z
" transform="scale(0.015625)"/>
      <path id="TimesNewRomanPSMT-52" d="M 4325 0 
L 3194 0 
L 1759 1981 
Q 1600 1975 1500 1975 
Q 1459 1975 1412 1976 
Q 1366 1978 1316 1981 
L 1316 750 
Q 1316 350 1403 253 
Q 1522 116 1759 116 
L 1925 116 
L 1925 0 
L 109 0 
L 109 116 
L 269 116 
Q 538 116 653 291 
Q 719 388 719 750 
L 719 3488 
Q 719 3888 631 3984 
Q 509 4122 269 4122 
L 109 4122 
L 109 4238 
L 1653 4238 
Q 2328 4238 2648 4139 
Q 2969 4041 3192 3777 
Q 3416 3513 3416 3147 
Q 3416 2756 3161 2468 
Q 2906 2181 2372 2063 
L 3247 847 
Q 3547 428 3762 290 
Q 3978 153 4325 116 
L 4325 0 
z
M 1316 2178 
Q 1375 2178 1419 2176 
Q 1463 2175 1491 2175 
Q 2097 2175 2405 2437 
Q 2713 2700 2713 3106 
Q 2713 3503 2464 3751 
Q 2216 4000 1806 4000 
Q 1625 4000 1316 3941 
L 1316 2178 
z
" transform="scale(0.015625)"/>
      <path id="TimesNewRomanPSMT-6b" d="M 1047 4444 
L 1047 1597 
L 1775 2259 
Q 2006 2472 2044 2528 
Q 2069 2566 2069 2603 
Q 2069 2666 2017 2711 
Q 1966 2756 1847 2763 
L 1847 2863 
L 3091 2863 
L 3091 2763 
Q 2834 2756 2664 2684 
Q 2494 2613 2291 2428 
L 1556 1750 
L 2291 822 
Q 2597 438 2703 334 
Q 2853 188 2966 144 
Q 3044 113 3238 113 
L 3238 0 
L 1847 0 
L 1847 113 
Q 1966 116 2008 148 
Q 2050 181 2050 241 
Q 2050 313 1925 472 
L 1047 1594 
L 1047 644 
Q 1047 366 1086 278 
Q 1125 191 1197 153 
Q 1269 116 1509 113 
L 1509 0 
L 53 0 
L 53 113 
Q 272 113 381 166 
Q 447 200 481 272 
Q 528 375 528 628 
L 528 3234 
Q 528 3731 506 3842 
Q 484 3953 434 3995 
Q 384 4038 303 4038 
Q 238 4038 106 3984 
L 53 4094 
L 903 4444 
L 1047 4444 
z
" transform="scale(0.015625)"/>
      <path id="TimesNewRomanPSMT-50" d="M 1313 1984 
L 1313 750 
Q 1313 350 1400 253 
Q 1519 116 1759 116 
L 1922 116 
L 1922 0 
L 106 0 
L 106 116 
L 266 116 
Q 534 116 650 291 
Q 713 388 713 750 
L 713 3488 
Q 713 3888 628 3984 
Q 506 4122 266 4122 
L 106 4122 
L 106 4238 
L 1659 4238 
Q 2228 4238 2556 4120 
Q 2884 4003 3109 3725 
Q 3334 3447 3334 3066 
Q 3334 2547 2992 2222 
Q 2650 1897 2025 1897 
Q 1872 1897 1694 1919 
Q 1516 1941 1313 1984 
z
M 1313 2163 
Q 1478 2131 1606 2115 
Q 1734 2100 1825 2100 
Q 2150 2100 2386 2351 
Q 2622 2603 2622 3003 
Q 2622 3278 2509 3514 
Q 2397 3750 2190 3867 
Q 1984 3984 1722 3984 
Q 1563 3984 1313 3925 
L 1313 2163 
z
" transform="scale(0.015625)"/>
      <path id="TimesNewRomanPSMT-64" d="M 2222 322 
Q 2013 103 1813 7 
Q 1613 -88 1381 -88 
Q 913 -88 563 304 
Q 213 697 213 1313 
Q 213 1928 600 2439 
Q 988 2950 1597 2950 
Q 1975 2950 2222 2709 
L 2222 3238 
Q 2222 3728 2198 3840 
Q 2175 3953 2125 3993 
Q 2075 4034 2000 4034 
Q 1919 4034 1784 3984 
L 1744 4094 
L 2597 4444 
L 2738 4444 
L 2738 1134 
Q 2738 631 2761 520 
Q 2784 409 2836 365 
Q 2888 322 2956 322 
Q 3041 322 3181 375 
L 3216 266 
L 2366 -88 
L 2222 -88 
L 2222 322 
z
M 2222 541 
L 2222 2016 
Q 2203 2228 2109 2403 
Q 2016 2578 1861 2667 
Q 1706 2756 1559 2756 
Q 1284 2756 1069 2509 
Q 784 2184 784 1559 
Q 784 928 1059 592 
Q 1334 256 1672 256 
Q 1956 256 2222 541 
z
" transform="scale(0.015625)"/>
     </defs>
     <use xlink:href="#TimesNewRomanPSMT-53"/>
     <use xlink:href="#TimesNewRomanPSMT-6f" x="55.615234"/>
     <use xlink:href="#TimesNewRomanPSMT-6c" x="105.615234"/>
     <use xlink:href="#TimesNewRomanPSMT-76" x="133.398438"/>
     <use xlink:href="#TimesNewRomanPSMT-69" x="183.398438"/>
     <use xlink:href="#TimesNewRomanPSMT-6e" x="211.181641"/>
     <use xlink:href="#TimesNewRomanPSMT-67" x="261.181641"/>
     <use xlink:href="#TimesNewRomanPSMT-20" x="311.181641"/>
     <use xlink:href="#TimesNewRomanPSMT-74" x="336.181641"/>
     <use xlink:href="#TimesNewRomanPSMT-68" x="363.964844"/>
     <use xlink:href="#TimesNewRomanPSMT-65" x="413.964844"/>
     <use xlink:href="#TimesNewRomanPSMT-20" x="458.349609"/>
     <use xlink:href="#TimesNewRomanPSMT-52" x="483.349609"/>
     <use xlink:href="#TimesNewRomanPSMT-6f" x="550.048828"/>
     <use xlink:href="#TimesNewRomanPSMT-73" x="600.048828"/>
     <use xlink:href="#TimesNewRomanPSMT-65" x="638.964844"/>
     <use xlink:href="#TimesNewRomanPSMT-6e" x="683.349609"/>
     <use xlink:href="#TimesNewRomanPSMT-62" x="733.349609"/>
     <use xlink:href="#TimesNewRomanPSMT-72" x="783.349609"/>
     <use xlink:href="#TimesNewRomanPSMT-6f" x="816.650391"/>
     <use xlink:href="#TimesNewRomanPSMT-63" x="866.650391"/>
     <use xlink:href="#TimesNewRomanPSMT-6b" x="911.035156"/>
     <use xlink:href="#TimesNewRomanPSMT-50" x="961.035156"/>
     <use xlink:href="#TimesNewRomanPSMT-72" x="1016.650391"/>
     <use xlink:href="#TimesNewRomanPSMT-6f" x="1049.951172"/>
     <use xlink:href="#TimesNewRomanPSMT-62" x="1099.951172"/>
     <use xlink:href="#TimesNewRomanPSMT-6c" x="1149.951172"/>
     <use xlink:href="#TimesNewRomanPSMT-65" x="1177.734375"/>
     <use xlink:href="#TimesNewRomanPSMT-6d" x="1222.119141"/>
     <use xlink:href="#TimesNewRomanPSMT-20" x="1299.902344"/>
     <use xlink:href="#TimesNewRomanPSMT-69" x="1324.902344"/>
     <use xlink:href="#TimesNewRomanPSMT-6e" x="1352.685547"/>
     <use xlink:href="#TimesNewRomanPSMT-20" x="1402.685547"/>
     <use xlink:href="#TimesNewRomanPSMT-31" x="1427.685547"/>
     <use xlink:href="#TimesNewRomanPSMT-30" x="1477.685547"/>
     <use xlink:href="#TimesNewRomanPSMT-20" x="1527.685547"/>
     <use xlink:href="#TimesNewRomanPSMT-64" x="1552.685547"/>
     <use xlink:href="#TimesNewRomanPSMT-69" x="1602.685547"/>
     <use xlink:href="#TimesNewRomanPSMT-6d" x="1630.46875"/>
     <use xlink:href="#TimesNewRomanPSMT-65" x="1708.251953"/>
     <use xlink:href="#TimesNewRomanPSMT-6e" x="1752.636719"/>
     <use xlink:href="#TimesNewRomanPSMT-73" x="1802.636719"/>
     <use xlink:href="#TimesNewRomanPSMT-69" x="1841.552734"/>
     <use xlink:href="#TimesNewRomanPSMT-6f" x="1869.335938"/>
     <use xlink:href="#TimesNewRomanPSMT-6e" x="1919.335938"/>
     <use xlink:href="#TimesNewRomanPSMT-73" x="1969.335938"/>
    </g>
   </g>
   <g id="legend_1">
    <g id="patch_7">
     <path d="M 362.116529 95.2275 
L 428.758716 95.2275 
Q 430.558716 95.2275 430.558716 93.4275 
L 430.558716 45.226875 
Q 430.558716 43.426875 428.758716 43.426875 
L 362.116529 43.426875 
Q 360.316529 43.426875 360.316529 45.226875 
L 360.316529 93.4275 
Q 360.316529 95.2275 362.116529 95.2275 
z
" style="fill: #ffffff; stroke: #000000; stroke-linejoin: miter"/>
    </g>
    <g id="line2d_107">
     <path d="M 365.716529 51.976875 
L 371.341529 51.976875 
L 376.966529 51.976875 
" style="fill: none; stroke: #51127c; stroke-linecap: square"/>
     <g>
      <use xlink:href="#me111f95378" x="371.341529" y="51.976875" style="fill: #ffffff; stroke: #51127c"/>
     </g>
    </g>
    <g id="text_22">
     <!-- trust-constr -->
     <g transform="translate(384.166529 55.126875) scale(0.09 -0.09)">
      <defs>
       <path id="TimesNewRomanPSMT-2d" d="M 259 1672 
L 1875 1672 
L 1875 1200 
L 259 1200 
L 259 1672 
z
" transform="scale(0.015625)"/>
      </defs>
      <use xlink:href="#TimesNewRomanPSMT-74"/>
      <use xlink:href="#TimesNewRomanPSMT-72" x="27.783203"/>
      <use xlink:href="#TimesNewRomanPSMT-75" x="61.083984"/>
      <use xlink:href="#TimesNewRomanPSMT-73" x="111.083984"/>
      <use xlink:href="#TimesNewRomanPSMT-74" x="150"/>
      <use xlink:href="#TimesNewRomanPSMT-2d" x="177.783203"/>
      <use xlink:href="#TimesNewRomanPSMT-63" x="211.083984"/>
      <use xlink:href="#TimesNewRomanPSMT-6f" x="255.46875"/>
      <use xlink:href="#TimesNewRomanPSMT-6e" x="305.46875"/>
      <use xlink:href="#TimesNewRomanPSMT-73" x="355.46875"/>
      <use xlink:href="#TimesNewRomanPSMT-74" x="394.384766"/>
      <use xlink:href="#TimesNewRomanPSMT-72" x="422.167969"/>
     </g>
    </g>
    <g id="line2d_108">
     <path d="M 365.716529 62.902031 
L 371.341529 62.902031 
L 376.966529 62.902031 
" style="fill: none; stroke: #992d80; stroke-linecap: square"/>
     <g>
      <use xlink:href="#m44efc9b613" x="371.341529" y="62.902031" style="fill: #ffffff; stroke: #992d80"/>
     </g>
    </g>
    <g id="text_23">
     <!-- slsqp -->
     <g transform="translate(384.166529 66.052031) scale(0.09 -0.09)">
      <defs>
       <path id="TimesNewRomanPSMT-71" d="M 2734 2947 
L 2734 -734 
Q 2734 -1009 2771 -1087 
Q 2809 -1166 2889 -1209 
Q 2969 -1253 3200 -1253 
L 3200 -1369 
L 1756 -1369 
L 1756 -1253 
L 1816 -1253 
Q 1991 -1253 2081 -1203 
Q 2144 -1169 2181 -1080 
Q 2219 -991 2219 -734 
L 2219 497 
Q 1934 159 1721 35 
Q 1509 -88 1281 -88 
Q 866 -88 539 290 
Q 213 669 213 1303 
Q 213 2031 644 2489 
Q 1075 2947 1684 2947 
Q 1863 2947 2013 2897 
Q 2163 2847 2281 2747 
Q 2463 2834 2628 2947 
L 2734 2947 
z
M 2219 694 
L 2219 2038 
Q 2219 2272 2158 2406 
Q 2097 2541 1940 2634 
Q 1784 2728 1588 2728 
Q 1238 2728 988 2431 
Q 738 2134 738 1531 
Q 738 953 992 653 
Q 1247 353 1606 353 
Q 1791 353 1934 433 
Q 2078 513 2219 694 
z
" transform="scale(0.015625)"/>
       <path id="TimesNewRomanPSMT-70" d="M -6 2578 
L 875 2934 
L 994 2934 
L 994 2266 
Q 1216 2644 1439 2795 
Q 1663 2947 1909 2947 
Q 2341 2947 2628 2609 
Q 2981 2197 2981 1534 
Q 2981 794 2556 309 
Q 2206 -88 1675 -88 
Q 1444 -88 1275 -22 
Q 1150 25 994 166 
L 994 -706 
Q 994 -1000 1030 -1079 
Q 1066 -1159 1155 -1206 
Q 1244 -1253 1478 -1253 
L 1478 -1369 
L -22 -1369 
L -22 -1253 
L 56 -1253 
Q 228 -1256 350 -1188 
Q 409 -1153 442 -1076 
Q 475 -1000 475 -688 
L 475 2019 
Q 475 2297 450 2372 
Q 425 2447 370 2484 
Q 316 2522 222 2522 
Q 147 2522 31 2478 
L -6 2578 
z
M 994 2081 
L 994 1013 
Q 994 666 1022 556 
Q 1066 375 1236 237 
Q 1406 100 1666 100 
Q 1978 100 2172 344 
Q 2425 663 2425 1241 
Q 2425 1897 2138 2250 
Q 1938 2494 1663 2494 
Q 1513 2494 1366 2419 
Q 1253 2363 994 2081 
z
" transform="scale(0.015625)"/>
      </defs>
      <use xlink:href="#TimesNewRomanPSMT-73"/>
      <use xlink:href="#TimesNewRomanPSMT-6c" x="38.916016"/>
      <use xlink:href="#TimesNewRomanPSMT-73" x="66.699219"/>
      <use xlink:href="#TimesNewRomanPSMT-71" x="105.615234"/>
      <use xlink:href="#TimesNewRomanPSMT-70" x="155.615234"/>
     </g>
    </g>
    <g id="line2d_109">
     <path d="M 365.716529 73.827187 
L 371.341529 73.827187 
L 376.966529 73.827187 
" style="fill: none; stroke: #e34e65; stroke-linecap: square"/>
     <g>
      <use xlink:href="#mc054dcda5d" x="371.341529" y="73.827187" style="fill: #ffffff; stroke: #e34e65"/>
     </g>
    </g>
    <g id="text_24">
     <!-- snopt -->
     <g transform="translate(384.166529 76.977187) scale(0.09 -0.09)">
      <use xlink:href="#TimesNewRomanPSMT-73"/>
      <use xlink:href="#TimesNewRomanPSMT-6e" x="38.916016"/>
      <use xlink:href="#TimesNewRomanPSMT-6f" x="88.916016"/>
      <use xlink:href="#TimesNewRomanPSMT-70" x="138.916016"/>
      <use xlink:href="#TimesNewRomanPSMT-74" x="188.916016"/>
     </g>
    </g>
    <g id="line2d_110">
     <path d="M 365.716529 84.752344 
L 371.341529 84.752344 
L 376.966529 84.752344 
" style="fill: none; stroke: #fe9f6d; stroke-linecap: square"/>
     <g>
      <use xlink:href="#me5ef470a41" x="371.341529" y="84.752344" style="fill: #ffffff; stroke: #fe9f6d"/>
     </g>
    </g>
    <g id="text_25">
     <!-- ipopt -->
     <g transform="translate(384.166529 87.902344) scale(0.09 -0.09)">
      <use xlink:href="#TimesNewRomanPSMT-69"/>
      <use xlink:href="#TimesNewRomanPSMT-70" x="27.783203"/>
      <use xlink:href="#TimesNewRomanPSMT-6f" x="77.783203"/>
      <use xlink:href="#TimesNewRomanPSMT-70" x="127.783203"/>
      <use xlink:href="#TimesNewRomanPSMT-74" x="177.783203"/>
     </g>
    </g>
   </g>
  </g>
 </g>
 <defs>
  <clipPath id="p22aa4ed5c2">
   <rect x="61.458125" y="34.426875" width="378.100591" height="253.22"/>
  </clipPath>
 </defs>
</svg>
