<?xml version="1.0" encoding="utf-8" standalone="no"?>
<!DOCTYPE svg PUBLIC "-//W3C//DTD SVG 1.1//EN"
  "http://www.w3.org/Graphics/SVG/1.1/DTD/svg11.dtd">
<svg xmlns:xlink="http://www.w3.org/1999/xlink" width="448.751588pt" height="334.053906pt" viewBox="0 0 448.751588 334.053906" xmlns="http://www.w3.org/2000/svg" version="1.1">
 <metadata>
  <rdf:RDF xmlns:dc="http://purl.org/dc/elements/1.1/" xmlns:cc="http://creativecommons.org/ns#" xmlns:rdf="http://www.w3.org/1999/02/22-rdf-syntax-ns#">
   <cc:Work>
    <dc:type rdf:resource="http://purl.org/dc/dcmitype/StillImage"/>
    <dc:date>2024-05-16T15:34:59.979784</dc:date>
    <dc:format>image/svg+xml</dc:format>
    <dc:creator>
     <cc:Agent>
      <dc:title>Matplotlib v3.8.0, https://matplotlib.org/</dc:title>
     </cc:Agent>
    </dc:creator>
   </cc:Work>
  </rdf:RDF>
 </metadata>
 <defs>
  <style type="text/css">*{stroke-linejoin: round; stroke-linecap: butt}</style>
 </defs>
 <g id="figure_1">
  <g id="patch_1">
   <path d="M 0 334.053906 
L 448.751588 334.053906 
L 448.751588 0 
L 0 0 
z
" style="fill: #ffffff"/>
  </g>
  <g id="axes_1">
   <g id="patch_2">
    <path d="M 61.458125 287.646875 
L 396.323931 287.646875 
L 396.323931 34.426875 
L 61.458125 34.426875 
z
" style="fill: #ffffff"/>
   </g>
   <g id="matplotlib.axis_1">
    <g id="xtick_1">
     <g id="line2d_1">
      <defs>
       <path id="mf9d40f8a91" d="M 0 0 
L 0 -6 
" style="stroke: #000000; stroke-width: 1.25"/>
      </defs>
      <g>
       <use xlink:href="#mf9d40f8a91" x="73.180178" y="287.646875" style="fill: #ffffff; stroke: #000000; stroke-width: 1.25"/>
      </g>
     </g>
     <g id="line2d_2">
      <defs>
       <path id="ma029893651" d="M 0 0 
L 0 6 
" style="stroke: #000000; stroke-width: 1.25"/>
      </defs>
      <g>
       <use xlink:href="#ma029893651" x="73.180178" y="34.426875" style="fill: #ffffff; stroke: #000000; stroke-width: 1.25"/>
      </g>
     </g>
     <g id="text_1">
      <!-- 0 -->
      <g transform="translate(70.180178 299.479375) scale(0.12 -0.12)">
       <defs>
        <path id="TimesNewRomanPSMT-30" d="M 231 2094 
Q 231 2819 450 3342 
Q 669 3866 1031 4122 
Q 1313 4325 1613 4325 
Q 2100 4325 2488 3828 
Q 2972 3213 2972 2159 
Q 2972 1422 2759 906 
Q 2547 391 2217 158 
Q 1888 -75 1581 -75 
Q 975 -75 572 641 
Q 231 1244 231 2094 
z
M 844 2016 
Q 844 1141 1059 588 
Q 1238 122 1591 122 
Q 1759 122 1940 273 
Q 2122 425 2216 781 
Q 2359 1319 2359 2297 
Q 2359 3022 2209 3506 
Q 2097 3866 1919 4016 
Q 1791 4119 1609 4119 
Q 1397 4119 1231 3928 
Q 1006 3669 925 3112 
Q 844 2556 844 2016 
z
" transform="scale(0.015625)"/>
       </defs>
       <use xlink:href="#TimesNewRomanPSMT-30"/>
      </g>
     </g>
    </g>
    <g id="xtick_2">
     <g id="line2d_3">
      <g>
       <use xlink:href="#mf9d40f8a91" x="143.162582" y="287.646875" style="fill: #ffffff; stroke: #000000; stroke-width: 1.25"/>
      </g>
     </g>
     <g id="line2d_4">
      <g>
       <use xlink:href="#ma029893651" x="143.162582" y="34.426875" style="fill: #ffffff; stroke: #000000; stroke-width: 1.25"/>
      </g>
     </g>
     <g id="text_2">
      <!-- 20 -->
      <g transform="translate(137.162582 299.479375) scale(0.12 -0.12)">
       <defs>
        <path id="TimesNewRomanPSMT-32" d="M 2934 816 
L 2638 0 
L 138 0 
L 138 116 
Q 1241 1122 1691 1759 
Q 2141 2397 2141 2925 
Q 2141 3328 1894 3587 
Q 1647 3847 1303 3847 
Q 991 3847 742 3664 
Q 494 3481 375 3128 
L 259 3128 
Q 338 3706 661 4015 
Q 984 4325 1469 4325 
Q 1984 4325 2329 3994 
Q 2675 3663 2675 3213 
Q 2675 2891 2525 2569 
Q 2294 2063 1775 1497 
Q 997 647 803 472 
L 1909 472 
Q 2247 472 2383 497 
Q 2519 522 2628 598 
Q 2738 675 2819 816 
L 2934 816 
z
" transform="scale(0.015625)"/>
       </defs>
       <use xlink:href="#TimesNewRomanPSMT-32"/>
       <use xlink:href="#TimesNewRomanPSMT-30" x="50"/>
      </g>
     </g>
    </g>
    <g id="xtick_3">
     <g id="line2d_5">
      <g>
       <use xlink:href="#mf9d40f8a91" x="213.144987" y="287.646875" style="fill: #ffffff; stroke: #000000; stroke-width: 1.25"/>
      </g>
     </g>
     <g id="line2d_6">
      <g>
       <use xlink:href="#ma029893651" x="213.144987" y="34.426875" style="fill: #ffffff; stroke: #000000; stroke-width: 1.25"/>
      </g>
     </g>
     <g id="text_3">
      <!-- 40 -->
      <g transform="translate(207.144987 299.479375) scale(0.12 -0.12)">
       <defs>
        <path id="TimesNewRomanPSMT-34" d="M 2978 1563 
L 2978 1119 
L 2409 1119 
L 2409 0 
L 1894 0 
L 1894 1119 
L 100 1119 
L 100 1519 
L 2066 4325 
L 2409 4325 
L 2409 1563 
L 2978 1563 
z
M 1894 1563 
L 1894 3666 
L 406 1563 
L 1894 1563 
z
" transform="scale(0.015625)"/>
       </defs>
       <use xlink:href="#TimesNewRomanPSMT-34"/>
       <use xlink:href="#TimesNewRomanPSMT-30" x="50"/>
      </g>
     </g>
    </g>
    <g id="xtick_4">
     <g id="line2d_7">
      <g>
       <use xlink:href="#mf9d40f8a91" x="283.127392" y="287.646875" style="fill: #ffffff; stroke: #000000; stroke-width: 1.25"/>
      </g>
     </g>
     <g id="line2d_8">
      <g>
       <use xlink:href="#ma029893651" x="283.127392" y="34.426875" style="fill: #ffffff; stroke: #000000; stroke-width: 1.25"/>
      </g>
     </g>
     <g id="text_4">
      <!-- 60 -->
      <g transform="translate(277.127392 299.479375) scale(0.12 -0.12)">
       <defs>
        <path id="TimesNewRomanPSMT-36" d="M 2869 4325 
L 2869 4209 
Q 2456 4169 2195 4045 
Q 1934 3922 1679 3669 
Q 1425 3416 1258 3105 
Q 1091 2794 978 2366 
Q 1428 2675 1881 2675 
Q 2316 2675 2634 2325 
Q 2953 1975 2953 1425 
Q 2953 894 2631 456 
Q 2244 -75 1606 -75 
Q 1172 -75 869 213 
Q 275 772 275 1663 
Q 275 2231 503 2743 
Q 731 3256 1154 3653 
Q 1578 4050 1965 4187 
Q 2353 4325 2688 4325 
L 2869 4325 
z
M 925 2138 
Q 869 1716 869 1456 
Q 869 1156 980 804 
Q 1091 453 1309 247 
Q 1469 100 1697 100 
Q 1969 100 2183 356 
Q 2397 613 2397 1088 
Q 2397 1622 2184 2012 
Q 1972 2403 1581 2403 
Q 1463 2403 1327 2353 
Q 1191 2303 925 2138 
z
" transform="scale(0.015625)"/>
       </defs>
       <use xlink:href="#TimesNewRomanPSMT-36"/>
       <use xlink:href="#TimesNewRomanPSMT-30" x="50"/>
      </g>
     </g>
    </g>
    <g id="xtick_5">
     <g id="line2d_9">
      <g>
       <use xlink:href="#mf9d40f8a91" x="353.109797" y="287.646875" style="fill: #ffffff; stroke: #000000; stroke-width: 1.25"/>
      </g>
     </g>
     <g id="line2d_10">
      <g>
       <use xlink:href="#ma029893651" x="353.109797" y="34.426875" style="fill: #ffffff; stroke: #000000; stroke-width: 1.25"/>
      </g>
     </g>
     <g id="text_5">
      <!-- 80 -->
      <g transform="translate(347.109797 299.479375) scale(0.12 -0.12)">
       <defs>
        <path id="TimesNewRomanPSMT-38" d="M 1228 2134 
Q 725 2547 579 2797 
Q 434 3047 434 3316 
Q 434 3728 753 4026 
Q 1072 4325 1600 4325 
Q 2113 4325 2425 4047 
Q 2738 3769 2738 3413 
Q 2738 3175 2569 2928 
Q 2400 2681 1866 2347 
Q 2416 1922 2594 1678 
Q 2831 1359 2831 1006 
Q 2831 559 2490 242 
Q 2150 -75 1597 -75 
Q 994 -75 656 303 
Q 388 606 388 966 
Q 388 1247 577 1523 
Q 766 1800 1228 2134 
z
M 1719 2469 
Q 2094 2806 2194 3001 
Q 2294 3197 2294 3444 
Q 2294 3772 2109 3958 
Q 1925 4144 1606 4144 
Q 1288 4144 1088 3959 
Q 888 3775 888 3528 
Q 888 3366 970 3203 
Q 1053 3041 1206 2894 
L 1719 2469 
z
M 1375 2016 
Q 1116 1797 991 1539 
Q 866 1281 866 981 
Q 866 578 1086 336 
Q 1306 94 1647 94 
Q 1984 94 2187 284 
Q 2391 475 2391 747 
Q 2391 972 2272 1150 
Q 2050 1481 1375 2016 
z
" transform="scale(0.015625)"/>
       </defs>
       <use xlink:href="#TimesNewRomanPSMT-38"/>
       <use xlink:href="#TimesNewRomanPSMT-30" x="50"/>
      </g>
     </g>
    </g>
    <g id="xtick_6">
     <g id="line2d_11">
      <defs>
       <path id="mcf2bebfe14" d="M 0 0 
L 0 -3 
" style="stroke: #000000; stroke-width: 0.75"/>
      </defs>
      <g>
       <use xlink:href="#mcf2bebfe14" x="90.675779" y="287.646875" style="fill: #ffffff; stroke: #000000; stroke-width: 0.75"/>
      </g>
     </g>
     <g id="line2d_12">
      <defs>
       <path id="m18ddc78111" d="M 0 0 
L 0 3 
" style="stroke: #000000; stroke-width: 0.75"/>
      </defs>
      <g>
       <use xlink:href="#m18ddc78111" x="90.675779" y="34.426875" style="fill: #ffffff; stroke: #000000; stroke-width: 0.75"/>
      </g>
     </g>
    </g>
    <g id="xtick_7">
     <g id="line2d_13">
      <g>
       <use xlink:href="#mcf2bebfe14" x="108.17138" y="287.646875" style="fill: #ffffff; stroke: #000000; stroke-width: 0.75"/>
      </g>
     </g>
     <g id="line2d_14">
      <g>
       <use xlink:href="#m18ddc78111" x="108.17138" y="34.426875" style="fill: #ffffff; stroke: #000000; stroke-width: 0.75"/>
      </g>
     </g>
    </g>
    <g id="xtick_8">
     <g id="line2d_15">
      <g>
       <use xlink:href="#mcf2bebfe14" x="125.666981" y="287.646875" style="fill: #ffffff; stroke: #000000; stroke-width: 0.75"/>
      </g>
     </g>
     <g id="line2d_16">
      <g>
       <use xlink:href="#m18ddc78111" x="125.666981" y="34.426875" style="fill: #ffffff; stroke: #000000; stroke-width: 0.75"/>
      </g>
     </g>
    </g>
    <g id="xtick_9">
     <g id="line2d_17">
      <g>
       <use xlink:href="#mcf2bebfe14" x="160.658184" y="287.646875" style="fill: #ffffff; stroke: #000000; stroke-width: 0.75"/>
      </g>
     </g>
     <g id="line2d_18">
      <g>
       <use xlink:href="#m18ddc78111" x="160.658184" y="34.426875" style="fill: #ffffff; stroke: #000000; stroke-width: 0.75"/>
      </g>
     </g>
    </g>
    <g id="xtick_10">
     <g id="line2d_19">
      <g>
       <use xlink:href="#mcf2bebfe14" x="178.153785" y="287.646875" style="fill: #ffffff; stroke: #000000; stroke-width: 0.75"/>
      </g>
     </g>
     <g id="line2d_20">
      <g>
       <use xlink:href="#m18ddc78111" x="178.153785" y="34.426875" style="fill: #ffffff; stroke: #000000; stroke-width: 0.75"/>
      </g>
     </g>
    </g>
    <g id="xtick_11">
     <g id="line2d_21">
      <g>
       <use xlink:href="#mcf2bebfe14" x="195.649386" y="287.646875" style="fill: #ffffff; stroke: #000000; stroke-width: 0.75"/>
      </g>
     </g>
     <g id="line2d_22">
      <g>
       <use xlink:href="#m18ddc78111" x="195.649386" y="34.426875" style="fill: #ffffff; stroke: #000000; stroke-width: 0.75"/>
      </g>
     </g>
    </g>
    <g id="xtick_12">
     <g id="line2d_23">
      <g>
       <use xlink:href="#mcf2bebfe14" x="230.640588" y="287.646875" style="fill: #ffffff; stroke: #000000; stroke-width: 0.75"/>
      </g>
     </g>
     <g id="line2d_24">
      <g>
       <use xlink:href="#m18ddc78111" x="230.640588" y="34.426875" style="fill: #ffffff; stroke: #000000; stroke-width: 0.75"/>
      </g>
     </g>
    </g>
    <g id="xtick_13">
     <g id="line2d_25">
      <g>
       <use xlink:href="#mcf2bebfe14" x="248.13619" y="287.646875" style="fill: #ffffff; stroke: #000000; stroke-width: 0.75"/>
      </g>
     </g>
     <g id="line2d_26">
      <g>
       <use xlink:href="#m18ddc78111" x="248.13619" y="34.426875" style="fill: #ffffff; stroke: #000000; stroke-width: 0.75"/>
      </g>
     </g>
    </g>
    <g id="xtick_14">
     <g id="line2d_27">
      <g>
       <use xlink:href="#mcf2bebfe14" x="265.631791" y="287.646875" style="fill: #ffffff; stroke: #000000; stroke-width: 0.75"/>
      </g>
     </g>
     <g id="line2d_28">
      <g>
       <use xlink:href="#m18ddc78111" x="265.631791" y="34.426875" style="fill: #ffffff; stroke: #000000; stroke-width: 0.75"/>
      </g>
     </g>
    </g>
    <g id="xtick_15">
     <g id="line2d_29">
      <g>
       <use xlink:href="#mcf2bebfe14" x="300.622993" y="287.646875" style="fill: #ffffff; stroke: #000000; stroke-width: 0.75"/>
      </g>
     </g>
     <g id="line2d_30">
      <g>
       <use xlink:href="#m18ddc78111" x="300.622993" y="34.426875" style="fill: #ffffff; stroke: #000000; stroke-width: 0.75"/>
      </g>
     </g>
    </g>
    <g id="xtick_16">
     <g id="line2d_31">
      <g>
       <use xlink:href="#mcf2bebfe14" x="318.118594" y="287.646875" style="fill: #ffffff; stroke: #000000; stroke-width: 0.75"/>
      </g>
     </g>
     <g id="line2d_32">
      <g>
       <use xlink:href="#m18ddc78111" x="318.118594" y="34.426875" style="fill: #ffffff; stroke: #000000; stroke-width: 0.75"/>
      </g>
     </g>
    </g>
    <g id="xtick_17">
     <g id="line2d_33">
      <g>
       <use xlink:href="#mcf2bebfe14" x="335.614195" y="287.646875" style="fill: #ffffff; stroke: #000000; stroke-width: 0.75"/>
      </g>
     </g>
     <g id="line2d_34">
      <g>
       <use xlink:href="#m18ddc78111" x="335.614195" y="34.426875" style="fill: #ffffff; stroke: #000000; stroke-width: 0.75"/>
      </g>
     </g>
    </g>
    <g id="xtick_18">
     <g id="line2d_35">
      <g>
       <use xlink:href="#mcf2bebfe14" x="370.605398" y="287.646875" style="fill: #ffffff; stroke: #000000; stroke-width: 0.75"/>
      </g>
     </g>
     <g id="line2d_36">
      <g>
       <use xlink:href="#m18ddc78111" x="370.605398" y="34.426875" style="fill: #ffffff; stroke: #000000; stroke-width: 0.75"/>
      </g>
     </g>
    </g>
    <g id="xtick_19">
     <g id="line2d_37">
      <g>
       <use xlink:href="#mcf2bebfe14" x="388.100999" y="287.646875" style="fill: #ffffff; stroke: #000000; stroke-width: 0.75"/>
      </g>
     </g>
     <g id="line2d_38">
      <g>
       <use xlink:href="#m18ddc78111" x="388.100999" y="34.426875" style="fill: #ffffff; stroke: #000000; stroke-width: 0.75"/>
      </g>
     </g>
    </g>
    <g id="text_6">
     <!-- Number of iterations -->
     <g transform="translate(174.738919 324.073125) scale(0.13 -0.13)">
      <defs>
       <path id="TimesNewRomanPSMT-4e" d="M -84 4238 
L 1066 4238 
L 3656 1059 
L 3656 3503 
Q 3656 3894 3569 3991 
Q 3453 4122 3203 4122 
L 3056 4122 
L 3056 4238 
L 4531 4238 
L 4531 4122 
L 4381 4122 
Q 4113 4122 4000 3959 
Q 3931 3859 3931 3503 
L 3931 -69 
L 3819 -69 
L 1025 3344 
L 1025 734 
Q 1025 344 1109 247 
Q 1228 116 1475 116 
L 1625 116 
L 1625 0 
L 150 0 
L 150 116 
L 297 116 
Q 569 116 681 278 
Q 750 378 750 734 
L 750 3681 
Q 566 3897 470 3965 
Q 375 4034 191 4094 
Q 100 4122 -84 4122 
L -84 4238 
z
" transform="scale(0.015625)"/>
       <path id="TimesNewRomanPSMT-75" d="M 2709 2863 
L 2709 1128 
Q 2709 631 2732 520 
Q 2756 409 2807 365 
Q 2859 322 2928 322 
Q 3025 322 3147 375 
L 3191 266 
L 2334 -88 
L 2194 -88 
L 2194 519 
Q 1825 119 1631 15 
Q 1438 -88 1222 -88 
Q 981 -88 804 51 
Q 628 191 559 409 
Q 491 628 491 1028 
L 491 2306 
Q 491 2509 447 2587 
Q 403 2666 317 2708 
Q 231 2750 6 2747 
L 6 2863 
L 1009 2863 
L 1009 947 
Q 1009 547 1148 422 
Q 1288 297 1484 297 
Q 1619 297 1789 381 
Q 1959 466 2194 703 
L 2194 2325 
Q 2194 2569 2105 2655 
Q 2016 2741 1734 2747 
L 1734 2863 
L 2709 2863 
z
" transform="scale(0.015625)"/>
       <path id="TimesNewRomanPSMT-6d" d="M 1050 2338 
Q 1363 2650 1419 2697 
Q 1559 2816 1721 2881 
Q 1884 2947 2044 2947 
Q 2313 2947 2506 2790 
Q 2700 2634 2766 2338 
Q 3088 2713 3309 2830 
Q 3531 2947 3766 2947 
Q 3994 2947 4170 2830 
Q 4347 2713 4450 2447 
Q 4519 2266 4519 1878 
L 4519 647 
Q 4519 378 4559 278 
Q 4591 209 4675 161 
Q 4759 113 4950 113 
L 4950 0 
L 3538 0 
L 3538 113 
L 3597 113 
Q 3781 113 3884 184 
Q 3956 234 3988 344 
Q 4000 397 4000 647 
L 4000 1878 
Q 4000 2228 3916 2372 
Q 3794 2572 3525 2572 
Q 3359 2572 3192 2489 
Q 3025 2406 2788 2181 
L 2781 2147 
L 2788 2013 
L 2788 647 
Q 2788 353 2820 281 
Q 2853 209 2943 161 
Q 3034 113 3253 113 
L 3253 0 
L 1806 0 
L 1806 113 
Q 2044 113 2133 169 
Q 2222 225 2256 338 
Q 2272 391 2272 647 
L 2272 1878 
Q 2272 2228 2169 2381 
Q 2031 2581 1784 2581 
Q 1616 2581 1450 2491 
Q 1191 2353 1050 2181 
L 1050 647 
Q 1050 366 1089 281 
Q 1128 197 1204 155 
Q 1281 113 1516 113 
L 1516 0 
L 100 0 
L 100 113 
Q 297 113 375 155 
Q 453 197 493 289 
Q 534 381 534 647 
L 534 1741 
Q 534 2213 506 2350 
Q 484 2453 437 2492 
Q 391 2531 309 2531 
Q 222 2531 100 2484 
L 53 2597 
L 916 2947 
L 1050 2947 
L 1050 2338 
z
" transform="scale(0.015625)"/>
       <path id="TimesNewRomanPSMT-62" d="M 984 2369 
Q 1400 2947 1881 2947 
Q 2322 2947 2650 2570 
Q 2978 2194 2978 1541 
Q 2978 778 2472 313 
Q 2038 -88 1503 -88 
Q 1253 -88 995 3 
Q 738 94 469 275 
L 469 3241 
Q 469 3728 445 3840 
Q 422 3953 372 3993 
Q 322 4034 247 4034 
Q 159 4034 28 3984 
L -16 4094 
L 844 4444 
L 984 4444 
L 984 2369 
z
M 984 2169 
L 984 456 
Q 1144 300 1314 220 
Q 1484 141 1663 141 
Q 1947 141 2192 453 
Q 2438 766 2438 1363 
Q 2438 1913 2192 2208 
Q 1947 2503 1634 2503 
Q 1469 2503 1303 2419 
Q 1178 2356 984 2169 
z
" transform="scale(0.015625)"/>
       <path id="TimesNewRomanPSMT-65" d="M 681 1784 
Q 678 1147 991 784 
Q 1303 422 1725 422 
Q 2006 422 2214 576 
Q 2422 731 2563 1106 
L 2659 1044 
Q 2594 616 2278 264 
Q 1963 -88 1488 -88 
Q 972 -88 605 314 
Q 238 716 238 1394 
Q 238 2128 614 2539 
Q 991 2950 1559 2950 
Q 2041 2950 2350 2633 
Q 2659 2316 2659 1784 
L 681 1784 
z
M 681 1966 
L 2006 1966 
Q 1991 2241 1941 2353 
Q 1863 2528 1708 2628 
Q 1553 2728 1384 2728 
Q 1125 2728 920 2526 
Q 716 2325 681 1966 
z
" transform="scale(0.015625)"/>
       <path id="TimesNewRomanPSMT-72" d="M 1038 2947 
L 1038 2303 
Q 1397 2947 1775 2947 
Q 1947 2947 2059 2842 
Q 2172 2738 2172 2600 
Q 2172 2478 2090 2393 
Q 2009 2309 1897 2309 
Q 1788 2309 1652 2417 
Q 1516 2525 1450 2525 
Q 1394 2525 1328 2463 
Q 1188 2334 1038 2041 
L 1038 669 
Q 1038 431 1097 309 
Q 1138 225 1241 169 
Q 1344 113 1538 113 
L 1538 0 
L 72 0 
L 72 113 
Q 291 113 397 181 
Q 475 231 506 341 
Q 522 394 522 644 
L 522 1753 
Q 522 2253 501 2348 
Q 481 2444 426 2487 
Q 372 2531 291 2531 
Q 194 2531 72 2484 
L 41 2597 
L 906 2947 
L 1038 2947 
z
" transform="scale(0.015625)"/>
       <path id="TimesNewRomanPSMT-20" transform="scale(0.015625)"/>
       <path id="TimesNewRomanPSMT-6f" d="M 1600 2947 
Q 2250 2947 2644 2453 
Q 2978 2031 2978 1484 
Q 2978 1100 2793 706 
Q 2609 313 2286 112 
Q 1963 -88 1566 -88 
Q 919 -88 538 428 
Q 216 863 216 1403 
Q 216 1797 411 2186 
Q 606 2575 925 2761 
Q 1244 2947 1600 2947 
z
M 1503 2744 
Q 1338 2744 1170 2645 
Q 1003 2547 900 2300 
Q 797 2053 797 1666 
Q 797 1041 1045 587 
Q 1294 134 1700 134 
Q 2003 134 2200 384 
Q 2397 634 2397 1244 
Q 2397 2006 2069 2444 
Q 1847 2744 1503 2744 
z
" transform="scale(0.015625)"/>
       <path id="TimesNewRomanPSMT-66" d="M 1319 2638 
L 1319 756 
Q 1319 356 1406 250 
Q 1522 113 1716 113 
L 1975 113 
L 1975 0 
L 266 0 
L 266 113 
L 394 113 
Q 519 113 622 175 
Q 725 238 764 344 
Q 803 450 803 756 
L 803 2638 
L 247 2638 
L 247 2863 
L 803 2863 
L 803 3050 
Q 803 3478 940 3775 
Q 1078 4072 1361 4255 
Q 1644 4438 1997 4438 
Q 2325 4438 2600 4225 
Q 2781 4084 2781 3909 
Q 2781 3816 2700 3733 
Q 2619 3650 2525 3650 
Q 2453 3650 2373 3701 
Q 2294 3753 2178 3923 
Q 2063 4094 1966 4153 
Q 1869 4213 1750 4213 
Q 1606 4213 1506 4136 
Q 1406 4059 1362 3898 
Q 1319 3738 1319 3069 
L 1319 2863 
L 2056 2863 
L 2056 2638 
L 1319 2638 
z
" transform="scale(0.015625)"/>
       <path id="TimesNewRomanPSMT-69" d="M 928 4444 
Q 1059 4444 1151 4351 
Q 1244 4259 1244 4128 
Q 1244 3997 1151 3903 
Q 1059 3809 928 3809 
Q 797 3809 703 3903 
Q 609 3997 609 4128 
Q 609 4259 701 4351 
Q 794 4444 928 4444 
z
M 1188 2947 
L 1188 647 
Q 1188 378 1227 289 
Q 1266 200 1342 156 
Q 1419 113 1622 113 
L 1622 0 
L 231 0 
L 231 113 
Q 441 113 512 153 
Q 584 194 626 287 
Q 669 381 669 647 
L 669 1750 
Q 669 2216 641 2353 
Q 619 2453 572 2492 
Q 525 2531 444 2531 
Q 356 2531 231 2484 
L 188 2597 
L 1050 2947 
L 1188 2947 
z
" transform="scale(0.015625)"/>
       <path id="TimesNewRomanPSMT-74" d="M 1031 3803 
L 1031 2863 
L 1700 2863 
L 1700 2644 
L 1031 2644 
L 1031 788 
Q 1031 509 1111 412 
Q 1191 316 1316 316 
Q 1419 316 1516 380 
Q 1613 444 1666 569 
L 1788 569 
Q 1678 263 1478 108 
Q 1278 -47 1066 -47 
Q 922 -47 784 33 
Q 647 113 581 261 
Q 516 409 516 719 
L 516 2644 
L 63 2644 
L 63 2747 
Q 234 2816 414 2980 
Q 594 3144 734 3369 
Q 806 3488 934 3803 
L 1031 3803 
z
" transform="scale(0.015625)"/>
       <path id="TimesNewRomanPSMT-61" d="M 1822 413 
Q 1381 72 1269 19 
Q 1100 -59 909 -59 
Q 613 -59 420 144 
Q 228 347 228 678 
Q 228 888 322 1041 
Q 450 1253 767 1440 
Q 1084 1628 1822 1897 
L 1822 2009 
Q 1822 2438 1686 2597 
Q 1550 2756 1291 2756 
Q 1094 2756 978 2650 
Q 859 2544 859 2406 
L 866 2225 
Q 866 2081 792 2003 
Q 719 1925 600 1925 
Q 484 1925 411 2006 
Q 338 2088 338 2228 
Q 338 2497 613 2722 
Q 888 2947 1384 2947 
Q 1766 2947 2009 2819 
Q 2194 2722 2281 2516 
Q 2338 2381 2338 1966 
L 2338 994 
Q 2338 584 2353 492 
Q 2369 400 2405 369 
Q 2441 338 2488 338 
Q 2538 338 2575 359 
Q 2641 400 2828 588 
L 2828 413 
Q 2478 -56 2159 -56 
Q 2006 -56 1915 50 
Q 1825 156 1822 413 
z
M 1822 616 
L 1822 1706 
Q 1350 1519 1213 1441 
Q 966 1303 859 1153 
Q 753 1003 753 825 
Q 753 600 887 451 
Q 1022 303 1197 303 
Q 1434 303 1822 616 
z
" transform="scale(0.015625)"/>
       <path id="TimesNewRomanPSMT-6e" d="M 1034 2341 
Q 1538 2947 1994 2947 
Q 2228 2947 2397 2830 
Q 2566 2713 2666 2444 
Q 2734 2256 2734 1869 
L 2734 647 
Q 2734 375 2778 278 
Q 2813 200 2889 156 
Q 2966 113 3172 113 
L 3172 0 
L 1756 0 
L 1756 113 
L 1816 113 
Q 2016 113 2095 173 
Q 2175 234 2206 353 
Q 2219 400 2219 647 
L 2219 1819 
Q 2219 2209 2117 2386 
Q 2016 2563 1775 2563 
Q 1403 2563 1034 2156 
L 1034 647 
Q 1034 356 1069 288 
Q 1113 197 1189 155 
Q 1266 113 1500 113 
L 1500 0 
L 84 0 
L 84 113 
L 147 113 
Q 366 113 442 223 
Q 519 334 519 647 
L 519 1709 
Q 519 2225 495 2337 
Q 472 2450 423 2490 
Q 375 2531 294 2531 
Q 206 2531 84 2484 
L 38 2597 
L 900 2947 
L 1034 2947 
L 1034 2341 
z
" transform="scale(0.015625)"/>
       <path id="TimesNewRomanPSMT-73" d="M 2050 2947 
L 2050 1972 
L 1947 1972 
Q 1828 2431 1642 2597 
Q 1456 2763 1169 2763 
Q 950 2763 815 2647 
Q 681 2531 681 2391 
Q 681 2216 781 2091 
Q 878 1963 1175 1819 
L 1631 1597 
Q 2266 1288 2266 781 
Q 2266 391 1970 151 
Q 1675 -88 1309 -88 
Q 1047 -88 709 6 
Q 606 38 541 38 
Q 469 38 428 -44 
L 325 -44 
L 325 978 
L 428 978 
Q 516 541 762 319 
Q 1009 97 1316 97 
Q 1531 97 1667 223 
Q 1803 350 1803 528 
Q 1803 744 1651 891 
Q 1500 1038 1047 1263 
Q 594 1488 453 1669 
Q 313 1847 313 2119 
Q 313 2472 555 2709 
Q 797 2947 1181 2947 
Q 1350 2947 1591 2875 
Q 1750 2828 1803 2828 
Q 1853 2828 1881 2850 
Q 1909 2872 1947 2947 
L 2050 2947 
z
" transform="scale(0.015625)"/>
      </defs>
      <use xlink:href="#TimesNewRomanPSMT-4e"/>
      <use xlink:href="#TimesNewRomanPSMT-75" x="72.216797"/>
      <use xlink:href="#TimesNewRomanPSMT-6d" x="122.216797"/>
      <use xlink:href="#TimesNewRomanPSMT-62" x="200"/>
      <use xlink:href="#TimesNewRomanPSMT-65" x="250"/>
      <use xlink:href="#TimesNewRomanPSMT-72" x="294.384766"/>
      <use xlink:href="#TimesNewRomanPSMT-20" x="327.685547"/>
      <use xlink:href="#TimesNewRomanPSMT-6f" x="352.685547"/>
      <use xlink:href="#TimesNewRomanPSMT-66" x="402.685547"/>
      <use xlink:href="#TimesNewRomanPSMT-20" x="435.986328"/>
      <use xlink:href="#TimesNewRomanPSMT-69" x="460.986328"/>
      <use xlink:href="#TimesNewRomanPSMT-74" x="488.769531"/>
      <use xlink:href="#TimesNewRomanPSMT-65" x="516.552734"/>
      <use xlink:href="#TimesNewRomanPSMT-72" x="560.9375"/>
      <use xlink:href="#TimesNewRomanPSMT-61" x="594.238281"/>
      <use xlink:href="#TimesNewRomanPSMT-74" x="638.623047"/>
      <use xlink:href="#TimesNewRomanPSMT-69" x="666.40625"/>
      <use xlink:href="#TimesNewRomanPSMT-6f" x="694.189453"/>
      <use xlink:href="#TimesNewRomanPSMT-6e" x="744.189453"/>
      <use xlink:href="#TimesNewRomanPSMT-73" x="794.189453"/>
     </g>
    </g>
   </g>
   <g id="matplotlib.axis_2">
    <g id="ytick_1">
     <g id="line2d_39">
      <defs>
       <path id="m9e3b245c78" d="M 0 0 
L 6 0 
" style="stroke: #000000; stroke-width: 1.25"/>
      </defs>
      <g>
       <use xlink:href="#m9e3b245c78" x="61.458125" y="255.453375" style="fill: #ffffff; stroke: #000000; stroke-width: 1.25"/>
      </g>
     </g>
     <g id="text_7">
      <!-- $\mathdefault{10^{-14}}$ -->
      <g transform="translate(32.038125 260.769938) scale(0.12 -0.12)">
       <defs>
        <path id="TimesNewRomanPSMT-31" d="M 750 3822 
L 1781 4325 
L 1884 4325 
L 1884 747 
Q 1884 391 1914 303 
Q 1944 216 2037 169 
Q 2131 122 2419 116 
L 2419 0 
L 825 0 
L 825 116 
Q 1125 122 1212 167 
Q 1300 213 1334 289 
Q 1369 366 1369 747 
L 1369 3034 
Q 1369 3497 1338 3628 
Q 1316 3728 1258 3775 
Q 1200 3822 1119 3822 
Q 1003 3822 797 3725 
L 750 3822 
z
" transform="scale(0.015625)"/>
        <path id="TimesNewRomanPSMT-2212" d="M 3484 2000 
L 116 2000 
L 116 2256 
L 3484 2256 
L 3484 2000 
z
" transform="scale(0.015625)"/>
       </defs>
       <use xlink:href="#TimesNewRomanPSMT-31" transform="translate(0 0.582813)"/>
       <use xlink:href="#TimesNewRomanPSMT-30" transform="translate(50 0.582813)"/>
       <use xlink:href="#TimesNewRomanPSMT-2212" transform="translate(101.502813 60.695312) scale(0.7)"/>
       <use xlink:href="#TimesNewRomanPSMT-31" transform="translate(140.980352 60.695312) scale(0.7)"/>
       <use xlink:href="#TimesNewRomanPSMT-34" transform="translate(175.980352 60.695312) scale(0.7)"/>
      </g>
     </g>
    </g>
    <g id="ytick_2">
     <g id="line2d_40">
      <g>
       <use xlink:href="#m9e3b245c78" x="61.458125" y="218.546746" style="fill: #ffffff; stroke: #000000; stroke-width: 1.25"/>
      </g>
     </g>
     <g id="text_8">
      <!-- $\mathdefault{10^{-11}}$ -->
      <g transform="translate(32.038125 223.863308) scale(0.12 -0.12)">
       <use xlink:href="#TimesNewRomanPSMT-31" transform="translate(0 0.582813)"/>
       <use xlink:href="#TimesNewRomanPSMT-30" transform="translate(50 0.582813)"/>
       <use xlink:href="#TimesNewRomanPSMT-2212" transform="translate(101.502813 60.695312) scale(0.7)"/>
       <use xlink:href="#TimesNewRomanPSMT-31" transform="translate(140.980352 60.695312) scale(0.7)"/>
       <use xlink:href="#TimesNewRomanPSMT-31" transform="translate(175.980352 60.695312) scale(0.7)"/>
      </g>
     </g>
    </g>
    <g id="ytick_3">
     <g id="line2d_41">
      <g>
       <use xlink:href="#m9e3b245c78" x="61.458125" y="181.640116" style="fill: #ffffff; stroke: #000000; stroke-width: 1.25"/>
      </g>
     </g>
     <g id="text_9">
      <!-- $\mathdefault{10^{-8}}$ -->
      <g transform="translate(36.238125 186.956679) scale(0.12 -0.12)">
       <use xlink:href="#TimesNewRomanPSMT-31" transform="translate(0 0.582813)"/>
       <use xlink:href="#TimesNewRomanPSMT-30" transform="translate(50 0.582813)"/>
       <use xlink:href="#TimesNewRomanPSMT-2212" transform="translate(101.502813 60.695312) scale(0.7)"/>
       <use xlink:href="#TimesNewRomanPSMT-38" transform="translate(140.980352 60.695312) scale(0.7)"/>
      </g>
     </g>
    </g>
    <g id="ytick_4">
     <g id="line2d_42">
      <g>
       <use xlink:href="#m9e3b245c78" x="61.458125" y="144.733487" style="fill: #ffffff; stroke: #000000; stroke-width: 1.25"/>
      </g>
     </g>
     <g id="text_10">
      <!-- $\mathdefault{10^{-5}}$ -->
      <g transform="translate(36.238125 149.990049) scale(0.12 -0.12)">
       <defs>
        <path id="TimesNewRomanPSMT-35" d="M 2778 4238 
L 2534 3706 
L 1259 3706 
L 981 3138 
Q 1809 3016 2294 2522 
Q 2709 2097 2709 1522 
Q 2709 1188 2573 903 
Q 2438 619 2231 419 
Q 2025 219 1772 97 
Q 1413 -75 1034 -75 
Q 653 -75 479 54 
Q 306 184 306 341 
Q 306 428 378 495 
Q 450 563 559 563 
Q 641 563 702 538 
Q 763 513 909 409 
Q 1144 247 1384 247 
Q 1750 247 2026 523 
Q 2303 800 2303 1197 
Q 2303 1581 2056 1914 
Q 1809 2247 1375 2428 
Q 1034 2569 447 2591 
L 1259 4238 
L 2778 4238 
z
" transform="scale(0.015625)"/>
       </defs>
       <use xlink:href="#TimesNewRomanPSMT-31" transform="translate(0 0.534375)"/>
       <use xlink:href="#TimesNewRomanPSMT-30" transform="translate(50 0.534375)"/>
       <use xlink:href="#TimesNewRomanPSMT-2212" transform="translate(101.502813 60.646875) scale(0.7)"/>
       <use xlink:href="#TimesNewRomanPSMT-35" transform="translate(140.980352 60.646875) scale(0.7)"/>
      </g>
     </g>
    </g>
    <g id="ytick_5">
     <g id="line2d_43">
      <g>
       <use xlink:href="#m9e3b245c78" x="61.458125" y="107.826857" style="fill: #ffffff; stroke: #000000; stroke-width: 1.25"/>
      </g>
     </g>
     <g id="text_11">
      <!-- $\mathdefault{10^{-2}}$ -->
      <g transform="translate(36.238125 113.14342) scale(0.12 -0.12)">
       <use xlink:href="#TimesNewRomanPSMT-31" transform="translate(0 0.582813)"/>
       <use xlink:href="#TimesNewRomanPSMT-30" transform="translate(50 0.582813)"/>
       <use xlink:href="#TimesNewRomanPSMT-2212" transform="translate(101.502813 60.695312) scale(0.7)"/>
       <use xlink:href="#TimesNewRomanPSMT-32" transform="translate(140.980352 60.695312) scale(0.7)"/>
      </g>
     </g>
    </g>
    <g id="ytick_6">
     <g id="line2d_44">
      <g>
       <use xlink:href="#m9e3b245c78" x="61.458125" y="70.920228" style="fill: #ffffff; stroke: #000000; stroke-width: 1.25"/>
      </g>
     </g>
     <g id="text_12">
      <!-- $\mathdefault{10^{1}}$ -->
      <g transform="translate(41.038125 76.23679) scale(0.12 -0.12)">
       <use xlink:href="#TimesNewRomanPSMT-31" transform="translate(0 0.582813)"/>
       <use xlink:href="#TimesNewRomanPSMT-30" transform="translate(50 0.582813)"/>
       <use xlink:href="#TimesNewRomanPSMT-31" transform="translate(101.502813 60.695312) scale(0.7)"/>
      </g>
     </g>
    </g>
    <g id="text_13">
     <!-- Objective function -->
     <g transform="translate(16.232969 209.590859) rotate(-90) scale(0.13 -0.13)">
      <defs>
       <path id="TimesNewRomanPSMT-4f" d="M 2341 4334 
Q 3166 4334 3770 3707 
Q 4375 3081 4375 2144 
Q 4375 1178 3765 540 
Q 3156 -97 2291 -97 
Q 1416 -97 820 525 
Q 225 1147 225 2134 
Q 225 3144 913 3781 
Q 1509 4334 2341 4334 
z
M 2281 4106 
Q 1713 4106 1369 3684 
Q 941 3159 941 2147 
Q 941 1109 1384 550 
Q 1725 125 2284 125 
Q 2881 125 3270 590 
Q 3659 1056 3659 2059 
Q 3659 3147 3231 3681 
Q 2888 4106 2281 4106 
z
" transform="scale(0.015625)"/>
       <path id="TimesNewRomanPSMT-6a" d="M 925 4447 
Q 1059 4447 1153 4353 
Q 1247 4259 1247 4125 
Q 1247 3994 1153 3900 
Q 1059 3806 925 3806 
Q 794 3806 700 3900 
Q 606 3994 606 4125 
Q 606 4259 700 4353 
Q 794 4447 925 4447 
z
M 1194 2947 
L 1194 66 
Q 1194 -669 881 -1025 
Q 569 -1381 69 -1381 
Q -216 -1381 -353 -1278 
Q -491 -1175 -491 -1066 
Q -491 -956 -414 -878 
Q -338 -800 -234 -800 
Q -153 -800 -69 -841 
Q -16 -863 136 -998 
Q 288 -1134 391 -1134 
Q 466 -1134 537 -1076 
Q 609 -1019 643 -883 
Q 678 -747 678 -294 
L 678 1744 
Q 678 2216 650 2350 
Q 628 2453 581 2492 
Q 534 2531 453 2531 
Q 366 2531 241 2484 
L 197 2597 
L 1059 2947 
L 1194 2947 
z
" transform="scale(0.015625)"/>
       <path id="TimesNewRomanPSMT-63" d="M 2631 1088 
Q 2516 522 2178 217 
Q 1841 -88 1431 -88 
Q 944 -88 581 321 
Q 219 731 219 1428 
Q 219 2103 620 2525 
Q 1022 2947 1584 2947 
Q 2006 2947 2278 2723 
Q 2550 2500 2550 2259 
Q 2550 2141 2473 2067 
Q 2397 1994 2259 1994 
Q 2075 1994 1981 2113 
Q 1928 2178 1911 2362 
Q 1894 2547 1784 2644 
Q 1675 2738 1481 2738 
Q 1169 2738 978 2506 
Q 725 2200 725 1697 
Q 725 1184 976 792 
Q 1228 400 1656 400 
Q 1963 400 2206 609 
Q 2378 753 2541 1131 
L 2631 1088 
z
" transform="scale(0.015625)"/>
       <path id="TimesNewRomanPSMT-76" d="M 53 2863 
L 1400 2863 
L 1400 2747 
L 1313 2747 
Q 1191 2747 1127 2687 
Q 1063 2628 1063 2528 
Q 1063 2419 1128 2269 
L 1794 688 
L 2463 2328 
Q 2534 2503 2534 2594 
Q 2534 2638 2509 2666 
Q 2475 2713 2422 2730 
Q 2369 2747 2206 2747 
L 2206 2863 
L 3141 2863 
L 3141 2747 
Q 2978 2734 2916 2681 
Q 2806 2588 2719 2369 
L 1703 -88 
L 1575 -88 
L 553 2328 
Q 484 2497 421 2570 
Q 359 2644 263 2694 
Q 209 2722 53 2747 
L 53 2863 
z
" transform="scale(0.015625)"/>
      </defs>
      <use xlink:href="#TimesNewRomanPSMT-4f"/>
      <use xlink:href="#TimesNewRomanPSMT-62" x="72.216797"/>
      <use xlink:href="#TimesNewRomanPSMT-6a" x="122.216797"/>
      <use xlink:href="#TimesNewRomanPSMT-65" x="150"/>
      <use xlink:href="#TimesNewRomanPSMT-63" x="194.384766"/>
      <use xlink:href="#TimesNewRomanPSMT-74" x="238.769531"/>
      <use xlink:href="#TimesNewRomanPSMT-69" x="266.552734"/>
      <use xlink:href="#TimesNewRomanPSMT-76" x="294.335938"/>
      <use xlink:href="#TimesNewRomanPSMT-65" x="344.335938"/>
      <use xlink:href="#TimesNewRomanPSMT-20" x="388.720703"/>
      <use xlink:href="#TimesNewRomanPSMT-66" x="413.720703"/>
      <use xlink:href="#TimesNewRomanPSMT-75" x="447.021484"/>
      <use xlink:href="#TimesNewRomanPSMT-6e" x="497.021484"/>
      <use xlink:href="#TimesNewRomanPSMT-63" x="547.021484"/>
      <use xlink:href="#TimesNewRomanPSMT-74" x="591.40625"/>
      <use xlink:href="#TimesNewRomanPSMT-69" x="619.189453"/>
      <use xlink:href="#TimesNewRomanPSMT-6f" x="646.972656"/>
      <use xlink:href="#TimesNewRomanPSMT-6e" x="696.972656"/>
     </g>
    </g>
   </g>
   <g id="line2d_45">
    <path d="M 76.679298 45.936875 
L 80.178418 57.178617 
L 83.677538 70.731518 
L 87.176659 85.096221 
L 90.675779 88.702728 
L 94.174899 92.599627 
L 97.674019 95.17232 
L 101.17314 99.594254 
L 104.67226 105.163022 
L 108.17138 113.394648 
L 111.6705 125.895846 
L 115.169621 149.578477 
L 118.668741 196.074899 
L 122.167861 243.992288 
L 125.666981 276.136875 
L 125.666981 276.136875 
" clip-path="url(#p62b6a5063b)" style="fill: none; stroke: #000000; stroke-width: 1.25; stroke-linecap: square"/>
    <defs>
     <path id="m0e8088e136" d="M 0 1.75 
C 0.464105 1.75 0.909265 1.565609 1.237437 1.237437 
C 1.565609 0.909265 1.75 0.464105 1.75 0 
C 1.75 -0.464105 1.565609 -0.909265 1.237437 -1.237437 
C 0.909265 -1.565609 0.464105 -1.75 0 -1.75 
C -0.464105 -1.75 -0.909265 -1.565609 -1.237437 -1.237437 
C -1.565609 -0.909265 -1.75 -0.464105 -1.75 0 
C -1.75 0.464105 -1.565609 0.909265 -1.237437 1.237437 
C -0.909265 1.565609 -0.464105 1.75 0 1.75 
z
" style="stroke: #000000; stroke-width: 1.25"/>
    </defs>
    <g clip-path="url(#p62b6a5063b)">
     <use xlink:href="#m0e8088e136" x="76.679298" y="45.936875" style="fill: #ffffff; stroke: #000000; stroke-width: 1.25"/>
     <use xlink:href="#m0e8088e136" x="80.178418" y="57.178617" style="fill: #ffffff; stroke: #000000; stroke-width: 1.25"/>
     <use xlink:href="#m0e8088e136" x="83.677538" y="70.731518" style="fill: #ffffff; stroke: #000000; stroke-width: 1.25"/>
     <use xlink:href="#m0e8088e136" x="87.176659" y="85.096221" style="fill: #ffffff; stroke: #000000; stroke-width: 1.25"/>
     <use xlink:href="#m0e8088e136" x="90.675779" y="88.702728" style="fill: #ffffff; stroke: #000000; stroke-width: 1.25"/>
     <use xlink:href="#m0e8088e136" x="94.174899" y="92.599627" style="fill: #ffffff; stroke: #000000; stroke-width: 1.25"/>
     <use xlink:href="#m0e8088e136" x="97.674019" y="95.17232" style="fill: #ffffff; stroke: #000000; stroke-width: 1.25"/>
     <use xlink:href="#m0e8088e136" x="101.17314" y="99.594254" style="fill: #ffffff; stroke: #000000; stroke-width: 1.25"/>
     <use xlink:href="#m0e8088e136" x="104.67226" y="105.163022" style="fill: #ffffff; stroke: #000000; stroke-width: 1.25"/>
     <use xlink:href="#m0e8088e136" x="108.17138" y="113.394648" style="fill: #ffffff; stroke: #000000; stroke-width: 1.25"/>
     <use xlink:href="#m0e8088e136" x="111.6705" y="125.895846" style="fill: #ffffff; stroke: #000000; stroke-width: 1.25"/>
     <use xlink:href="#m0e8088e136" x="115.169621" y="149.578477" style="fill: #ffffff; stroke: #000000; stroke-width: 1.25"/>
     <use xlink:href="#m0e8088e136" x="118.668741" y="196.074899" style="fill: #ffffff; stroke: #000000; stroke-width: 1.25"/>
     <use xlink:href="#m0e8088e136" x="122.167861" y="243.992288" style="fill: #ffffff; stroke: #000000; stroke-width: 1.25"/>
     <use xlink:href="#m0e8088e136" x="125.666981" y="276.136875" style="fill: #ffffff; stroke: #000000; stroke-width: 1.25"/>
     <use xlink:href="#m0e8088e136" x="125.666981" y="276.136875" style="fill: #ffffff; stroke: #000000; stroke-width: 1.25"/>
    </g>
   </g>
   <g id="line2d_46">
    <path d="M 76.679298 45.936875 
L 80.178418 51.125966 
L 83.677538 53.354994 
L 87.176659 55.248026 
L 90.675779 55.851631 
L 94.174899 56.523774 
L 97.674019 56.860849 
L 101.17314 57.268205 
L 104.67226 57.308457 
L 108.17138 58.130171 
L 111.6705 58.527108 
L 115.169621 59.058021 
L 118.668741 59.576367 
L 122.167861 59.859279 
L 125.666981 60.273536 
L 129.166102 60.306076 
L 132.665222 60.505805 
L 136.164342 60.515332 
L 139.663462 60.541663 
L 143.162582 60.549527 
L 146.661703 60.560958 
L 150.160823 60.57355 
L 153.659943 60.584226 
L 157.159063 60.591649 
L 160.658184 60.604103 
L 164.157304 60.620791 
L 167.656424 60.636272 
L 171.155544 60.643132 
L 174.654665 60.658176 
L 178.153785 60.713283 
L 181.652905 60.729045 
L 185.152025 60.747101 
L 188.651146 60.874875 
L 192.150266 61.370016 
L 195.649386 61.571282 
L 199.148506 61.99592 
L 202.647626 62.232843 
L 206.146747 66.427526 
L 209.645867 73.436036 
L 213.144987 78.791075 
L 216.644107 78.89182 
L 220.143228 85.619674 
L 223.642348 90.624866 
L 227.141468 94.263904 
L 230.640588 104.874121 
L 234.139709 107.804881 
L 237.638829 110.230901 
L 241.137949 111.164204 
L 244.637069 111.613127 
L 248.13619 111.792309 
L 251.63531 111.881131 
L 255.13443 111.898728 
L 258.63355 111.94278 
L 262.13267 111.979603 
L 265.631791 112.329045 
L 269.130911 112.489243 
L 272.630031 112.536453 
L 276.129151 112.563887 
L 279.628272 112.655797 
L 283.127392 113.616511 
L 286.626512 114.444062 
L 290.125632 114.992963 
L 293.624753 118.007973 
L 297.123873 119.265165 
L 300.622993 120.270153 
L 304.122113 124.907047 
L 307.621233 125.83074 
L 311.120354 126.034064 
L 314.619474 131.578163 
L 318.118594 135.2794 
L 321.617714 138.235607 
L 325.116835 141.92108 
L 328.615955 142.29853 
L 332.115075 145.683093 
L 335.614195 167.263946 
L 339.113316 171.597951 
L 342.612436 172.344604 
L 346.111556 176.937606 
L 349.610676 200.15988 
L 353.109797 203.969898 
L 356.608917 210.559453 
L 360.108037 207.342305 
L 363.607157 222.433512 
L 367.106277 222.580523 
L 370.605398 233.692027 
L 374.104518 236.547932 
L 377.603638 238.31872 
L 381.102758 247.952481 
L 381.102758 247.952481 
" clip-path="url(#p62b6a5063b)" style="fill: none; stroke: #0000ff; stroke-width: 1.25; stroke-linecap: square"/>
    <defs>
     <path id="ma57a3bb43f" d="M 0 1.75 
C 0.464105 1.75 0.909265 1.565609 1.237437 1.237437 
C 1.565609 0.909265 1.75 0.464105 1.75 0 
C 1.75 -0.464105 1.565609 -0.909265 1.237437 -1.237437 
C 0.909265 -1.565609 0.464105 -1.75 0 -1.75 
C -0.464105 -1.75 -0.909265 -1.565609 -1.237437 -1.237437 
C -1.565609 -0.909265 -1.75 -0.464105 -1.75 0 
C -1.75 0.464105 -1.565609 0.909265 -1.237437 1.237437 
C -0.909265 1.565609 -0.464105 1.75 0 1.75 
z
" style="stroke: #0000ff; stroke-width: 1.25"/>
    </defs>
    <g clip-path="url(#p62b6a5063b)">
     <use xlink:href="#ma57a3bb43f" x="76.679298" y="45.936875" style="fill: #ffffff; stroke: #0000ff; stroke-width: 1.25"/>
     <use xlink:href="#ma57a3bb43f" x="80.178418" y="51.125966" style="fill: #ffffff; stroke: #0000ff; stroke-width: 1.25"/>
     <use xlink:href="#ma57a3bb43f" x="83.677538" y="53.354994" style="fill: #ffffff; stroke: #0000ff; stroke-width: 1.25"/>
     <use xlink:href="#ma57a3bb43f" x="87.176659" y="55.248026" style="fill: #ffffff; stroke: #0000ff; stroke-width: 1.25"/>
     <use xlink:href="#ma57a3bb43f" x="90.675779" y="55.851631" style="fill: #ffffff; stroke: #0000ff; stroke-width: 1.25"/>
     <use xlink:href="#ma57a3bb43f" x="94.174899" y="56.523774" style="fill: #ffffff; stroke: #0000ff; stroke-width: 1.25"/>
     <use xlink:href="#ma57a3bb43f" x="97.674019" y="56.860849" style="fill: #ffffff; stroke: #0000ff; stroke-width: 1.25"/>
     <use xlink:href="#ma57a3bb43f" x="101.17314" y="57.268205" style="fill: #ffffff; stroke: #0000ff; stroke-width: 1.25"/>
     <use xlink:href="#ma57a3bb43f" x="104.67226" y="57.308457" style="fill: #ffffff; stroke: #0000ff; stroke-width: 1.25"/>
     <use xlink:href="#ma57a3bb43f" x="108.17138" y="58.130171" style="fill: #ffffff; stroke: #0000ff; stroke-width: 1.25"/>
     <use xlink:href="#ma57a3bb43f" x="111.6705" y="58.527108" style="fill: #ffffff; stroke: #0000ff; stroke-width: 1.25"/>
     <use xlink:href="#ma57a3bb43f" x="115.169621" y="59.058021" style="fill: #ffffff; stroke: #0000ff; stroke-width: 1.25"/>
     <use xlink:href="#ma57a3bb43f" x="118.668741" y="59.576367" style="fill: #ffffff; stroke: #0000ff; stroke-width: 1.25"/>
     <use xlink:href="#ma57a3bb43f" x="122.167861" y="59.859279" style="fill: #ffffff; stroke: #0000ff; stroke-width: 1.25"/>
     <use xlink:href="#ma57a3bb43f" x="125.666981" y="60.273536" style="fill: #ffffff; stroke: #0000ff; stroke-width: 1.25"/>
     <use xlink:href="#ma57a3bb43f" x="129.166102" y="60.306076" style="fill: #ffffff; stroke: #0000ff; stroke-width: 1.25"/>
     <use xlink:href="#ma57a3bb43f" x="132.665222" y="60.505805" style="fill: #ffffff; stroke: #0000ff; stroke-width: 1.25"/>
     <use xlink:href="#ma57a3bb43f" x="136.164342" y="60.515332" style="fill: #ffffff; stroke: #0000ff; stroke-width: 1.25"/>
     <use xlink:href="#ma57a3bb43f" x="139.663462" y="60.541663" style="fill: #ffffff; stroke: #0000ff; stroke-width: 1.25"/>
     <use xlink:href="#ma57a3bb43f" x="143.162582" y="60.549527" style="fill: #ffffff; stroke: #0000ff; stroke-width: 1.25"/>
     <use xlink:href="#ma57a3bb43f" x="146.661703" y="60.560958" style="fill: #ffffff; stroke: #0000ff; stroke-width: 1.25"/>
     <use xlink:href="#ma57a3bb43f" x="150.160823" y="60.57355" style="fill: #ffffff; stroke: #0000ff; stroke-width: 1.25"/>
     <use xlink:href="#ma57a3bb43f" x="153.659943" y="60.584226" style="fill: #ffffff; stroke: #0000ff; stroke-width: 1.25"/>
     <use xlink:href="#ma57a3bb43f" x="157.159063" y="60.591649" style="fill: #ffffff; stroke: #0000ff; stroke-width: 1.25"/>
     <use xlink:href="#ma57a3bb43f" x="160.658184" y="60.604103" style="fill: #ffffff; stroke: #0000ff; stroke-width: 1.25"/>
     <use xlink:href="#ma57a3bb43f" x="164.157304" y="60.620791" style="fill: #ffffff; stroke: #0000ff; stroke-width: 1.25"/>
     <use xlink:href="#ma57a3bb43f" x="167.656424" y="60.636272" style="fill: #ffffff; stroke: #0000ff; stroke-width: 1.25"/>
     <use xlink:href="#ma57a3bb43f" x="171.155544" y="60.643132" style="fill: #ffffff; stroke: #0000ff; stroke-width: 1.25"/>
     <use xlink:href="#ma57a3bb43f" x="174.654665" y="60.658176" style="fill: #ffffff; stroke: #0000ff; stroke-width: 1.25"/>
     <use xlink:href="#ma57a3bb43f" x="178.153785" y="60.713283" style="fill: #ffffff; stroke: #0000ff; stroke-width: 1.25"/>
     <use xlink:href="#ma57a3bb43f" x="181.652905" y="60.729045" style="fill: #ffffff; stroke: #0000ff; stroke-width: 1.25"/>
     <use xlink:href="#ma57a3bb43f" x="185.152025" y="60.747101" style="fill: #ffffff; stroke: #0000ff; stroke-width: 1.25"/>
     <use xlink:href="#ma57a3bb43f" x="188.651146" y="60.874875" style="fill: #ffffff; stroke: #0000ff; stroke-width: 1.25"/>
     <use xlink:href="#ma57a3bb43f" x="192.150266" y="61.370016" style="fill: #ffffff; stroke: #0000ff; stroke-width: 1.25"/>
     <use xlink:href="#ma57a3bb43f" x="195.649386" y="61.571282" style="fill: #ffffff; stroke: #0000ff; stroke-width: 1.25"/>
     <use xlink:href="#ma57a3bb43f" x="199.148506" y="61.99592" style="fill: #ffffff; stroke: #0000ff; stroke-width: 1.25"/>
     <use xlink:href="#ma57a3bb43f" x="202.647626" y="62.232843" style="fill: #ffffff; stroke: #0000ff; stroke-width: 1.25"/>
     <use xlink:href="#ma57a3bb43f" x="206.146747" y="66.427526" style="fill: #ffffff; stroke: #0000ff; stroke-width: 1.25"/>
     <use xlink:href="#ma57a3bb43f" x="209.645867" y="73.436036" style="fill: #ffffff; stroke: #0000ff; stroke-width: 1.25"/>
     <use xlink:href="#ma57a3bb43f" x="213.144987" y="78.791075" style="fill: #ffffff; stroke: #0000ff; stroke-width: 1.25"/>
     <use xlink:href="#ma57a3bb43f" x="216.644107" y="78.89182" style="fill: #ffffff; stroke: #0000ff; stroke-width: 1.25"/>
     <use xlink:href="#ma57a3bb43f" x="220.143228" y="85.619674" style="fill: #ffffff; stroke: #0000ff; stroke-width: 1.25"/>
     <use xlink:href="#ma57a3bb43f" x="223.642348" y="90.624866" style="fill: #ffffff; stroke: #0000ff; stroke-width: 1.25"/>
     <use xlink:href="#ma57a3bb43f" x="227.141468" y="94.263904" style="fill: #ffffff; stroke: #0000ff; stroke-width: 1.25"/>
     <use xlink:href="#ma57a3bb43f" x="230.640588" y="104.874121" style="fill: #ffffff; stroke: #0000ff; stroke-width: 1.25"/>
     <use xlink:href="#ma57a3bb43f" x="234.139709" y="107.804881" style="fill: #ffffff; stroke: #0000ff; stroke-width: 1.25"/>
     <use xlink:href="#ma57a3bb43f" x="237.638829" y="110.230901" style="fill: #ffffff; stroke: #0000ff; stroke-width: 1.25"/>
     <use xlink:href="#ma57a3bb43f" x="241.137949" y="111.164204" style="fill: #ffffff; stroke: #0000ff; stroke-width: 1.25"/>
     <use xlink:href="#ma57a3bb43f" x="244.637069" y="111.613127" style="fill: #ffffff; stroke: #0000ff; stroke-width: 1.25"/>
     <use xlink:href="#ma57a3bb43f" x="248.13619" y="111.792309" style="fill: #ffffff; stroke: #0000ff; stroke-width: 1.25"/>
     <use xlink:href="#ma57a3bb43f" x="251.63531" y="111.881131" style="fill: #ffffff; stroke: #0000ff; stroke-width: 1.25"/>
     <use xlink:href="#ma57a3bb43f" x="255.13443" y="111.898728" style="fill: #ffffff; stroke: #0000ff; stroke-width: 1.25"/>
     <use xlink:href="#ma57a3bb43f" x="258.63355" y="111.94278" style="fill: #ffffff; stroke: #0000ff; stroke-width: 1.25"/>
     <use xlink:href="#ma57a3bb43f" x="262.13267" y="111.979603" style="fill: #ffffff; stroke: #0000ff; stroke-width: 1.25"/>
     <use xlink:href="#ma57a3bb43f" x="265.631791" y="112.329045" style="fill: #ffffff; stroke: #0000ff; stroke-width: 1.25"/>
     <use xlink:href="#ma57a3bb43f" x="269.130911" y="112.489243" style="fill: #ffffff; stroke: #0000ff; stroke-width: 1.25"/>
     <use xlink:href="#ma57a3bb43f" x="272.630031" y="112.536453" style="fill: #ffffff; stroke: #0000ff; stroke-width: 1.25"/>
     <use xlink:href="#ma57a3bb43f" x="276.129151" y="112.563887" style="fill: #ffffff; stroke: #0000ff; stroke-width: 1.25"/>
     <use xlink:href="#ma57a3bb43f" x="279.628272" y="112.655797" style="fill: #ffffff; stroke: #0000ff; stroke-width: 1.25"/>
     <use xlink:href="#ma57a3bb43f" x="283.127392" y="113.616511" style="fill: #ffffff; stroke: #0000ff; stroke-width: 1.25"/>
     <use xlink:href="#ma57a3bb43f" x="286.626512" y="114.444062" style="fill: #ffffff; stroke: #0000ff; stroke-width: 1.25"/>
     <use xlink:href="#ma57a3bb43f" x="290.125632" y="114.992963" style="fill: #ffffff; stroke: #0000ff; stroke-width: 1.25"/>
     <use xlink:href="#ma57a3bb43f" x="293.624753" y="118.007973" style="fill: #ffffff; stroke: #0000ff; stroke-width: 1.25"/>
     <use xlink:href="#ma57a3bb43f" x="297.123873" y="119.265165" style="fill: #ffffff; stroke: #0000ff; stroke-width: 1.25"/>
     <use xlink:href="#ma57a3bb43f" x="300.622993" y="120.270153" style="fill: #ffffff; stroke: #0000ff; stroke-width: 1.25"/>
     <use xlink:href="#ma57a3bb43f" x="304.122113" y="124.907047" style="fill: #ffffff; stroke: #0000ff; stroke-width: 1.25"/>
     <use xlink:href="#ma57a3bb43f" x="307.621233" y="125.83074" style="fill: #ffffff; stroke: #0000ff; stroke-width: 1.25"/>
     <use xlink:href="#ma57a3bb43f" x="311.120354" y="126.034064" style="fill: #ffffff; stroke: #0000ff; stroke-width: 1.25"/>
     <use xlink:href="#ma57a3bb43f" x="314.619474" y="131.578163" style="fill: #ffffff; stroke: #0000ff; stroke-width: 1.25"/>
     <use xlink:href="#ma57a3bb43f" x="318.118594" y="135.2794" style="fill: #ffffff; stroke: #0000ff; stroke-width: 1.25"/>
     <use xlink:href="#ma57a3bb43f" x="321.617714" y="138.235607" style="fill: #ffffff; stroke: #0000ff; stroke-width: 1.25"/>
     <use xlink:href="#ma57a3bb43f" x="325.116835" y="141.92108" style="fill: #ffffff; stroke: #0000ff; stroke-width: 1.25"/>
     <use xlink:href="#ma57a3bb43f" x="328.615955" y="142.29853" style="fill: #ffffff; stroke: #0000ff; stroke-width: 1.25"/>
     <use xlink:href="#ma57a3bb43f" x="332.115075" y="145.683093" style="fill: #ffffff; stroke: #0000ff; stroke-width: 1.25"/>
     <use xlink:href="#ma57a3bb43f" x="335.614195" y="167.263946" style="fill: #ffffff; stroke: #0000ff; stroke-width: 1.25"/>
     <use xlink:href="#ma57a3bb43f" x="339.113316" y="171.597951" style="fill: #ffffff; stroke: #0000ff; stroke-width: 1.25"/>
     <use xlink:href="#ma57a3bb43f" x="342.612436" y="172.344604" style="fill: #ffffff; stroke: #0000ff; stroke-width: 1.25"/>
     <use xlink:href="#ma57a3bb43f" x="346.111556" y="176.937606" style="fill: #ffffff; stroke: #0000ff; stroke-width: 1.25"/>
     <use xlink:href="#ma57a3bb43f" x="349.610676" y="200.15988" style="fill: #ffffff; stroke: #0000ff; stroke-width: 1.25"/>
     <use xlink:href="#ma57a3bb43f" x="353.109797" y="203.969898" style="fill: #ffffff; stroke: #0000ff; stroke-width: 1.25"/>
     <use xlink:href="#ma57a3bb43f" x="356.608917" y="210.559453" style="fill: #ffffff; stroke: #0000ff; stroke-width: 1.25"/>
     <use xlink:href="#ma57a3bb43f" x="360.108037" y="207.342305" style="fill: #ffffff; stroke: #0000ff; stroke-width: 1.25"/>
     <use xlink:href="#ma57a3bb43f" x="363.607157" y="222.433512" style="fill: #ffffff; stroke: #0000ff; stroke-width: 1.25"/>
     <use xlink:href="#ma57a3bb43f" x="367.106277" y="222.580523" style="fill: #ffffff; stroke: #0000ff; stroke-width: 1.25"/>
     <use xlink:href="#ma57a3bb43f" x="370.605398" y="233.692027" style="fill: #ffffff; stroke: #0000ff; stroke-width: 1.25"/>
     <use xlink:href="#ma57a3bb43f" x="374.104518" y="236.547932" style="fill: #ffffff; stroke: #0000ff; stroke-width: 1.25"/>
     <use xlink:href="#ma57a3bb43f" x="377.603638" y="238.31872" style="fill: #ffffff; stroke: #0000ff; stroke-width: 1.25"/>
     <use xlink:href="#ma57a3bb43f" x="381.102758" y="247.952481" style="fill: #ffffff; stroke: #0000ff; stroke-width: 1.25"/>
     <use xlink:href="#ma57a3bb43f" x="381.102758" y="247.952481" style="fill: #ffffff; stroke: #0000ff; stroke-width: 1.25"/>
    </g>
   </g>
   <g id="patch_3">
    <path d="M 61.458125 287.646875 
L 61.458125 34.426875 
" style="fill: none; stroke: #000000; stroke-width: 1.25; stroke-linejoin: miter; stroke-linecap: square"/>
   </g>
   <g id="patch_4">
    <path d="M 396.323931 287.646875 
L 396.323931 34.426875 
" style="fill: none; stroke: #000000; stroke-width: 1.25; stroke-linejoin: miter; stroke-linecap: square"/>
   </g>
   <g id="patch_5">
    <path d="M 61.458125 287.646875 
L 396.323931 287.646875 
" style="fill: none; stroke: #000000; stroke-width: 1.25; stroke-linejoin: miter; stroke-linecap: square"/>
   </g>
   <g id="patch_6">
    <path d="M 61.458125 34.426875 
L 396.323931 34.426875 
" style="fill: none; stroke: #000000; stroke-width: 1.25; stroke-linejoin: miter; stroke-linecap: square"/>
   </g>
   <g id="text_14">
    <!-- Solving the RosenbrockProblem in 20 dimensions -->
    <g transform="translate(98.353763 16.226875) scale(0.13 -0.13)">
     <defs>
      <path id="TimesNewRomanPSMT-53" d="M 2934 4334 
L 2934 2869 
L 2819 2869 
Q 2763 3291 2617 3541 
Q 2472 3791 2203 3937 
Q 1934 4084 1647 4084 
Q 1322 4084 1109 3886 
Q 897 3688 897 3434 
Q 897 3241 1031 3081 
Q 1225 2847 1953 2456 
Q 2547 2138 2764 1967 
Q 2981 1797 3098 1565 
Q 3216 1334 3216 1081 
Q 3216 600 2842 251 
Q 2469 -97 1881 -97 
Q 1697 -97 1534 -69 
Q 1438 -53 1133 45 
Q 828 144 747 144 
Q 669 144 623 97 
Q 578 50 556 -97 
L 441 -97 
L 441 1356 
L 556 1356 
Q 638 900 775 673 
Q 913 447 1195 297 
Q 1478 147 1816 147 
Q 2206 147 2432 353 
Q 2659 559 2659 841 
Q 2659 997 2573 1156 
Q 2488 1316 2306 1453 
Q 2184 1547 1640 1851 
Q 1097 2156 867 2337 
Q 638 2519 519 2737 
Q 400 2956 400 3219 
Q 400 3675 750 4004 
Q 1100 4334 1641 4334 
Q 1978 4334 2356 4169 
Q 2531 4091 2603 4091 
Q 2684 4091 2736 4139 
Q 2788 4188 2819 4334 
L 2934 4334 
z
" transform="scale(0.015625)"/>
      <path id="TimesNewRomanPSMT-6c" d="M 1184 4444 
L 1184 647 
Q 1184 378 1223 290 
Q 1263 203 1344 158 
Q 1425 113 1647 113 
L 1647 0 
L 244 0 
L 244 113 
Q 441 113 512 153 
Q 584 194 625 287 
Q 666 381 666 647 
L 666 3247 
Q 666 3731 644 3842 
Q 622 3953 573 3993 
Q 525 4034 450 4034 
Q 369 4034 244 3984 
L 191 4094 
L 1044 4444 
L 1184 4444 
z
" transform="scale(0.015625)"/>
      <path id="TimesNewRomanPSMT-67" d="M 966 1044 
Q 703 1172 562 1401 
Q 422 1631 422 1909 
Q 422 2334 742 2640 
Q 1063 2947 1563 2947 
Q 1972 2947 2272 2747 
L 2878 2747 
Q 3013 2747 3034 2739 
Q 3056 2731 3066 2713 
Q 3084 2684 3084 2613 
Q 3084 2531 3069 2500 
Q 3059 2484 3036 2475 
Q 3013 2466 2878 2466 
L 2506 2466 
Q 2681 2241 2681 1891 
Q 2681 1491 2375 1206 
Q 2069 922 1553 922 
Q 1341 922 1119 984 
Q 981 866 932 777 
Q 884 688 884 625 
Q 884 572 936 522 
Q 988 472 1138 450 
Q 1225 438 1575 428 
Q 2219 413 2409 384 
Q 2700 344 2873 169 
Q 3047 -6 3047 -263 
Q 3047 -616 2716 -925 
Q 2228 -1381 1444 -1381 
Q 841 -1381 425 -1109 
Q 191 -953 191 -784 
Q 191 -709 225 -634 
Q 278 -519 444 -313 
Q 466 -284 763 25 
Q 600 122 533 198 
Q 466 275 466 372 
Q 466 481 555 628 
Q 644 775 966 1044 
z
M 1509 2797 
Q 1278 2797 1122 2612 
Q 966 2428 966 2047 
Q 966 1553 1178 1281 
Q 1341 1075 1591 1075 
Q 1828 1075 1981 1253 
Q 2134 1431 2134 1813 
Q 2134 2309 1919 2591 
Q 1759 2797 1509 2797 
z
M 934 0 
Q 788 -159 713 -296 
Q 638 -434 638 -550 
Q 638 -700 819 -813 
Q 1131 -1006 1722 -1006 
Q 2284 -1006 2551 -807 
Q 2819 -609 2819 -384 
Q 2819 -222 2659 -153 
Q 2497 -84 2016 -72 
Q 1313 -53 934 0 
z
" transform="scale(0.015625)"/>
      <path id="TimesNewRomanPSMT-68" d="M 1041 4444 
L 1041 2350 
Q 1388 2731 1591 2839 
Q 1794 2947 1997 2947 
Q 2241 2947 2416 2812 
Q 2591 2678 2675 2391 
Q 2734 2191 2734 1659 
L 2734 647 
Q 2734 375 2778 275 
Q 2809 200 2884 156 
Q 2959 113 3159 113 
L 3159 0 
L 1753 0 
L 1753 113 
L 1819 113 
Q 2019 113 2097 173 
Q 2175 234 2206 353 
Q 2216 403 2216 647 
L 2216 1659 
Q 2216 2128 2167 2275 
Q 2119 2422 2012 2495 
Q 1906 2569 1756 2569 
Q 1603 2569 1437 2487 
Q 1272 2406 1041 2159 
L 1041 647 
Q 1041 353 1073 281 
Q 1106 209 1195 161 
Q 1284 113 1503 113 
L 1503 0 
L 84 0 
L 84 113 
Q 275 113 384 172 
Q 447 203 484 290 
Q 522 378 522 647 
L 522 3238 
Q 522 3728 498 3840 
Q 475 3953 426 3993 
Q 378 4034 297 4034 
Q 231 4034 84 3984 
L 41 4094 
L 897 4444 
L 1041 4444 
z
" transform="scale(0.015625)"/>
      <path id="TimesNewRomanPSMT-52" d="M 4325 0 
L 3194 0 
L 1759 1981 
Q 1600 1975 1500 1975 
Q 1459 1975 1412 1976 
Q 1366 1978 1316 1981 
L 1316 750 
Q 1316 350 1403 253 
Q 1522 116 1759 116 
L 1925 116 
L 1925 0 
L 109 0 
L 109 116 
L 269 116 
Q 538 116 653 291 
Q 719 388 719 750 
L 719 3488 
Q 719 3888 631 3984 
Q 509 4122 269 4122 
L 109 4122 
L 109 4238 
L 1653 4238 
Q 2328 4238 2648 4139 
Q 2969 4041 3192 3777 
Q 3416 3513 3416 3147 
Q 3416 2756 3161 2468 
Q 2906 2181 2372 2063 
L 3247 847 
Q 3547 428 3762 290 
Q 3978 153 4325 116 
L 4325 0 
z
M 1316 2178 
Q 1375 2178 1419 2176 
Q 1463 2175 1491 2175 
Q 2097 2175 2405 2437 
Q 2713 2700 2713 3106 
Q 2713 3503 2464 3751 
Q 2216 4000 1806 4000 
Q 1625 4000 1316 3941 
L 1316 2178 
z
" transform="scale(0.015625)"/>
      <path id="TimesNewRomanPSMT-6b" d="M 1047 4444 
L 1047 1597 
L 1775 2259 
Q 2006 2472 2044 2528 
Q 2069 2566 2069 2603 
Q 2069 2666 2017 2711 
Q 1966 2756 1847 2763 
L 1847 2863 
L 3091 2863 
L 3091 2763 
Q 2834 2756 2664 2684 
Q 2494 2613 2291 2428 
L 1556 1750 
L 2291 822 
Q 2597 438 2703 334 
Q 2853 188 2966 144 
Q 3044 113 3238 113 
L 3238 0 
L 1847 0 
L 1847 113 
Q 1966 116 2008 148 
Q 2050 181 2050 241 
Q 2050 313 1925 472 
L 1047 1594 
L 1047 644 
Q 1047 366 1086 278 
Q 1125 191 1197 153 
Q 1269 116 1509 113 
L 1509 0 
L 53 0 
L 53 113 
Q 272 113 381 166 
Q 447 200 481 272 
Q 528 375 528 628 
L 528 3234 
Q 528 3731 506 3842 
Q 484 3953 434 3995 
Q 384 4038 303 4038 
Q 238 4038 106 3984 
L 53 4094 
L 903 4444 
L 1047 4444 
z
" transform="scale(0.015625)"/>
      <path id="TimesNewRomanPSMT-50" d="M 1313 1984 
L 1313 750 
Q 1313 350 1400 253 
Q 1519 116 1759 116 
L 1922 116 
L 1922 0 
L 106 0 
L 106 116 
L 266 116 
Q 534 116 650 291 
Q 713 388 713 750 
L 713 3488 
Q 713 3888 628 3984 
Q 506 4122 266 4122 
L 106 4122 
L 106 4238 
L 1659 4238 
Q 2228 4238 2556 4120 
Q 2884 4003 3109 3725 
Q 3334 3447 3334 3066 
Q 3334 2547 2992 2222 
Q 2650 1897 2025 1897 
Q 1872 1897 1694 1919 
Q 1516 1941 1313 1984 
z
M 1313 2163 
Q 1478 2131 1606 2115 
Q 1734 2100 1825 2100 
Q 2150 2100 2386 2351 
Q 2622 2603 2622 3003 
Q 2622 3278 2509 3514 
Q 2397 3750 2190 3867 
Q 1984 3984 1722 3984 
Q 1563 3984 1313 3925 
L 1313 2163 
z
" transform="scale(0.015625)"/>
      <path id="TimesNewRomanPSMT-64" d="M 2222 322 
Q 2013 103 1813 7 
Q 1613 -88 1381 -88 
Q 913 -88 563 304 
Q 213 697 213 1313 
Q 213 1928 600 2439 
Q 988 2950 1597 2950 
Q 1975 2950 2222 2709 
L 2222 3238 
Q 2222 3728 2198 3840 
Q 2175 3953 2125 3993 
Q 2075 4034 2000 4034 
Q 1919 4034 1784 3984 
L 1744 4094 
L 2597 4444 
L 2738 4444 
L 2738 1134 
Q 2738 631 2761 520 
Q 2784 409 2836 365 
Q 2888 322 2956 322 
Q 3041 322 3181 375 
L 3216 266 
L 2366 -88 
L 2222 -88 
L 2222 322 
z
M 2222 541 
L 2222 2016 
Q 2203 2228 2109 2403 
Q 2016 2578 1861 2667 
Q 1706 2756 1559 2756 
Q 1284 2756 1069 2509 
Q 784 2184 784 1559 
Q 784 928 1059 592 
Q 1334 256 1672 256 
Q 1956 256 2222 541 
z
" transform="scale(0.015625)"/>
     </defs>
     <use xlink:href="#TimesNewRomanPSMT-53"/>
     <use xlink:href="#TimesNewRomanPSMT-6f" x="55.615234"/>
     <use xlink:href="#TimesNewRomanPSMT-6c" x="105.615234"/>
     <use xlink:href="#TimesNewRomanPSMT-76" x="133.398438"/>
     <use xlink:href="#TimesNewRomanPSMT-69" x="183.398438"/>
     <use xlink:href="#TimesNewRomanPSMT-6e" x="211.181641"/>
     <use xlink:href="#TimesNewRomanPSMT-67" x="261.181641"/>
     <use xlink:href="#TimesNewRomanPSMT-20" x="311.181641"/>
     <use xlink:href="#TimesNewRomanPSMT-74" x="336.181641"/>
     <use xlink:href="#TimesNewRomanPSMT-68" x="363.964844"/>
     <use xlink:href="#TimesNewRomanPSMT-65" x="413.964844"/>
     <use xlink:href="#TimesNewRomanPSMT-20" x="458.349609"/>
     <use xlink:href="#TimesNewRomanPSMT-52" x="483.349609"/>
     <use xlink:href="#TimesNewRomanPSMT-6f" x="550.048828"/>
     <use xlink:href="#TimesNewRomanPSMT-73" x="600.048828"/>
     <use xlink:href="#TimesNewRomanPSMT-65" x="638.964844"/>
     <use xlink:href="#TimesNewRomanPSMT-6e" x="683.349609"/>
     <use xlink:href="#TimesNewRomanPSMT-62" x="733.349609"/>
     <use xlink:href="#TimesNewRomanPSMT-72" x="783.349609"/>
     <use xlink:href="#TimesNewRomanPSMT-6f" x="816.650391"/>
     <use xlink:href="#TimesNewRomanPSMT-63" x="866.650391"/>
     <use xlink:href="#TimesNewRomanPSMT-6b" x="911.035156"/>
     <use xlink:href="#TimesNewRomanPSMT-50" x="961.035156"/>
     <use xlink:href="#TimesNewRomanPSMT-72" x="1016.650391"/>
     <use xlink:href="#TimesNewRomanPSMT-6f" x="1049.951172"/>
     <use xlink:href="#TimesNewRomanPSMT-62" x="1099.951172"/>
     <use xlink:href="#TimesNewRomanPSMT-6c" x="1149.951172"/>
     <use xlink:href="#TimesNewRomanPSMT-65" x="1177.734375"/>
     <use xlink:href="#TimesNewRomanPSMT-6d" x="1222.119141"/>
     <use xlink:href="#TimesNewRomanPSMT-20" x="1299.902344"/>
     <use xlink:href="#TimesNewRomanPSMT-69" x="1324.902344"/>
     <use xlink:href="#TimesNewRomanPSMT-6e" x="1352.685547"/>
     <use xlink:href="#TimesNewRomanPSMT-20" x="1402.685547"/>
     <use xlink:href="#TimesNewRomanPSMT-32" x="1427.685547"/>
     <use xlink:href="#TimesNewRomanPSMT-30" x="1477.685547"/>
     <use xlink:href="#TimesNewRomanPSMT-20" x="1527.685547"/>
     <use xlink:href="#TimesNewRomanPSMT-64" x="1552.685547"/>
     <use xlink:href="#TimesNewRomanPSMT-69" x="1602.685547"/>
     <use xlink:href="#TimesNewRomanPSMT-6d" x="1630.46875"/>
     <use xlink:href="#TimesNewRomanPSMT-65" x="1708.251953"/>
     <use xlink:href="#TimesNewRomanPSMT-6e" x="1752.636719"/>
     <use xlink:href="#TimesNewRomanPSMT-73" x="1802.636719"/>
     <use xlink:href="#TimesNewRomanPSMT-69" x="1841.552734"/>
     <use xlink:href="#TimesNewRomanPSMT-6f" x="1869.335938"/>
     <use xlink:href="#TimesNewRomanPSMT-6e" x="1919.335938"/>
     <use xlink:href="#TimesNewRomanPSMT-73" x="1969.335938"/>
    </g>
   </g>
  </g>
  <g id="axes_2">
   <g id="matplotlib.axis_3">
    <g id="ytick_7">
     <g id="line2d_47">
      <defs>
       <path id="mceaa4b39ae" d="M 0 0 
L -6 0 
" style="stroke: #000000; stroke-width: 1.25"/>
      </defs>
      <g>
       <use xlink:href="#mceaa4b39ae" x="396.323931" y="276.136875" style="fill: #ffffff; stroke: #000000; stroke-width: 1.25"/>
      </g>
     </g>
     <g id="text_15">
      <!-- $\mathdefault{10^{0}}$ -->
      <g transform="translate(399.823931 281.453437) scale(0.12 -0.12)">
       <use xlink:href="#TimesNewRomanPSMT-31" transform="translate(0 0.582813)"/>
       <use xlink:href="#TimesNewRomanPSMT-30" transform="translate(50 0.582813)"/>
       <use xlink:href="#TimesNewRomanPSMT-30" transform="translate(101.502813 60.695312) scale(0.7)"/>
      </g>
     </g>
    </g>
    <g id="ytick_8">
     <g id="line2d_48">
      <g>
       <use xlink:href="#mceaa4b39ae" x="396.323931" y="45.936875" style="fill: #ffffff; stroke: #000000; stroke-width: 1.25"/>
      </g>
     </g>
     <g id="text_16">
      <!-- $\mathdefault{10^{1}}$ -->
      <g transform="translate(399.823931 51.253437) scale(0.12 -0.12)">
       <use xlink:href="#TimesNewRomanPSMT-31" transform="translate(0 0.582813)"/>
       <use xlink:href="#TimesNewRomanPSMT-30" transform="translate(50 0.582813)"/>
       <use xlink:href="#TimesNewRomanPSMT-31" transform="translate(101.502813 60.695312) scale(0.7)"/>
      </g>
     </g>
    </g>
    <g id="ytick_9">
     <g id="line2d_49">
      <defs>
       <path id="m9de2ba6f85" d="M 0 0 
L -3 0 
" style="stroke: #000000; stroke-width: 0.75"/>
      </defs>
      <g>
       <use xlink:href="#m9de2ba6f85" x="396.323931" y="286.670249" style="fill: #ffffff; stroke: #000000; stroke-width: 0.75"/>
      </g>
     </g>
    </g>
    <g id="ytick_10">
     <g id="line2d_50">
      <g>
       <use xlink:href="#m9de2ba6f85" x="396.323931" y="206.83977" style="fill: #ffffff; stroke: #000000; stroke-width: 0.75"/>
      </g>
     </g>
    </g>
    <g id="ytick_11">
     <g id="line2d_51">
      <g>
       <use xlink:href="#m9de2ba6f85" x="396.323931" y="166.303562" style="fill: #ffffff; stroke: #000000; stroke-width: 0.75"/>
      </g>
     </g>
    </g>
    <g id="ytick_12">
     <g id="line2d_52">
      <g>
       <use xlink:href="#m9de2ba6f85" x="396.323931" y="137.542665" style="fill: #ffffff; stroke: #000000; stroke-width: 0.75"/>
      </g>
     </g>
    </g>
    <g id="ytick_13">
     <g id="line2d_53">
      <g>
       <use xlink:href="#m9de2ba6f85" x="396.323931" y="115.23398" style="fill: #ffffff; stroke: #000000; stroke-width: 0.75"/>
      </g>
     </g>
    </g>
    <g id="ytick_14">
     <g id="line2d_54">
      <g>
       <use xlink:href="#m9de2ba6f85" x="396.323931" y="97.006457" style="fill: #ffffff; stroke: #000000; stroke-width: 0.75"/>
      </g>
     </g>
    </g>
    <g id="ytick_15">
     <g id="line2d_55">
      <g>
       <use xlink:href="#m9de2ba6f85" x="396.323931" y="81.595306" style="fill: #ffffff; stroke: #000000; stroke-width: 0.75"/>
      </g>
     </g>
    </g>
    <g id="ytick_16">
     <g id="line2d_56">
      <g>
       <use xlink:href="#m9de2ba6f85" x="396.323931" y="68.24556" style="fill: #ffffff; stroke: #000000; stroke-width: 0.75"/>
      </g>
     </g>
    </g>
    <g id="ytick_17">
     <g id="line2d_57">
      <g>
       <use xlink:href="#m9de2ba6f85" x="396.323931" y="56.470249" style="fill: #ffffff; stroke: #000000; stroke-width: 0.75"/>
      </g>
     </g>
    </g>
    <g id="text_17">
     <!-- Constraint violation -->
     <g transform="translate(438.770806 212.853047) rotate(-90) scale(0.13 -0.13)">
      <defs>
       <path id="TimesNewRomanPSMT-43" d="M 3853 4334 
L 3950 2894 
L 3853 2894 
Q 3659 3541 3300 3825 
Q 2941 4109 2438 4109 
Q 2016 4109 1675 3895 
Q 1334 3681 1139 3212 
Q 944 2744 944 2047 
Q 944 1472 1128 1050 
Q 1313 628 1683 403 
Q 2053 178 2528 178 
Q 2941 178 3256 354 
Q 3572 531 3950 1056 
L 4047 994 
Q 3728 428 3303 165 
Q 2878 -97 2294 -97 
Q 1241 -97 663 684 
Q 231 1266 231 2053 
Q 231 2688 515 3219 
Q 800 3750 1298 4042 
Q 1797 4334 2388 4334 
Q 2847 4334 3294 4109 
Q 3425 4041 3481 4041 
Q 3566 4041 3628 4100 
Q 3709 4184 3744 4334 
L 3853 4334 
z
" transform="scale(0.015625)"/>
      </defs>
      <use xlink:href="#TimesNewRomanPSMT-43"/>
      <use xlink:href="#TimesNewRomanPSMT-6f" x="66.699219"/>
      <use xlink:href="#TimesNewRomanPSMT-6e" x="116.699219"/>
      <use xlink:href="#TimesNewRomanPSMT-73" x="166.699219"/>
      <use xlink:href="#TimesNewRomanPSMT-74" x="205.615234"/>
      <use xlink:href="#TimesNewRomanPSMT-72" x="233.398438"/>
      <use xlink:href="#TimesNewRomanPSMT-61" x="266.699219"/>
      <use xlink:href="#TimesNewRomanPSMT-69" x="311.083984"/>
      <use xlink:href="#TimesNewRomanPSMT-6e" x="338.867188"/>
      <use xlink:href="#TimesNewRomanPSMT-74" x="388.867188"/>
      <use xlink:href="#TimesNewRomanPSMT-20" x="416.650391"/>
      <use xlink:href="#TimesNewRomanPSMT-76" x="441.650391"/>
      <use xlink:href="#TimesNewRomanPSMT-69" x="491.650391"/>
      <use xlink:href="#TimesNewRomanPSMT-6f" x="519.433594"/>
      <use xlink:href="#TimesNewRomanPSMT-6c" x="569.433594"/>
      <use xlink:href="#TimesNewRomanPSMT-61" x="597.216797"/>
      <use xlink:href="#TimesNewRomanPSMT-74" x="641.601562"/>
      <use xlink:href="#TimesNewRomanPSMT-69" x="669.384766"/>
      <use xlink:href="#TimesNewRomanPSMT-6f" x="697.167969"/>
      <use xlink:href="#TimesNewRomanPSMT-6e" x="747.167969"/>
     </g>
    </g>
   </g>
   <g id="line2d_58">
    <path clip-path="url(#p62b6a5063b)" style="fill: none; stroke-dasharray: 1.25,2.0625; stroke-dashoffset: 0; stroke: #000000; stroke-width: 1.25"/>
    <g clip-path="url(#p62b6a5063b)"/>
   </g>
   <g id="line2d_59">
    <path clip-path="url(#p62b6a5063b)" style="fill: none; stroke-dasharray: 1.25,2.0625; stroke-dashoffset: 0; stroke: #0000ff; stroke-width: 1.25"/>
    <g clip-path="url(#p62b6a5063b)"/>
   </g>
   <g id="patch_7">
    <path d="M 61.458125 287.646875 
L 61.458125 34.426875 
" style="fill: none; stroke: #000000; stroke-width: 1.25; stroke-linejoin: miter; stroke-linecap: square"/>
   </g>
   <g id="patch_8">
    <path d="M 396.323931 287.646875 
L 396.323931 34.426875 
" style="fill: none; stroke: #000000; stroke-width: 1.25; stroke-linejoin: miter; stroke-linecap: square"/>
   </g>
   <g id="patch_9">
    <path d="M 61.458125 287.646875 
L 396.323931 287.646875 
" style="fill: none; stroke: #000000; stroke-width: 1.25; stroke-linejoin: miter; stroke-linecap: square"/>
   </g>
   <g id="patch_10">
    <path d="M 61.458125 34.426875 
L 396.323931 34.426875 
" style="fill: none; stroke: #000000; stroke-width: 1.25; stroke-linejoin: miter; stroke-linecap: square"/>
   </g>
   <g id="legend_1">
    <g id="patch_11">
     <path d="M 202.711431 73.410937 
L 385.523931 73.410937 
Q 387.323931 73.410937 387.323931 71.610937 
L 387.323931 45.226875 
Q 387.323931 43.426875 385.523931 43.426875 
L 202.711431 43.426875 
Q 200.911431 43.426875 200.911431 45.226875 
L 200.911431 71.610937 
Q 200.911431 73.410937 202.711431 73.410937 
z
" style="fill: #ffffff; stroke: #000000; stroke-linejoin: miter"/>
    </g>
    <g id="line2d_60">
     <path d="M 206.311431 51.976875 
L 211.936431 51.976875 
L 217.561431 51.976875 
" style="fill: none; stroke: #000000; stroke-width: 1.25; stroke-linecap: square"/>
     <g>
      <use xlink:href="#m0e8088e136" x="211.936431" y="51.976875" style="fill: #ffffff; stroke: #000000; stroke-width: 1.25"/>
     </g>
    </g>
    <g id="text_18">
     <!-- Objective (Exact Hessian) -->
     <g transform="translate(224.761431 55.126875) scale(0.09 -0.09)">
      <defs>
       <path id="TimesNewRomanPSMT-28" d="M 1988 -1253 
L 1988 -1369 
Q 1516 -1131 1200 -813 
Q 750 -359 506 256 
Q 263 872 263 1534 
Q 263 2503 741 3301 
Q 1219 4100 1988 4444 
L 1988 4313 
Q 1603 4100 1356 3731 
Q 1109 3363 987 2797 
Q 866 2231 866 1616 
Q 866 947 969 400 
Q 1050 -31 1165 -292 
Q 1281 -553 1476 -793 
Q 1672 -1034 1988 -1253 
z
" transform="scale(0.015625)"/>
       <path id="TimesNewRomanPSMT-45" d="M 1338 4006 
L 1338 2331 
L 2269 2331 
Q 2631 2331 2753 2441 
Q 2916 2584 2934 2947 
L 3050 2947 
L 3050 1472 
L 2934 1472 
Q 2891 1781 2847 1869 
Q 2791 1978 2662 2040 
Q 2534 2103 2269 2103 
L 1338 2103 
L 1338 706 
Q 1338 425 1363 364 
Q 1388 303 1450 267 
Q 1513 231 1688 231 
L 2406 231 
Q 2766 231 2928 281 
Q 3091 331 3241 478 
Q 3434 672 3638 1063 
L 3763 1063 
L 3397 0 
L 131 0 
L 131 116 
L 281 116 
Q 431 116 566 188 
Q 666 238 702 338 
Q 738 438 738 747 
L 738 3500 
Q 738 3903 656 3997 
Q 544 4122 281 4122 
L 131 4122 
L 131 4238 
L 3397 4238 
L 3444 3309 
L 3322 3309 
Q 3256 3644 3176 3769 
Q 3097 3894 2941 3959 
Q 2816 4006 2500 4006 
L 1338 4006 
z
" transform="scale(0.015625)"/>
       <path id="TimesNewRomanPSMT-78" d="M 84 2863 
L 1431 2863 
L 1431 2747 
Q 1303 2747 1251 2703 
Q 1200 2659 1200 2588 
Q 1200 2513 1309 2356 
Q 1344 2306 1413 2200 
L 1616 1875 
L 1850 2200 
Q 2075 2509 2075 2591 
Q 2075 2656 2022 2701 
Q 1969 2747 1850 2747 
L 1850 2863 
L 2819 2863 
L 2819 2747 
Q 2666 2738 2553 2663 
Q 2400 2556 2134 2200 
L 1744 1678 
L 2456 653 
Q 2719 275 2831 198 
Q 2944 122 3122 113 
L 3122 0 
L 1772 0 
L 1772 113 
Q 1913 113 1991 175 
Q 2050 219 2050 291 
Q 2050 363 1850 653 
L 1431 1266 
L 972 653 
Q 759 369 759 316 
Q 759 241 829 180 
Q 900 119 1041 113 
L 1041 0 
L 106 0 
L 106 113 
Q 219 128 303 191 
Q 422 281 703 653 
L 1303 1450 
L 759 2238 
Q 528 2575 401 2661 
Q 275 2747 84 2747 
L 84 2863 
z
" transform="scale(0.015625)"/>
       <path id="TimesNewRomanPSMT-48" d="M 1316 2272 
L 3284 2272 
L 3284 3484 
Q 3284 3809 3244 3913 
Q 3213 3991 3113 4047 
Q 2978 4122 2828 4122 
L 2678 4122 
L 2678 4238 
L 4491 4238 
L 4491 4122 
L 4341 4122 
Q 4191 4122 4056 4050 
Q 3956 4000 3920 3898 
Q 3884 3797 3884 3484 
L 3884 750 
Q 3884 428 3925 325 
Q 3956 247 4053 191 
Q 4191 116 4341 116 
L 4491 116 
L 4491 0 
L 2678 0 
L 2678 116 
L 2828 116 
Q 3088 116 3206 269 
Q 3284 369 3284 750 
L 3284 2041 
L 1316 2041 
L 1316 750 
Q 1316 428 1356 325 
Q 1388 247 1488 191 
Q 1622 116 1772 116 
L 1925 116 
L 1925 0 
L 109 0 
L 109 116 
L 259 116 
Q 522 116 641 269 
Q 716 369 716 750 
L 716 3484 
Q 716 3809 675 3913 
Q 644 3991 547 4047 
Q 409 4122 259 4122 
L 109 4122 
L 109 4238 
L 1925 4238 
L 1925 4122 
L 1772 4122 
Q 1622 4122 1488 4050 
Q 1391 4000 1353 3898 
Q 1316 3797 1316 3484 
L 1316 2272 
z
" transform="scale(0.015625)"/>
       <path id="TimesNewRomanPSMT-29" d="M 144 4313 
L 144 4444 
Q 619 4209 934 3891 
Q 1381 3434 1625 2820 
Q 1869 2206 1869 1541 
Q 1869 572 1392 -226 
Q 916 -1025 144 -1369 
L 144 -1253 
Q 528 -1038 776 -670 
Q 1025 -303 1145 264 
Q 1266 831 1266 1447 
Q 1266 2113 1163 2663 
Q 1084 3094 967 3353 
Q 850 3613 656 3853 
Q 463 4094 144 4313 
z
" transform="scale(0.015625)"/>
      </defs>
      <use xlink:href="#TimesNewRomanPSMT-4f"/>
      <use xlink:href="#TimesNewRomanPSMT-62" x="72.216797"/>
      <use xlink:href="#TimesNewRomanPSMT-6a" x="122.216797"/>
      <use xlink:href="#TimesNewRomanPSMT-65" x="150"/>
      <use xlink:href="#TimesNewRomanPSMT-63" x="194.384766"/>
      <use xlink:href="#TimesNewRomanPSMT-74" x="238.769531"/>
      <use xlink:href="#TimesNewRomanPSMT-69" x="266.552734"/>
      <use xlink:href="#TimesNewRomanPSMT-76" x="294.335938"/>
      <use xlink:href="#TimesNewRomanPSMT-65" x="344.335938"/>
      <use xlink:href="#TimesNewRomanPSMT-20" x="388.720703"/>
      <use xlink:href="#TimesNewRomanPSMT-28" x="413.720703"/>
      <use xlink:href="#TimesNewRomanPSMT-45" x="447.021484"/>
      <use xlink:href="#TimesNewRomanPSMT-78" x="508.105469"/>
      <use xlink:href="#TimesNewRomanPSMT-61" x="558.105469"/>
      <use xlink:href="#TimesNewRomanPSMT-63" x="602.490234"/>
      <use xlink:href="#TimesNewRomanPSMT-74" x="646.875"/>
      <use xlink:href="#TimesNewRomanPSMT-20" x="674.658203"/>
      <use xlink:href="#TimesNewRomanPSMT-48" x="699.658203"/>
      <use xlink:href="#TimesNewRomanPSMT-65" x="771.875"/>
      <use xlink:href="#TimesNewRomanPSMT-73" x="816.259766"/>
      <use xlink:href="#TimesNewRomanPSMT-73" x="855.175781"/>
      <use xlink:href="#TimesNewRomanPSMT-69" x="894.091797"/>
      <use xlink:href="#TimesNewRomanPSMT-61" x="921.875"/>
      <use xlink:href="#TimesNewRomanPSMT-6e" x="966.259766"/>
      <use xlink:href="#TimesNewRomanPSMT-29" x="1016.259766"/>
     </g>
    </g>
    <g id="line2d_61">
     <path d="M 206.311431 62.918906 
L 211.936431 62.918906 
L 217.561431 62.918906 
" style="fill: none; stroke: #0000ff; stroke-width: 1.25; stroke-linecap: square"/>
     <g>
      <use xlink:href="#ma57a3bb43f" x="211.936431" y="62.918906" style="fill: #ffffff; stroke: #0000ff; stroke-width: 1.25"/>
     </g>
    </g>
    <g id="text_19">
     <!-- Objective (BFGS update) -->
     <g transform="translate(224.761431 66.068906) scale(0.09 -0.09)">
      <defs>
       <path id="TimesNewRomanPSMT-42" d="M 2956 2163 
Q 3397 2069 3616 1863 
Q 3919 1575 3919 1159 
Q 3919 844 3719 555 
Q 3519 266 3170 133 
Q 2822 0 2106 0 
L 106 0 
L 106 116 
L 266 116 
Q 531 116 647 284 
Q 719 394 719 750 
L 719 3488 
Q 719 3881 628 3984 
Q 506 4122 266 4122 
L 106 4122 
L 106 4238 
L 1938 4238 
Q 2450 4238 2759 4163 
Q 3228 4050 3475 3764 
Q 3722 3478 3722 3106 
Q 3722 2788 3528 2536 
Q 3334 2284 2956 2163 
z
M 1319 2331 
Q 1434 2309 1582 2298 
Q 1731 2288 1909 2288 
Q 2366 2288 2595 2386 
Q 2825 2484 2947 2687 
Q 3069 2891 3069 3131 
Q 3069 3503 2766 3765 
Q 2463 4028 1881 4028 
Q 1569 4028 1319 3959 
L 1319 2331 
z
M 1319 306 
Q 1681 222 2034 222 
Q 2600 222 2897 476 
Q 3194 731 3194 1106 
Q 3194 1353 3059 1581 
Q 2925 1809 2622 1940 
Q 2319 2072 1872 2072 
Q 1678 2072 1540 2065 
Q 1403 2059 1319 2044 
L 1319 306 
z
" transform="scale(0.015625)"/>
       <path id="TimesNewRomanPSMT-46" d="M 1309 4006 
L 1309 2341 
L 2081 2341 
Q 2347 2341 2470 2458 
Q 2594 2575 2634 2922 
L 2750 2922 
L 2750 1488 
L 2634 1488 
Q 2631 1734 2570 1850 
Q 2509 1966 2401 2023 
Q 2294 2081 2081 2081 
L 1309 2081 
L 1309 750 
Q 1309 428 1350 325 
Q 1381 247 1481 191 
Q 1619 116 1769 116 
L 1922 116 
L 1922 0 
L 103 0 
L 103 116 
L 253 116 
Q 516 116 634 269 
Q 709 369 709 750 
L 709 3488 
Q 709 3809 669 3913 
Q 638 3991 541 4047 
Q 406 4122 253 4122 
L 103 4122 
L 103 4238 
L 3256 4238 
L 3297 3306 
L 3188 3306 
Q 3106 3603 2998 3742 
Q 2891 3881 2733 3943 
Q 2575 4006 2244 4006 
L 1309 4006 
z
" transform="scale(0.015625)"/>
       <path id="TimesNewRomanPSMT-47" d="M 3928 4334 
L 4038 2997 
L 3928 2997 
Q 3763 3497 3500 3750 
Q 3122 4116 2528 4116 
Q 1719 4116 1297 3475 
Q 944 2934 944 2188 
Q 944 1581 1178 1081 
Q 1413 581 1792 348 
Q 2172 116 2572 116 
Q 2806 116 3025 175 
Q 3244 234 3447 350 
L 3447 1575 
Q 3447 1894 3398 1992 
Q 3350 2091 3248 2142 
Q 3147 2194 2891 2194 
L 2891 2313 
L 4531 2313 
L 4531 2194 
L 4453 2194 
Q 4209 2194 4119 2031 
Q 4056 1916 4056 1575 
L 4056 278 
Q 3697 84 3347 -6 
Q 2997 -97 2569 -97 
Q 1341 -97 703 691 
Q 225 1281 225 2053 
Q 225 2613 494 3125 
Q 813 3734 1369 4063 
Q 1834 4334 2469 4334 
Q 2700 4334 2889 4296 
Q 3078 4259 3425 4131 
Q 3600 4066 3659 4066 
Q 3719 4066 3761 4120 
Q 3803 4175 3813 4334 
L 3928 4334 
z
" transform="scale(0.015625)"/>
       <path id="TimesNewRomanPSMT-70" d="M -6 2578 
L 875 2934 
L 994 2934 
L 994 2266 
Q 1216 2644 1439 2795 
Q 1663 2947 1909 2947 
Q 2341 2947 2628 2609 
Q 2981 2197 2981 1534 
Q 2981 794 2556 309 
Q 2206 -88 1675 -88 
Q 1444 -88 1275 -22 
Q 1150 25 994 166 
L 994 -706 
Q 994 -1000 1030 -1079 
Q 1066 -1159 1155 -1206 
Q 1244 -1253 1478 -1253 
L 1478 -1369 
L -22 -1369 
L -22 -1253 
L 56 -1253 
Q 228 -1256 350 -1188 
Q 409 -1153 442 -1076 
Q 475 -1000 475 -688 
L 475 2019 
Q 475 2297 450 2372 
Q 425 2447 370 2484 
Q 316 2522 222 2522 
Q 147 2522 31 2478 
L -6 2578 
z
M 994 2081 
L 994 1013 
Q 994 666 1022 556 
Q 1066 375 1236 237 
Q 1406 100 1666 100 
Q 1978 100 2172 344 
Q 2425 663 2425 1241 
Q 2425 1897 2138 2250 
Q 1938 2494 1663 2494 
Q 1513 2494 1366 2419 
Q 1253 2363 994 2081 
z
" transform="scale(0.015625)"/>
      </defs>
      <use xlink:href="#TimesNewRomanPSMT-4f"/>
      <use xlink:href="#TimesNewRomanPSMT-62" x="72.216797"/>
      <use xlink:href="#TimesNewRomanPSMT-6a" x="122.216797"/>
      <use xlink:href="#TimesNewRomanPSMT-65" x="150"/>
      <use xlink:href="#TimesNewRomanPSMT-63" x="194.384766"/>
      <use xlink:href="#TimesNewRomanPSMT-74" x="238.769531"/>
      <use xlink:href="#TimesNewRomanPSMT-69" x="266.552734"/>
      <use xlink:href="#TimesNewRomanPSMT-76" x="294.335938"/>
      <use xlink:href="#TimesNewRomanPSMT-65" x="344.335938"/>
      <use xlink:href="#TimesNewRomanPSMT-20" x="388.720703"/>
      <use xlink:href="#TimesNewRomanPSMT-28" x="413.720703"/>
      <use xlink:href="#TimesNewRomanPSMT-42" x="447.021484"/>
      <use xlink:href="#TimesNewRomanPSMT-46" x="513.720703"/>
      <use xlink:href="#TimesNewRomanPSMT-47" x="569.335938"/>
      <use xlink:href="#TimesNewRomanPSMT-53" x="641.552734"/>
      <use xlink:href="#TimesNewRomanPSMT-20" x="697.167969"/>
      <use xlink:href="#TimesNewRomanPSMT-75" x="722.167969"/>
      <use xlink:href="#TimesNewRomanPSMT-70" x="772.167969"/>
      <use xlink:href="#TimesNewRomanPSMT-64" x="822.167969"/>
      <use xlink:href="#TimesNewRomanPSMT-61" x="872.167969"/>
      <use xlink:href="#TimesNewRomanPSMT-74" x="916.552734"/>
      <use xlink:href="#TimesNewRomanPSMT-65" x="944.335938"/>
      <use xlink:href="#TimesNewRomanPSMT-29" x="988.720703"/>
     </g>
    </g>
    <g id="line2d_62">
     <path d="M 325.974869 51.976875 
L 331.599869 51.976875 
L 337.224869 51.976875 
" style="fill: none; stroke-dasharray: 1.25,2.0625; stroke-dashoffset: 0; stroke: #000000; stroke-width: 1.25"/>
     <g>
      <use xlink:href="#m0e8088e136" x="331.599869" y="51.976875" style="fill: #ffffff; stroke: #000000; stroke-width: 1.25"/>
     </g>
    </g>
    <g id="text_20">
     <!-- Constraint -->
     <g transform="translate(344.424869 55.126875) scale(0.09 -0.09)">
      <use xlink:href="#TimesNewRomanPSMT-43"/>
      <use xlink:href="#TimesNewRomanPSMT-6f" x="66.699219"/>
      <use xlink:href="#TimesNewRomanPSMT-6e" x="116.699219"/>
      <use xlink:href="#TimesNewRomanPSMT-73" x="166.699219"/>
      <use xlink:href="#TimesNewRomanPSMT-74" x="205.615234"/>
      <use xlink:href="#TimesNewRomanPSMT-72" x="233.398438"/>
      <use xlink:href="#TimesNewRomanPSMT-61" x="266.699219"/>
      <use xlink:href="#TimesNewRomanPSMT-69" x="311.083984"/>
      <use xlink:href="#TimesNewRomanPSMT-6e" x="338.867188"/>
      <use xlink:href="#TimesNewRomanPSMT-74" x="388.867188"/>
     </g>
    </g>
    <g id="line2d_63">
     <path d="M 325.974869 62.902031 
L 331.599869 62.902031 
L 337.224869 62.902031 
" style="fill: none; stroke-dasharray: 1.25,2.0625; stroke-dashoffset: 0; stroke: #0000ff; stroke-width: 1.25"/>
     <g>
      <use xlink:href="#ma57a3bb43f" x="331.599869" y="62.902031" style="fill: #ffffff; stroke: #0000ff; stroke-width: 1.25"/>
     </g>
    </g>
    <g id="text_21">
     <!-- Constraint -->
     <g transform="translate(344.424869 66.052031) scale(0.09 -0.09)">
      <use xlink:href="#TimesNewRomanPSMT-43"/>
      <use xlink:href="#TimesNewRomanPSMT-6f" x="66.699219"/>
      <use xlink:href="#TimesNewRomanPSMT-6e" x="116.699219"/>
      <use xlink:href="#TimesNewRomanPSMT-73" x="166.699219"/>
      <use xlink:href="#TimesNewRomanPSMT-74" x="205.615234"/>
      <use xlink:href="#TimesNewRomanPSMT-72" x="233.398438"/>
      <use xlink:href="#TimesNewRomanPSMT-61" x="266.699219"/>
      <use xlink:href="#TimesNewRomanPSMT-69" x="311.083984"/>
      <use xlink:href="#TimesNewRomanPSMT-6e" x="338.867188"/>
      <use xlink:href="#TimesNewRomanPSMT-74" x="388.867188"/>
     </g>
    </g>
   </g>
  </g>
 </g>
 <defs>
  <clipPath id="p62b6a5063b">
   <rect x="61.458125" y="34.426875" width="334.865806" height="253.22"/>
  </clipPath>
 </defs>
</svg>
